<svg width="511" height="329" viewBox="0 0 511 329" fill="none" xmlns="http://www.w3.org/2000/svg">
<g filter="url(#filter0_d_2356_9402)">
<rect x="25.5" y="17.5" width="460" height="278" rx="21.215" stroke="black" stroke-opacity="0.29" stroke-width="3" stroke-dasharray="9 9" shape-rendering="crispEdges"/>
</g>
<path d="M97.7557 233.491C98.4228 233.616 98.9881 233.955 99.4516 234.509C99.9151 235.063 100.147 235.707 100.147 236.442C100.147 237.041 99.9943 237.584 99.689 238.07C99.3951 238.545 98.9598 238.924 98.3832 239.206C97.8066 239.478 97.117 239.613 96.3142 239.613H92.2102V227.759H96.1955C97.3939 227.759 98.3041 228.036 98.9259 228.59C99.559 229.144 99.8756 229.862 99.8756 230.744C99.8756 231.479 99.6777 232.078 99.282 232.541C98.8863 232.994 98.3776 233.31 97.7557 233.491ZM93.3973 232.999H96.1616C96.9643 232.999 97.5805 232.813 98.0101 232.44C98.451 232.055 98.6715 231.53 98.6715 230.863C98.6715 230.207 98.451 229.692 98.0101 229.319C97.5805 228.946 96.9474 228.76 96.1107 228.76H93.3973V232.999ZM96.2294 238.613C97.0887 238.613 97.7557 238.409 98.2306 238.002C98.7167 237.595 98.9598 237.036 98.9598 236.323C98.9598 235.611 98.7054 235.046 98.1967 234.627C97.6992 234.198 97.0265 233.983 96.1786 233.983H93.3973V238.613H96.2294ZM110.707 234.509C110.707 234.916 110.695 235.227 110.673 235.441H102.991C103.024 236.142 103.194 236.742 103.499 237.239C103.805 237.737 104.206 238.115 104.703 238.375C105.201 238.624 105.744 238.748 106.331 238.748C107.1 238.748 107.745 238.562 108.265 238.189C108.796 237.816 109.147 237.313 109.316 236.679H110.571C110.345 237.584 109.859 238.324 109.113 238.901C108.378 239.466 107.451 239.749 106.331 239.749C105.461 239.749 104.681 239.557 103.991 239.172C103.301 238.777 102.759 238.223 102.363 237.51C101.979 236.787 101.786 235.945 101.786 234.984C101.786 234.023 101.979 233.18 102.363 232.457C102.747 231.733 103.285 231.179 103.974 230.795C104.664 230.41 105.45 230.218 106.331 230.218C107.213 230.218 107.982 230.41 108.638 230.795C109.305 231.179 109.814 231.699 110.164 232.355C110.526 232.999 110.707 233.717 110.707 234.509ZM109.503 234.475C109.514 233.785 109.373 233.197 109.079 232.711C108.796 232.225 108.406 231.857 107.909 231.609C107.411 231.36 106.868 231.236 106.281 231.236C105.399 231.236 104.647 231.518 104.025 232.084C103.403 232.649 103.058 233.446 102.991 234.475H109.503ZM114.066 227.064V239.613H112.879V227.064H114.066ZM124.776 230.354V239.613H123.588V237.985C123.317 238.562 122.899 239.003 122.333 239.308C121.768 239.613 121.135 239.766 120.434 239.766C119.326 239.766 118.422 239.427 117.721 238.748C117.02 238.059 116.669 237.064 116.669 235.764V230.354H117.839V235.628C117.839 236.634 118.088 237.403 118.586 237.934C119.094 238.466 119.784 238.731 120.655 238.731C121.548 238.731 122.26 238.449 122.791 237.883C123.323 237.318 123.588 236.487 123.588 235.391V230.354H124.776ZM138.509 230.184C139.594 230.184 140.476 230.529 141.155 231.219C141.844 231.897 142.189 232.886 142.189 234.186V239.613H141.019V234.322C141.019 233.316 140.776 232.547 140.29 232.016C139.803 231.484 139.142 231.219 138.305 231.219C137.435 231.219 136.74 231.507 136.22 232.084C135.699 232.66 135.439 233.497 135.439 234.593V239.613H134.269V234.322C134.269 233.316 134.026 232.547 133.54 232.016C133.054 231.484 132.387 231.219 131.539 231.219C130.668 231.219 129.973 231.507 129.453 232.084C128.933 232.66 128.673 233.497 128.673 234.593V239.613H127.486V230.354H128.673V231.948C128.967 231.371 129.385 230.936 129.928 230.642C130.471 230.337 131.075 230.184 131.742 230.184C132.545 230.184 133.246 230.376 133.845 230.761C134.456 231.145 134.897 231.71 135.168 232.457C135.417 231.722 135.841 231.162 136.44 230.778C137.051 230.382 137.74 230.184 138.509 230.184ZM148.936 234.967C148.936 234.017 149.123 233.186 149.496 232.474C149.881 231.75 150.406 231.196 151.073 230.812C151.752 230.416 152.515 230.218 153.363 230.218C154.245 230.218 155.002 230.422 155.635 230.829C156.28 231.236 156.743 231.756 157.026 232.389V230.354H158.213V239.613H157.026V237.561C156.732 238.194 156.263 238.72 155.618 239.138C154.985 239.545 154.228 239.749 153.346 239.749C152.509 239.749 151.752 239.551 151.073 239.155C150.406 238.76 149.881 238.2 149.496 237.476C149.123 236.753 148.936 235.916 148.936 234.967ZM157.026 234.984C157.026 234.237 156.873 233.582 156.568 233.016C156.263 232.451 155.844 232.016 155.313 231.71C154.793 231.405 154.216 231.253 153.583 231.253C152.927 231.253 152.34 231.4 151.819 231.694C151.299 231.987 150.887 232.417 150.581 232.982C150.288 233.536 150.141 234.198 150.141 234.967C150.141 235.724 150.288 236.391 150.581 236.968C150.887 237.533 151.299 237.968 151.819 238.274C152.34 238.567 152.927 238.714 153.583 238.714C154.216 238.714 154.793 238.562 155.313 238.257C155.844 237.951 156.263 237.516 156.568 236.951C156.873 236.385 157.026 235.73 157.026 234.984ZM160.38 234.967C160.38 234.017 160.573 233.186 160.957 232.474C161.341 231.75 161.867 231.196 162.534 230.812C163.212 230.416 163.976 230.218 164.824 230.218C165.638 230.218 166.372 230.416 167.028 230.812C167.684 231.207 168.164 231.722 168.47 232.355V227.064H169.657V239.613H168.47V237.544C168.187 238.189 167.723 238.72 167.079 239.138C166.435 239.545 165.677 239.749 164.807 239.749C163.959 239.749 163.195 239.551 162.517 239.155C161.85 238.76 161.324 238.2 160.94 237.476C160.567 236.753 160.38 235.916 160.38 234.967ZM168.47 234.984C168.47 234.237 168.317 233.582 168.012 233.016C167.707 232.451 167.288 232.016 166.757 231.71C166.237 231.405 165.66 231.253 165.027 231.253C164.371 231.253 163.783 231.4 163.263 231.694C162.743 231.987 162.331 232.417 162.025 232.982C161.731 233.536 161.584 234.198 161.584 234.967C161.584 235.724 161.731 236.391 162.025 236.968C162.331 237.533 162.743 237.968 163.263 238.274C163.783 238.567 164.371 238.714 165.027 238.714C165.66 238.714 166.237 238.562 166.757 238.257C167.288 237.951 167.707 237.516 168.012 236.951C168.317 236.385 168.47 235.73 168.47 234.984ZM171.824 234.967C171.824 234.017 172.011 233.186 172.384 232.474C172.768 231.75 173.294 231.196 173.961 230.812C174.639 230.416 175.402 230.218 176.25 230.218C177.132 230.218 177.89 230.422 178.523 230.829C179.167 231.236 179.631 231.756 179.914 232.389V230.354H181.101V239.613H179.914V237.561C179.62 238.194 179.15 238.72 178.506 239.138C177.873 239.545 177.115 239.749 176.233 239.749C175.397 239.749 174.639 239.551 173.961 239.155C173.294 238.76 172.768 238.2 172.384 237.476C172.011 236.753 171.824 235.916 171.824 234.967ZM179.914 234.984C179.914 234.237 179.761 233.582 179.456 233.016C179.15 232.451 178.732 232.016 178.201 231.71C177.681 231.405 177.104 231.253 176.471 231.253C175.815 231.253 175.227 231.4 174.707 231.694C174.187 231.987 173.774 232.417 173.469 232.982C173.175 233.536 173.028 234.198 173.028 234.967C173.028 235.724 173.175 236.391 173.469 236.968C173.774 237.533 174.187 237.968 174.707 238.274C175.227 238.567 175.815 238.714 176.471 238.714C177.104 238.714 177.681 238.562 178.201 238.257C178.732 237.951 179.15 237.516 179.456 236.951C179.761 236.385 179.914 235.73 179.914 234.984ZM189.635 232.389C189.929 231.767 190.392 231.253 191.025 230.846C191.67 230.427 192.433 230.218 193.315 230.218C194.151 230.218 194.903 230.416 195.57 230.812C196.249 231.196 196.774 231.75 197.147 232.474C197.532 233.186 197.724 234.017 197.724 234.967C197.724 235.916 197.532 236.753 197.147 237.476C196.774 238.2 196.249 238.76 195.57 239.155C194.903 239.551 194.151 239.749 193.315 239.749C192.444 239.749 191.687 239.545 191.042 239.138C190.398 238.72 189.929 238.2 189.635 237.578V243.989H188.464V230.354H189.635V232.389ZM196.52 234.967C196.52 234.198 196.367 233.536 196.062 232.982C195.768 232.417 195.361 231.987 194.841 231.694C194.321 231.4 193.733 231.253 193.077 231.253C192.444 231.253 191.862 231.405 191.33 231.71C190.81 232.016 190.398 232.451 190.092 233.016C189.787 233.582 189.635 234.237 189.635 234.984C189.635 235.73 189.787 236.385 190.092 236.951C190.398 237.516 190.81 237.951 191.33 238.257C191.862 238.562 192.444 238.714 193.077 238.714C193.733 238.714 194.321 238.567 194.841 238.274C195.361 237.968 195.768 237.533 196.062 236.968C196.367 236.391 196.52 235.724 196.52 234.967ZM208.286 234.509C208.286 234.916 208.275 235.227 208.252 235.441H200.57C200.604 236.142 200.773 236.742 201.078 237.239C201.384 237.737 201.785 238.115 202.283 238.375C202.78 238.624 203.323 238.748 203.911 238.748C204.679 238.748 205.324 238.562 205.844 238.189C206.375 237.816 206.726 237.313 206.895 236.679H208.15C207.924 237.584 207.438 238.324 206.692 238.901C205.957 239.466 205.03 239.749 203.911 239.749C203.04 239.749 202.26 239.557 201.57 239.172C200.881 238.777 200.338 238.223 199.942 237.51C199.558 236.787 199.366 235.945 199.366 234.984C199.366 234.023 199.558 233.18 199.942 232.457C200.327 231.733 200.864 231.179 201.553 230.795C202.243 230.41 203.029 230.218 203.911 230.218C204.792 230.218 205.561 230.41 206.217 230.795C206.884 231.179 207.393 231.699 207.743 232.355C208.105 232.999 208.286 233.717 208.286 234.509ZM207.082 234.475C207.093 233.785 206.952 233.197 206.658 232.711C206.375 232.225 205.985 231.857 205.488 231.609C204.99 231.36 204.448 231.236 203.86 231.236C202.978 231.236 202.226 231.518 201.604 232.084C200.982 232.649 200.638 233.446 200.57 234.475H207.082ZM214.799 230.184C215.907 230.184 216.812 230.529 217.513 231.219C218.214 231.897 218.564 232.886 218.564 234.186V239.613H217.394V234.322C217.394 233.316 217.14 232.547 216.631 232.016C216.133 231.484 215.449 231.219 214.579 231.219C213.686 231.219 212.973 231.501 212.442 232.067C211.911 232.632 211.645 233.463 211.645 234.56V239.613H210.458V230.354H211.645V231.931C211.939 231.366 212.363 230.936 212.917 230.642C213.471 230.337 214.098 230.184 214.799 230.184ZM225.073 230.218C225.944 230.218 226.701 230.422 227.346 230.829C227.99 231.236 228.454 231.75 228.736 232.372V230.354H229.923V239.851C229.923 240.699 229.737 241.45 229.364 242.106C229.002 242.762 228.493 243.265 227.837 243.616C227.182 243.977 226.435 244.158 225.599 244.158C224.412 244.158 223.422 243.876 222.631 243.31C221.851 242.745 221.365 241.976 221.173 241.004H222.343C222.546 241.648 222.931 242.163 223.496 242.547C224.073 242.932 224.774 243.124 225.599 243.124C226.198 243.124 226.735 242.994 227.21 242.734C227.685 242.485 228.058 242.112 228.329 241.614C228.601 241.117 228.736 240.529 228.736 239.851V237.561C228.442 238.194 227.973 238.72 227.329 239.138C226.696 239.545 225.944 239.749 225.073 239.749C224.225 239.749 223.462 239.551 222.784 239.155C222.117 238.76 221.591 238.2 221.207 237.476C220.833 236.753 220.647 235.916 220.647 234.967C220.647 234.017 220.833 233.186 221.207 232.474C221.591 231.75 222.117 231.196 222.784 230.812C223.462 230.416 224.225 230.218 225.073 230.218ZM228.736 234.984C228.736 234.237 228.584 233.582 228.278 233.016C227.973 232.451 227.555 232.016 227.023 231.71C226.503 231.405 225.927 231.253 225.294 231.253C224.638 231.253 224.05 231.4 223.53 231.694C223.01 231.987 222.597 232.417 222.292 232.982C221.998 233.536 221.851 234.198 221.851 234.967C221.851 235.724 221.998 236.391 222.292 236.968C222.597 237.533 223.01 237.968 223.53 238.274C224.05 238.567 224.638 238.714 225.294 238.714C225.927 238.714 226.503 238.562 227.023 238.257C227.555 237.951 227.973 237.516 228.278 236.951C228.584 236.385 228.736 235.73 228.736 234.984ZM232.091 234.967C232.091 234.017 232.277 233.186 232.65 232.474C233.035 231.75 233.56 231.196 234.228 230.812C234.906 230.416 235.669 230.218 236.517 230.218C237.399 230.218 238.156 230.422 238.789 230.829C239.434 231.236 239.897 231.756 240.18 232.389V230.354H241.367V239.613H240.18V237.561C239.886 238.194 239.417 238.72 238.772 239.138C238.139 239.545 237.382 239.749 236.5 239.749C235.663 239.749 234.906 239.551 234.228 239.155C233.56 238.76 233.035 238.2 232.65 237.476C232.277 236.753 232.091 235.916 232.091 234.967ZM240.18 234.984C240.18 234.237 240.027 233.582 239.722 233.016C239.417 232.451 238.999 232.016 238.467 231.71C237.947 231.405 237.371 231.253 236.737 231.253C236.082 231.253 235.494 231.4 234.974 231.694C234.454 231.987 234.041 232.417 233.736 232.982C233.442 233.536 233.295 234.198 233.295 234.967C233.295 235.724 233.442 236.391 233.736 236.968C234.041 237.533 234.454 237.968 234.974 238.274C235.494 238.567 236.082 238.714 236.737 238.714C237.371 238.714 237.947 238.562 238.467 238.257C238.999 237.951 239.417 237.516 239.722 236.951C240.027 236.385 240.18 235.73 240.18 234.984ZM244.756 228.607C244.518 228.607 244.315 228.522 244.145 228.353C243.976 228.183 243.891 227.974 243.891 227.725C243.891 227.476 243.976 227.273 244.145 227.115C244.315 226.945 244.518 226.86 244.756 226.86C244.993 226.86 245.191 226.945 245.349 227.115C245.519 227.273 245.604 227.476 245.604 227.725C245.604 227.974 245.519 228.183 245.349 228.353C245.191 228.522 244.993 228.607 244.756 228.607ZM245.332 241.801C245.332 242.547 245.146 243.095 244.773 243.446C244.399 243.808 243.84 243.989 243.094 243.989H242.263V242.971H242.907C243.348 242.971 243.665 242.875 243.857 242.683C244.049 242.502 244.145 242.191 244.145 241.75V230.354H245.332V241.801ZM256.073 230.354V239.613H254.886V237.985C254.615 238.562 254.197 239.003 253.631 239.308C253.066 239.613 252.433 239.766 251.732 239.766C250.624 239.766 249.72 239.427 249.019 238.748C248.318 238.059 247.967 237.064 247.967 235.764V230.354H249.137V235.628C249.137 236.634 249.386 237.403 249.884 237.934C250.392 238.466 251.082 238.731 251.952 238.731C252.846 238.731 253.558 238.449 254.089 237.883C254.621 237.318 254.886 236.487 254.886 235.391V230.354H256.073ZM258.241 234.967C258.241 234.017 258.428 233.186 258.801 232.474C259.185 231.75 259.711 231.196 260.378 230.812C261.056 230.416 261.819 230.218 262.667 230.218C263.549 230.218 264.307 230.422 264.94 230.829C265.584 231.236 266.048 231.756 266.33 232.389V230.354H267.517V239.613H266.33V237.561C266.036 238.194 265.567 238.72 264.923 239.138C264.29 239.545 263.532 239.749 262.65 239.749C261.814 239.749 261.056 239.551 260.378 239.155C259.711 238.76 259.185 238.2 258.801 237.476C258.428 236.753 258.241 235.916 258.241 234.967ZM266.33 234.984C266.33 234.237 266.178 233.582 265.872 233.016C265.567 232.451 265.149 232.016 264.618 231.71C264.097 231.405 263.521 231.253 262.888 231.253C262.232 231.253 261.644 231.4 261.124 231.694C260.604 231.987 260.191 232.417 259.886 232.982C259.592 233.536 259.445 234.198 259.445 234.967C259.445 235.724 259.592 236.391 259.886 236.968C260.191 237.533 260.604 237.968 261.124 238.274C261.644 238.567 262.232 238.714 262.888 238.714C263.521 238.714 264.097 238.562 264.618 238.257C265.149 237.951 265.567 237.516 265.872 236.951C266.178 236.385 266.33 235.73 266.33 234.984ZM274.569 230.184C275.677 230.184 276.581 230.529 277.282 231.219C277.983 231.897 278.334 232.886 278.334 234.186V239.613H277.164V234.322C277.164 233.316 276.909 232.547 276.401 232.016C275.903 231.484 275.219 231.219 274.349 231.219C273.455 231.219 272.743 231.501 272.212 232.067C271.68 232.632 271.415 233.463 271.415 234.56V239.613H270.228V230.354H271.415V231.931C271.709 231.366 272.133 230.936 272.687 230.642C273.241 230.337 273.868 230.184 274.569 230.184ZM286.783 232.406C287.088 231.761 287.558 231.236 288.191 230.829C288.835 230.422 289.593 230.218 290.463 230.218C291.311 230.218 292.069 230.416 292.736 230.812C293.403 231.196 293.923 231.75 294.296 232.474C294.68 233.186 294.872 234.017 294.872 234.967C294.872 235.916 294.68 236.753 294.296 237.476C293.923 238.2 293.397 238.76 292.719 239.155C292.052 239.551 291.3 239.749 290.463 239.749C289.581 239.749 288.818 239.551 288.174 239.155C287.541 238.748 287.077 238.223 286.783 237.578V239.613H285.613V227.064H286.783V232.406ZM293.668 234.967C293.668 234.198 293.516 233.536 293.211 232.982C292.917 232.417 292.51 231.987 291.989 231.694C291.469 231.4 290.882 231.253 290.226 231.253C289.593 231.253 289.01 231.405 288.479 231.71C287.959 232.016 287.546 232.451 287.241 233.016C286.936 233.582 286.783 234.237 286.783 234.984C286.783 235.73 286.936 236.385 287.241 236.951C287.546 237.516 287.959 237.951 288.479 238.257C289.01 238.562 289.593 238.714 290.226 238.714C290.882 238.714 291.469 238.567 291.989 238.274C292.51 237.968 292.917 237.533 293.211 236.968C293.516 236.391 293.668 235.724 293.668 234.967ZM297.65 228.607C297.413 228.607 297.209 228.522 297.04 228.353C296.87 228.183 296.785 227.974 296.785 227.725C296.785 227.476 296.87 227.273 297.04 227.115C297.209 226.945 297.413 226.86 297.65 226.86C297.888 226.86 298.091 226.945 298.261 227.115C298.43 227.273 298.515 227.476 298.515 227.725C298.515 227.974 298.43 228.183 298.261 228.353C298.091 228.522 297.888 228.607 297.65 228.607ZM298.244 230.354V239.613H297.057V230.354H298.244ZM311.955 230.184C313.041 230.184 313.923 230.529 314.601 231.219C315.291 231.897 315.635 232.886 315.635 234.186V239.613H314.465V234.322C314.465 233.316 314.222 232.547 313.736 232.016C313.25 231.484 312.588 231.219 311.752 231.219C310.881 231.219 310.186 231.507 309.666 232.084C309.146 232.66 308.886 233.497 308.886 234.593V239.613H307.716V234.322C307.716 233.316 307.473 232.547 306.986 232.016C306.5 231.484 305.833 231.219 304.985 231.219C304.115 231.219 303.419 231.507 302.899 232.084C302.379 232.66 302.119 233.497 302.119 234.593V239.613H300.932V230.354H302.119V231.948C302.413 231.371 302.832 230.936 303.374 230.642C303.917 230.337 304.522 230.184 305.189 230.184C305.992 230.184 306.692 230.376 307.292 230.761C307.902 231.145 308.343 231.71 308.614 232.457C308.863 231.722 309.287 231.162 309.886 230.778C310.497 230.382 311.187 230.184 311.955 230.184ZM319.442 232.406C319.747 231.761 320.216 231.236 320.85 230.829C321.494 230.422 322.252 230.218 323.122 230.218C323.97 230.218 324.727 230.416 325.395 230.812C326.062 231.196 326.582 231.75 326.955 232.474C327.339 233.186 327.531 234.017 327.531 234.967C327.531 235.916 327.339 236.753 326.955 237.476C326.582 238.2 326.056 238.76 325.378 239.155C324.711 239.551 323.959 239.749 323.122 239.749C322.24 239.749 321.477 239.551 320.833 239.155C320.199 238.748 319.736 238.223 319.442 237.578V239.613H318.272V227.064H319.442V232.406ZM326.327 234.967C326.327 234.198 326.175 233.536 325.869 232.982C325.575 232.417 325.168 231.987 324.648 231.694C324.128 231.4 323.54 231.253 322.885 231.253C322.252 231.253 321.669 231.405 321.138 231.71C320.618 232.016 320.205 232.451 319.9 233.016C319.595 233.582 319.442 234.237 319.442 234.984C319.442 235.73 319.595 236.385 319.9 236.951C320.205 237.516 320.618 237.951 321.138 238.257C321.669 238.562 322.252 238.714 322.885 238.714C323.54 238.714 324.128 238.567 324.648 238.274C325.168 237.968 325.575 237.533 325.869 236.968C326.175 236.391 326.327 235.724 326.327 234.967ZM330.309 228.607C330.072 228.607 329.868 228.522 329.699 228.353C329.529 228.183 329.444 227.974 329.444 227.725C329.444 227.476 329.529 227.273 329.699 227.115C329.868 226.945 330.072 226.86 330.309 226.86C330.547 226.86 330.75 226.945 330.92 227.115C331.089 227.273 331.174 227.476 331.174 227.725C331.174 227.974 331.089 228.183 330.92 228.353C330.75 228.522 330.547 228.607 330.309 228.607ZM330.903 230.354V239.613H329.716V230.354H330.903ZM337.932 230.184C339.04 230.184 339.945 230.529 340.646 231.219C341.347 231.897 341.697 232.886 341.697 234.186V239.613H340.527V234.322C340.527 233.316 340.273 232.547 339.764 232.016C339.267 231.484 338.583 231.219 337.712 231.219C336.819 231.219 336.107 231.501 335.575 232.067C335.044 232.632 334.778 233.463 334.778 234.56V239.613H333.591V230.354H334.778V231.931C335.072 231.366 335.496 230.936 336.05 230.642C336.604 230.337 337.232 230.184 337.932 230.184ZM348.206 230.218C349.077 230.218 349.834 230.422 350.479 230.829C351.123 231.236 351.587 231.75 351.869 232.372V230.354H353.057V239.851C353.057 240.699 352.87 241.45 352.497 242.106C352.135 242.762 351.626 243.265 350.971 243.616C350.315 243.977 349.569 244.158 348.732 244.158C347.545 244.158 346.556 243.876 345.764 243.31C344.984 242.745 344.498 241.976 344.306 241.004H345.476C345.679 241.648 346.064 242.163 346.629 242.547C347.206 242.932 347.907 243.124 348.732 243.124C349.331 243.124 349.868 242.994 350.343 242.734C350.818 242.485 351.191 242.112 351.462 241.614C351.734 241.117 351.869 240.529 351.869 239.851V237.561C351.575 238.194 351.106 238.72 350.462 239.138C349.829 239.545 349.077 239.749 348.206 239.749C347.358 239.749 346.595 239.551 345.917 239.155C345.25 238.76 344.724 238.2 344.34 237.476C343.967 236.753 343.78 235.916 343.78 234.967C343.78 234.017 343.967 233.186 344.34 232.474C344.724 231.75 345.25 231.196 345.917 230.812C346.595 230.416 347.358 230.218 348.206 230.218ZM351.869 234.984C351.869 234.237 351.717 233.582 351.412 233.016C351.106 232.451 350.688 232.016 350.157 231.71C349.637 231.405 349.06 231.253 348.427 231.253C347.771 231.253 347.183 231.4 346.663 231.694C346.143 231.987 345.73 232.417 345.425 232.982C345.131 233.536 344.984 234.198 344.984 234.967C344.984 235.724 345.131 236.391 345.425 236.968C345.73 237.533 346.143 237.968 346.663 238.274C347.183 238.567 347.771 238.714 348.427 238.714C349.06 238.714 349.637 238.562 350.157 238.257C350.688 237.951 351.106 237.516 351.412 236.951C351.717 236.385 351.869 235.73 351.869 234.984ZM355.224 234.967C355.224 234.017 355.41 233.186 355.784 232.474C356.168 231.75 356.694 231.196 357.361 230.812C358.039 230.416 358.802 230.218 359.65 230.218C360.532 230.218 361.29 230.422 361.923 230.829C362.567 231.236 363.031 231.756 363.313 232.389V230.354H364.5V239.613H363.313V237.561C363.019 238.194 362.55 238.72 361.906 239.138C361.273 239.545 360.515 239.749 359.633 239.749C358.797 239.749 358.039 239.551 357.361 239.155C356.694 238.76 356.168 238.2 355.784 237.476C355.41 236.753 355.224 235.916 355.224 234.967ZM363.313 234.984C363.313 234.237 363.161 233.582 362.855 233.016C362.55 232.451 362.132 232.016 361.6 231.71C361.08 231.405 360.504 231.253 359.871 231.253C359.215 231.253 358.627 231.4 358.107 231.694C357.587 231.987 357.174 232.417 356.869 232.982C356.575 233.536 356.428 234.198 356.428 234.967C356.428 235.724 356.575 236.391 356.869 236.968C357.174 237.533 357.587 237.968 358.107 238.274C358.627 238.567 359.215 238.714 359.871 238.714C360.504 238.714 361.08 238.562 361.6 238.257C362.132 237.951 362.55 237.516 362.855 236.951C363.161 236.385 363.313 235.73 363.313 234.984ZM371.552 230.184C372.66 230.184 373.564 230.529 374.265 231.219C374.966 231.897 375.317 232.886 375.317 234.186V239.613H374.147V234.322C374.147 233.316 373.892 232.547 373.383 232.016C372.886 231.484 372.202 231.219 371.331 231.219C370.438 231.219 369.726 231.501 369.195 232.067C368.663 232.632 368.398 233.463 368.398 234.56V239.613H367.21V230.354H368.398V231.931C368.692 231.366 369.115 230.936 369.669 230.642C370.223 230.337 370.851 230.184 371.552 230.184ZM382.053 234.967C382.053 234.017 382.245 233.186 382.63 232.474C383.014 231.75 383.54 231.196 384.207 230.812C384.885 230.416 385.648 230.218 386.496 230.218C387.31 230.218 388.045 230.416 388.701 230.812C389.357 231.207 389.837 231.722 390.143 232.355V227.064H391.33V239.613H390.143V237.544C389.86 238.189 389.396 238.72 388.752 239.138C388.107 239.545 387.35 239.749 386.479 239.749C385.632 239.749 384.868 239.551 384.19 239.155C383.523 238.76 382.997 238.2 382.613 237.476C382.24 236.753 382.053 235.916 382.053 234.967ZM390.143 234.984C390.143 234.237 389.99 233.582 389.685 233.016C389.379 232.451 388.961 232.016 388.43 231.71C387.91 231.405 387.333 231.253 386.7 231.253C386.044 231.253 385.456 231.4 384.936 231.694C384.416 231.987 384.003 232.417 383.698 232.982C383.404 233.536 383.257 234.198 383.257 234.967C383.257 235.724 383.404 236.391 383.698 236.968C384.003 237.533 384.416 237.968 384.936 238.274C385.456 238.567 386.044 238.714 386.7 238.714C387.333 238.714 387.91 238.562 388.43 238.257C388.961 237.951 389.379 237.516 389.685 236.951C389.99 236.385 390.143 235.73 390.143 234.984ZM393.497 234.967C393.497 234.017 393.684 233.186 394.057 232.474C394.441 231.75 394.967 231.196 395.634 230.812C396.312 230.416 397.075 230.218 397.923 230.218C398.805 230.218 399.563 230.422 400.196 230.829C400.84 231.236 401.304 231.756 401.586 232.389V230.354H402.774V239.613H401.586V237.561C401.292 238.194 400.823 238.72 400.179 239.138C399.546 239.545 398.788 239.749 397.906 239.749C397.07 239.749 396.312 239.551 395.634 239.155C394.967 238.76 394.441 238.2 394.057 237.476C393.684 236.753 393.497 235.916 393.497 234.967ZM401.586 234.984C401.586 234.237 401.434 233.582 401.129 233.016C400.823 232.451 400.405 232.016 399.874 231.71C399.353 231.405 398.777 231.253 398.144 231.253C397.488 231.253 396.9 231.4 396.38 231.694C395.86 231.987 395.447 232.417 395.142 232.982C394.848 233.536 394.701 234.198 394.701 234.967C394.701 235.724 394.848 236.391 395.142 236.968C395.447 237.533 395.86 237.968 396.38 238.274C396.9 238.567 397.488 238.714 398.144 238.714C398.777 238.714 399.353 238.562 399.874 238.257C400.405 237.951 400.823 237.516 401.129 236.951C401.434 236.385 401.586 235.73 401.586 234.984ZM406.671 231.999C406.931 231.422 407.326 230.976 407.858 230.659C408.401 230.342 409.062 230.184 409.842 230.184V231.422H409.52C408.661 231.422 407.971 231.654 407.451 232.118C406.931 232.581 406.671 233.355 406.671 234.441V239.613H405.484V230.354H406.671V231.999ZM412.221 228.607C411.984 228.607 411.78 228.522 411.611 228.353C411.441 228.183 411.357 227.974 411.357 227.725C411.357 227.476 411.441 227.273 411.611 227.115C411.78 226.945 411.984 226.86 412.221 226.86C412.459 226.86 412.662 226.945 412.832 227.115C413.002 227.273 413.086 227.476 413.086 227.725C413.086 227.974 413.002 228.183 412.832 228.353C412.662 228.522 412.459 228.607 412.221 228.607ZM412.815 230.354V239.613H411.628V230.354H412.815ZM128.953 255.184C130.038 255.184 130.92 255.529 131.599 256.219C132.288 256.897 132.633 257.886 132.633 259.186V264.613H131.463V259.322C131.463 258.316 131.22 257.547 130.734 257.016C130.248 256.484 129.586 256.219 128.75 256.219C127.879 256.219 127.184 256.507 126.664 257.084C126.144 257.66 125.884 258.497 125.884 259.593V264.613H124.713V259.322C124.713 258.316 124.47 257.547 123.984 257.016C123.498 256.484 122.831 256.219 121.983 256.219C121.112 256.219 120.417 256.507 119.897 257.084C119.377 257.66 119.117 258.497 119.117 259.593V264.613H117.93V255.354H119.117V256.948C119.411 256.371 119.829 255.936 120.372 255.642C120.915 255.337 121.52 255.184 122.187 255.184C122.989 255.184 123.69 255.376 124.289 255.761C124.9 256.145 125.341 256.71 125.612 257.457C125.861 256.722 126.285 256.162 126.884 255.778C127.495 255.382 128.184 255.184 128.953 255.184ZM134.727 259.967C134.727 259.017 134.913 258.186 135.287 257.474C135.671 256.75 136.197 256.196 136.864 255.812C137.542 255.416 138.305 255.218 139.153 255.218C140.035 255.218 140.792 255.422 141.426 255.829C142.07 256.236 142.534 256.756 142.816 257.389V255.354H144.003V264.613H142.816V262.561C142.522 263.194 142.053 263.72 141.409 264.138C140.776 264.545 140.018 264.749 139.136 264.749C138.3 264.749 137.542 264.551 136.864 264.155C136.197 263.76 135.671 263.2 135.287 262.476C134.913 261.753 134.727 260.916 134.727 259.967ZM142.816 259.984C142.816 259.237 142.664 258.582 142.358 258.016C142.053 257.451 141.635 257.016 141.103 256.71C140.583 256.405 140.007 256.253 139.374 256.253C138.718 256.253 138.13 256.4 137.61 256.694C137.09 256.987 136.677 257.417 136.372 257.982C136.078 258.536 135.931 259.198 135.931 259.967C135.931 260.724 136.078 261.391 136.372 261.968C136.677 262.533 137.09 262.968 137.61 263.274C138.13 263.567 138.718 263.714 139.374 263.714C140.007 263.714 140.583 263.562 141.103 263.257C141.635 262.951 142.053 262.516 142.358 261.951C142.664 261.385 142.816 260.73 142.816 259.984ZM151.123 255.184C151.824 255.184 152.451 255.331 153.005 255.625C153.57 255.919 154.011 256.371 154.328 256.982C154.656 257.581 154.82 258.316 154.82 259.186V264.613H153.65V259.322C153.65 258.316 153.395 257.547 152.886 257.016C152.389 256.484 151.705 256.219 150.834 256.219C149.941 256.219 149.229 256.501 148.698 257.067C148.166 257.632 147.901 258.463 147.901 259.56V264.613H146.713V252.064H147.901V256.931C148.194 256.377 148.624 255.947 149.189 255.642C149.766 255.337 150.41 255.184 151.123 255.184ZM156.902 259.967C156.902 259.017 157.089 258.186 157.462 257.474C157.846 256.75 158.372 256.196 159.039 255.812C159.718 255.416 160.481 255.218 161.329 255.218C162.211 255.218 162.968 255.422 163.601 255.829C164.246 256.236 164.709 256.756 164.992 257.389V255.354H166.179V264.613H164.992V262.561C164.698 263.194 164.229 263.72 163.584 264.138C162.951 264.545 162.194 264.749 161.312 264.749C160.475 264.749 159.718 264.551 159.039 264.155C158.372 263.76 157.846 263.2 157.462 262.476C157.089 261.753 156.902 260.916 156.902 259.967ZM164.992 259.984C164.992 259.237 164.839 258.582 164.534 258.016C164.229 257.451 163.81 257.016 163.279 256.71C162.759 256.405 162.182 256.253 161.549 256.253C160.893 256.253 160.306 256.4 159.785 256.694C159.265 256.987 158.853 257.417 158.547 257.982C158.254 258.536 158.107 259.198 158.107 259.967C158.107 260.724 158.254 261.391 158.547 261.968C158.853 262.533 159.265 262.968 159.785 263.274C160.306 263.567 160.893 263.714 161.549 263.714C162.182 263.714 162.759 263.562 163.279 263.257C163.81 262.951 164.229 262.516 164.534 261.951C164.839 261.385 164.992 260.73 164.992 259.984ZM172.077 264.749C171.014 264.749 170.144 264.506 169.466 264.02C168.799 263.522 168.425 262.85 168.346 262.002H169.567C169.624 262.522 169.867 262.946 170.297 263.274C170.737 263.59 171.325 263.748 172.06 263.748C172.705 263.748 173.208 263.596 173.57 263.29C173.943 262.985 174.129 262.606 174.129 262.154C174.129 261.838 174.027 261.578 173.824 261.374C173.62 261.171 173.36 261.012 173.044 260.899C172.739 260.775 172.32 260.645 171.789 260.509C171.099 260.328 170.54 260.147 170.11 259.967C169.68 259.786 169.313 259.52 169.008 259.17C168.714 258.808 168.567 258.327 168.567 257.728C168.567 257.276 168.702 256.857 168.974 256.473C169.245 256.089 169.63 255.783 170.127 255.557C170.624 255.331 171.19 255.218 171.823 255.218C172.818 255.218 173.62 255.473 174.231 255.981C174.842 256.479 175.169 257.168 175.215 258.05H174.027C173.994 257.508 173.779 257.072 173.383 256.744C172.999 256.405 172.467 256.236 171.789 256.236C171.19 256.236 170.704 256.377 170.33 256.66C169.957 256.942 169.771 257.293 169.771 257.711C169.771 258.073 169.878 258.372 170.093 258.61C170.319 258.836 170.596 259.017 170.924 259.153C171.252 259.277 171.693 259.418 172.247 259.577C172.914 259.757 173.445 259.933 173.841 260.102C174.237 260.272 174.576 260.521 174.858 260.848C175.141 261.176 175.288 261.612 175.299 262.154C175.299 262.652 175.164 263.098 174.892 263.494C174.621 263.878 174.242 264.184 173.756 264.41C173.27 264.636 172.71 264.749 172.077 264.749ZM178.128 253.607C177.89 253.607 177.687 253.522 177.517 253.353C177.347 253.183 177.263 252.974 177.263 252.725C177.263 252.476 177.347 252.273 177.517 252.115C177.687 251.945 177.89 251.86 178.128 251.86C178.365 251.86 178.568 251.945 178.738 252.115C178.908 252.273 178.992 252.476 178.992 252.725C178.992 252.974 178.908 253.183 178.738 253.353C178.568 253.522 178.365 253.607 178.128 253.607ZM178.721 255.354V264.613H177.534V255.354H178.721ZM184.598 264.749C183.535 264.749 182.664 264.506 181.986 264.02C181.319 263.522 180.946 262.85 180.867 262.002H182.088C182.144 262.522 182.387 262.946 182.817 263.274C183.258 263.59 183.846 263.748 184.581 263.748C185.225 263.748 185.728 263.596 186.09 263.29C186.463 262.985 186.65 262.606 186.65 262.154C186.65 261.838 186.548 261.578 186.344 261.374C186.141 261.171 185.881 261.012 185.564 260.899C185.259 260.775 184.841 260.645 184.309 260.509C183.62 260.328 183.06 260.147 182.63 259.967C182.201 259.786 181.833 259.52 181.528 259.17C181.234 258.808 181.087 258.327 181.087 257.728C181.087 257.276 181.223 256.857 181.494 256.473C181.765 256.089 182.15 255.783 182.647 255.557C183.145 255.331 183.71 255.218 184.343 255.218C185.338 255.218 186.141 255.473 186.751 255.981C187.362 256.479 187.69 257.168 187.735 258.05H186.548C186.514 257.508 186.299 257.072 185.903 256.744C185.519 256.405 184.988 256.236 184.309 256.236C183.71 256.236 183.224 256.377 182.851 256.66C182.478 256.942 182.291 257.293 182.291 257.711C182.291 258.073 182.399 258.372 182.613 258.61C182.84 258.836 183.117 259.017 183.444 259.153C183.772 259.277 184.213 259.418 184.767 259.577C185.434 259.757 185.966 259.933 186.361 260.102C186.757 260.272 187.096 260.521 187.379 260.848C187.661 261.176 187.808 261.612 187.82 262.154C187.82 262.652 187.684 263.098 187.413 263.494C187.141 263.878 186.763 264.184 186.276 264.41C185.79 264.636 185.231 264.749 184.598 264.749ZM202.265 255.354L199.365 264.613H198.178L195.617 256.846L193.056 264.613H191.852L188.952 255.354H190.156L192.462 263.409L195.057 255.354H196.244L198.805 263.426L201.094 255.354H202.265ZM203.34 259.967C203.34 259.017 203.527 258.186 203.9 257.474C204.284 256.75 204.81 256.196 205.477 255.812C206.155 255.416 206.919 255.218 207.767 255.218C208.648 255.218 209.406 255.422 210.039 255.829C210.683 256.236 211.147 256.756 211.43 257.389V255.354H212.617V264.613H211.43V262.561C211.136 263.194 210.667 263.72 210.022 264.138C209.389 264.545 208.631 264.749 207.75 264.749C206.913 264.749 206.155 264.551 205.477 264.155C204.81 263.76 204.284 263.2 203.9 262.476C203.527 261.753 203.34 260.916 203.34 259.967ZM211.43 259.984C211.43 259.237 211.277 258.582 210.972 258.016C210.667 257.451 210.248 257.016 209.717 256.71C209.197 256.405 208.62 256.253 207.987 256.253C207.331 256.253 206.743 256.4 206.223 256.694C205.703 256.987 205.291 257.417 204.985 257.982C204.691 258.536 204.544 259.198 204.544 259.967C204.544 260.724 204.691 261.391 204.985 261.968C205.291 262.533 205.703 262.968 206.223 263.274C206.743 263.567 207.331 263.714 207.987 263.714C208.62 263.714 209.197 263.562 209.717 263.257C210.248 262.951 210.667 262.516 210.972 261.951C211.277 261.385 211.43 260.73 211.43 259.984ZM226.849 261.798H221.456L220.421 264.613H219.167L223.491 252.912H224.831L229.138 264.613H227.883L226.849 261.798ZM226.493 260.815L224.152 254.404L221.812 260.815H226.493ZM235.385 255.184C236.493 255.184 237.397 255.529 238.098 256.219C238.799 256.897 239.15 257.886 239.15 259.186V264.613H237.98V259.322C237.98 258.316 237.725 257.547 237.217 257.016C236.719 256.484 236.035 256.219 235.165 256.219C234.271 256.219 233.559 256.501 233.028 257.067C232.496 257.632 232.231 258.463 232.231 259.56V264.613H231.044V255.354H232.231V256.931C232.525 256.366 232.949 255.936 233.503 255.642C234.057 255.337 234.684 255.184 235.385 255.184ZM241.233 259.967C241.233 259.017 241.425 258.186 241.809 257.474C242.194 256.75 242.719 256.196 243.386 255.812C244.065 255.416 244.828 255.218 245.676 255.218C246.49 255.218 247.225 255.416 247.88 255.812C248.536 256.207 249.017 256.722 249.322 257.355V252.064H250.509V264.613H249.322V262.544C249.039 263.189 248.576 263.72 247.931 264.138C247.287 264.545 246.529 264.749 245.659 264.749C244.811 264.749 244.048 264.551 243.369 264.155C242.702 263.76 242.177 263.2 241.792 262.476C241.419 261.753 241.233 260.916 241.233 259.967ZM249.322 259.984C249.322 259.237 249.169 258.582 248.864 258.016C248.559 257.451 248.14 257.016 247.609 256.71C247.089 256.405 246.512 256.253 245.879 256.253C245.224 256.253 244.636 256.4 244.116 256.694C243.595 256.987 243.183 257.417 242.878 257.982C242.584 258.536 242.437 259.198 242.437 259.967C242.437 260.724 242.584 261.391 242.878 261.968C243.183 262.533 243.595 262.968 244.116 263.274C244.636 263.567 245.224 263.714 245.879 263.714C246.512 263.714 247.089 263.562 247.609 263.257C248.14 262.951 248.559 262.516 248.864 261.951C249.169 261.385 249.322 260.73 249.322 259.984ZM252.676 259.967C252.676 259.017 252.863 258.186 253.236 257.474C253.62 256.75 254.146 256.196 254.813 255.812C255.492 255.416 256.255 255.218 257.103 255.218C257.985 255.218 258.742 255.422 259.375 255.829C260.02 256.236 260.483 256.756 260.766 257.389V255.354H261.953V264.613H260.766V262.561C260.472 263.194 260.003 263.72 259.358 264.138C258.725 264.545 257.968 264.749 257.086 264.749C256.249 264.749 255.492 264.551 254.813 264.155C254.146 263.76 253.62 263.2 253.236 262.476C252.863 261.753 252.676 260.916 252.676 259.967ZM260.766 259.984C260.766 259.237 260.613 258.582 260.308 258.016C260.003 257.451 259.584 257.016 259.053 256.71C258.533 256.405 257.956 256.253 257.323 256.253C256.667 256.253 256.079 256.4 255.559 256.694C255.039 256.987 254.627 257.417 254.321 257.982C254.027 258.536 253.88 259.198 253.88 259.967C253.88 260.724 254.027 261.391 254.321 261.968C254.627 262.533 255.039 262.968 255.559 263.274C256.079 263.567 256.667 263.714 257.323 263.714C257.956 263.714 258.533 263.562 259.053 263.257C259.584 262.951 260.003 262.516 260.308 261.951C260.613 261.385 260.766 260.73 260.766 259.984ZM276.948 255.354L271.453 268.972H270.215L272.013 264.562L268.214 255.354H269.52L272.674 263.257L275.727 255.354H276.948ZM278.015 259.967C278.015 259.017 278.202 258.186 278.575 257.474C278.959 256.75 279.485 256.196 280.152 255.812C280.83 255.416 281.593 255.218 282.441 255.218C283.323 255.218 284.081 255.422 284.714 255.829C285.358 256.236 285.822 256.756 286.105 257.389V255.354H287.292V264.613H286.105V262.561C285.811 263.194 285.341 263.72 284.697 264.138C284.064 264.545 283.306 264.749 282.424 264.749C281.588 264.749 280.83 264.551 280.152 264.155C279.485 263.76 278.959 263.2 278.575 262.476C278.202 261.753 278.015 260.916 278.015 259.967ZM286.105 259.984C286.105 259.237 285.952 258.582 285.647 258.016C285.341 257.451 284.923 257.016 284.392 256.71C283.872 256.405 283.295 256.253 282.662 256.253C282.006 256.253 281.418 256.4 280.898 256.694C280.378 256.987 279.965 257.417 279.66 257.982C279.366 258.536 279.219 259.198 279.219 259.967C279.219 260.724 279.366 261.391 279.66 261.968C279.965 262.533 280.378 262.968 280.898 263.274C281.418 263.567 282.006 263.714 282.662 263.714C283.295 263.714 283.872 263.562 284.392 263.257C284.923 262.951 285.341 262.516 285.647 261.951C285.952 261.385 286.105 260.73 286.105 259.984ZM294.343 255.184C295.451 255.184 296.356 255.529 297.057 256.219C297.758 256.897 298.108 257.886 298.108 259.186V264.613H296.938V259.322C296.938 258.316 296.683 257.547 296.175 257.016C295.677 256.484 294.993 256.219 294.123 256.219C293.23 256.219 292.517 256.501 291.986 257.067C291.455 257.632 291.189 258.463 291.189 259.56V264.613H290.002V255.354H291.189V256.931C291.483 256.366 291.907 255.936 292.461 255.642C293.015 255.337 293.642 255.184 294.343 255.184ZM304.617 255.218C305.488 255.218 306.245 255.422 306.889 255.829C307.534 256.236 307.997 256.75 308.28 257.372V255.354H309.467V264.851C309.467 265.699 309.281 266.45 308.908 267.106C308.546 267.762 308.037 268.265 307.381 268.616C306.726 268.977 305.979 269.158 305.143 269.158C303.956 269.158 302.966 268.876 302.175 268.31C301.395 267.745 300.909 266.976 300.716 266.004H301.887C302.09 266.648 302.475 267.163 303.04 267.547C303.616 267.932 304.317 268.124 305.143 268.124C305.742 268.124 306.279 267.994 306.754 267.734C307.229 267.485 307.602 267.112 307.873 266.614C308.144 266.117 308.28 265.529 308.28 264.851V262.561C307.986 263.194 307.517 263.72 306.873 264.138C306.239 264.545 305.488 264.749 304.617 264.749C303.769 264.749 303.006 264.551 302.328 264.155C301.661 263.76 301.135 263.2 300.75 262.476C300.377 261.753 300.191 260.916 300.191 259.967C300.191 259.017 300.377 258.186 300.75 257.474C301.135 256.75 301.661 256.196 302.328 255.812C303.006 255.416 303.769 255.218 304.617 255.218ZM308.28 259.984C308.28 259.237 308.127 258.582 307.822 258.016C307.517 257.451 307.099 257.016 306.567 256.71C306.047 256.405 305.471 256.253 304.837 256.253C304.182 256.253 303.594 256.4 303.074 256.694C302.554 256.987 302.141 257.417 301.836 257.982C301.542 258.536 301.395 259.198 301.395 259.967C301.395 260.724 301.542 261.391 301.836 261.968C302.141 262.533 302.554 262.968 303.074 263.274C303.594 263.567 304.182 263.714 304.837 263.714C305.471 263.714 306.047 263.562 306.567 263.257C307.099 262.951 307.517 262.516 307.822 261.951C308.127 261.385 308.28 260.73 308.28 259.984ZM316.288 259.967C316.288 259.017 316.481 258.186 316.865 257.474C317.249 256.75 317.775 256.196 318.442 255.812C319.12 255.416 319.884 255.218 320.732 255.218C321.546 255.218 322.28 255.416 322.936 255.812C323.592 256.207 324.072 256.722 324.378 257.355V252.064H325.565V264.613H324.378V262.544C324.095 263.189 323.631 263.72 322.987 264.138C322.343 264.545 321.585 264.749 320.715 264.749C319.867 264.749 319.103 264.551 318.425 264.155C317.758 263.76 317.232 263.2 316.848 262.476C316.475 261.753 316.288 260.916 316.288 259.967ZM324.378 259.984C324.378 259.237 324.225 258.582 323.92 258.016C323.615 257.451 323.196 257.016 322.665 256.71C322.145 256.405 321.568 256.253 320.935 256.253C320.279 256.253 319.691 256.4 319.171 256.694C318.651 256.987 318.239 257.417 317.933 257.982C317.639 258.536 317.492 259.198 317.492 259.967C317.492 260.724 317.639 261.391 317.933 261.968C318.239 262.533 318.651 262.968 319.171 263.274C319.691 263.567 320.279 263.714 320.935 263.714C321.568 263.714 322.145 263.562 322.665 263.257C323.196 262.951 323.615 262.516 323.92 261.951C324.225 261.385 324.378 260.73 324.378 259.984ZM328.868 253.607C328.631 253.607 328.427 253.522 328.258 253.353C328.088 253.183 328.004 252.974 328.004 252.725C328.004 252.476 328.088 252.273 328.258 252.115C328.427 251.945 328.631 251.86 328.868 251.86C329.106 251.86 329.309 251.945 329.479 252.115C329.649 252.273 329.733 252.476 329.733 252.725C329.733 252.974 329.649 253.183 329.479 253.353C329.309 253.522 329.106 253.607 328.868 253.607ZM329.462 255.354V264.613H328.275V255.354H329.462ZM335.338 264.749C334.276 264.749 333.405 264.506 332.727 264.02C332.06 263.522 331.687 262.85 331.608 262.002H332.829C332.885 262.522 333.128 262.946 333.558 263.274C333.999 263.59 334.587 263.748 335.321 263.748C335.966 263.748 336.469 263.596 336.831 263.29C337.204 262.985 337.39 262.606 337.39 262.154C337.39 261.838 337.289 261.578 337.085 261.374C336.882 261.171 336.622 261.012 336.305 260.899C336 260.775 335.582 260.645 335.05 260.509C334.36 260.328 333.801 260.147 333.371 259.967C332.942 259.786 332.574 259.52 332.269 259.17C331.975 258.808 331.828 258.327 331.828 257.728C331.828 257.276 331.964 256.857 332.235 256.473C332.506 256.089 332.891 255.783 333.388 255.557C333.886 255.331 334.451 255.218 335.084 255.218C336.079 255.218 336.882 255.473 337.492 255.981C338.103 256.479 338.431 257.168 338.476 258.05H337.289C337.255 257.508 337.04 257.072 336.644 256.744C336.26 256.405 335.729 256.236 335.05 256.236C334.451 256.236 333.965 256.377 333.592 256.66C333.219 256.942 333.032 257.293 333.032 257.711C333.032 258.073 333.139 258.372 333.354 258.61C333.58 258.836 333.857 259.017 334.185 259.153C334.513 259.277 334.954 259.418 335.508 259.577C336.175 259.757 336.706 259.933 337.102 260.102C337.498 260.272 337.837 260.521 338.12 260.848C338.402 261.176 338.549 261.612 338.561 262.154C338.561 262.652 338.425 263.098 338.154 263.494C337.882 263.878 337.504 264.184 337.017 264.41C336.531 264.636 335.972 264.749 335.338 264.749ZM349.173 259.509C349.173 259.916 349.162 260.227 349.139 260.441H341.457C341.491 261.142 341.66 261.742 341.965 262.239C342.271 262.737 342.672 263.115 343.169 263.375C343.667 263.624 344.21 263.748 344.797 263.748C345.566 263.748 346.211 263.562 346.731 263.189C347.262 262.816 347.613 262.313 347.782 261.679H349.037C348.811 262.584 348.325 263.324 347.579 263.901C346.844 264.466 345.917 264.749 344.797 264.749C343.927 264.749 343.147 264.557 342.457 264.172C341.768 263.777 341.225 263.223 340.829 262.51C340.445 261.787 340.253 260.945 340.253 259.984C340.253 259.023 340.445 258.18 340.829 257.457C341.214 256.733 341.751 256.179 342.44 255.795C343.13 255.41 343.916 255.218 344.797 255.218C345.679 255.218 346.448 255.41 347.104 255.795C347.771 256.179 348.28 256.699 348.63 257.355C348.992 257.999 349.173 258.717 349.173 259.509ZM347.969 259.475C347.98 258.785 347.839 258.197 347.545 257.711C347.262 257.225 346.872 256.857 346.375 256.609C345.877 256.36 345.335 256.236 344.747 256.236C343.865 256.236 343.113 256.518 342.491 257.084C341.869 257.649 341.524 258.446 341.457 259.475H347.969ZM352.888 256.354V262.103C352.888 262.669 352.995 263.059 353.21 263.274C353.425 263.488 353.804 263.596 354.346 263.596H355.432V264.613H354.16C353.323 264.613 352.701 264.421 352.294 264.037C351.887 263.641 351.684 262.997 351.684 262.103V256.354H350.395V255.354H351.684V253.03H352.888V255.354H355.432V256.354H352.888ZM365.411 255.354V264.613H364.224V262.985C363.953 263.562 363.534 264.003 362.969 264.308C362.404 264.613 361.771 264.766 361.07 264.766C359.962 264.766 359.057 264.427 358.356 263.748C357.655 263.059 357.305 262.064 357.305 260.764V255.354H358.475V260.628C358.475 261.634 358.724 262.403 359.221 262.934C359.73 263.466 360.42 263.731 361.29 263.731C362.183 263.731 362.896 263.449 363.427 262.883C363.958 262.318 364.224 261.487 364.224 260.391V255.354H365.411ZM368.8 253.607C368.562 253.607 368.359 253.522 368.189 253.353C368.02 253.183 367.935 252.974 367.935 252.725C367.935 252.476 368.02 252.273 368.189 252.115C368.359 251.945 368.562 251.86 368.8 251.86C369.037 251.86 369.235 251.945 369.393 252.115C369.563 252.273 369.648 252.476 369.648 252.725C369.648 252.974 369.563 253.183 369.393 253.353C369.235 253.522 369.037 253.607 368.8 253.607ZM369.376 266.801C369.376 267.547 369.19 268.095 368.817 268.446C368.444 268.808 367.884 268.989 367.138 268.989H366.307V267.971H366.951C367.392 267.971 367.709 267.875 367.901 267.683C368.093 267.502 368.189 267.191 368.189 266.75V255.354H369.376V266.801ZM380.118 255.354V264.613H378.93V262.985C378.659 263.562 378.241 264.003 377.675 264.308C377.11 264.613 376.477 264.766 375.776 264.766C374.668 264.766 373.764 264.427 373.063 263.748C372.362 263.059 372.011 262.064 372.011 260.764V255.354H373.181V260.628C373.181 261.634 373.43 262.403 373.928 262.934C374.436 263.466 375.126 263.731 375.997 263.731C376.89 263.731 377.602 263.449 378.133 262.883C378.665 262.318 378.93 261.487 378.93 260.391V255.354H380.118ZM383.421 253.607C383.184 253.607 382.98 253.522 382.811 253.353C382.641 253.183 382.556 252.974 382.556 252.725C382.556 252.476 382.641 252.273 382.811 252.115C382.98 251.945 383.184 251.86 383.421 251.86C383.659 251.86 383.862 251.945 384.032 252.115C384.201 252.273 384.286 252.476 384.286 252.725C384.286 252.974 384.201 253.183 384.032 253.353C383.862 253.522 383.659 253.607 383.421 253.607ZM384.015 255.354V264.613H382.828V255.354H384.015ZM386.907 264.698C386.658 264.698 386.449 264.613 386.279 264.444C386.121 264.274 386.042 264.065 386.042 263.816C386.042 263.567 386.121 263.364 386.279 263.206C386.449 263.036 386.658 262.951 386.907 262.951C387.144 262.951 387.342 263.036 387.5 263.206C387.67 263.364 387.755 263.567 387.755 263.816C387.755 264.065 387.67 264.274 387.5 264.444C387.342 264.613 387.144 264.698 386.907 264.698Z" fill="black" fill-opacity="0.6"/>
<path d="M223.03 209L217.861 202.671V209H215.012V194.795H217.861V201.165L223.03 194.795H226.47L220.609 201.837L226.632 209H223.03ZM233.513 209.183C232.427 209.183 231.451 208.946 230.582 208.471C229.714 207.982 229.029 207.297 228.527 206.415C228.038 205.534 227.794 204.516 227.794 203.363C227.794 202.21 228.045 201.192 228.547 200.31C229.063 199.428 229.761 198.75 230.643 198.275C231.525 197.787 232.509 197.543 233.594 197.543C234.679 197.543 235.663 197.787 236.545 198.275C237.427 198.75 238.119 199.428 238.621 200.31C239.136 201.192 239.394 202.21 239.394 203.363C239.394 204.516 239.129 205.534 238.6 206.415C238.085 207.297 237.379 207.982 236.484 208.471C235.602 208.946 234.612 209.183 233.513 209.183ZM233.513 206.7C234.028 206.7 234.51 206.578 234.958 206.334C235.419 206.076 235.785 205.696 236.057 205.194C236.328 204.692 236.464 204.082 236.464 203.363C236.464 202.291 236.179 201.47 235.609 200.9C235.053 200.317 234.367 200.025 233.553 200.025C232.739 200.025 232.054 200.317 231.498 200.9C230.955 201.47 230.684 202.291 230.684 203.363C230.684 204.435 230.949 205.262 231.478 205.846C232.02 206.415 232.699 206.7 233.513 206.7ZM245.798 209.183C244.876 209.183 244.048 209.02 243.315 208.695C242.583 208.356 241.999 207.901 241.565 207.331C241.145 206.761 240.914 206.131 240.873 205.439H243.743C243.797 205.873 244.007 206.232 244.374 206.517C244.754 206.802 245.222 206.945 245.778 206.945C246.321 206.945 246.741 206.836 247.04 206.619C247.352 206.402 247.508 206.124 247.508 205.785C247.508 205.418 247.318 205.147 246.938 204.971C246.572 204.781 245.981 204.577 245.167 204.36C244.326 204.157 243.634 203.946 243.092 203.729C242.562 203.512 242.101 203.18 241.708 202.732C241.328 202.284 241.138 201.681 241.138 200.921C241.138 200.297 241.314 199.727 241.667 199.211C242.033 198.696 242.549 198.289 243.214 197.99C243.892 197.692 244.686 197.543 245.595 197.543C246.938 197.543 248.01 197.882 248.81 198.56C249.611 199.225 250.051 200.127 250.133 201.267H247.406C247.365 200.819 247.175 200.466 246.836 200.209C246.51 199.937 246.07 199.802 245.513 199.802C244.998 199.802 244.598 199.897 244.313 200.086C244.041 200.276 243.906 200.541 243.906 200.88C243.906 201.26 244.096 201.552 244.475 201.755C244.855 201.945 245.445 202.142 246.246 202.345C247.06 202.549 247.732 202.759 248.261 202.976C248.79 203.193 249.244 203.532 249.624 203.994C250.018 204.441 250.221 205.038 250.235 205.785C250.235 206.436 250.051 207.019 249.685 207.535C249.332 208.05 248.817 208.457 248.139 208.756C247.474 209.041 246.694 209.183 245.798 209.183ZM257.58 209.183C256.494 209.183 255.517 208.946 254.649 208.471C253.781 207.982 253.096 207.297 252.594 206.415C252.105 205.534 251.861 204.516 251.861 203.363C251.861 202.21 252.112 201.192 252.614 200.31C253.13 199.428 253.828 198.75 254.71 198.275C255.592 197.787 256.576 197.543 257.661 197.543C258.746 197.543 259.73 197.787 260.612 198.275C261.494 198.75 262.186 199.428 262.688 200.31C263.203 201.192 263.461 202.21 263.461 203.363C263.461 204.516 263.196 205.534 262.667 206.415C262.152 207.297 261.446 207.982 260.551 208.471C259.669 208.946 258.679 209.183 257.58 209.183ZM257.58 206.7C258.095 206.7 258.577 206.578 259.024 206.334C259.486 206.076 259.852 205.696 260.123 205.194C260.395 204.692 260.53 204.082 260.53 203.363C260.53 202.291 260.246 201.47 259.676 200.9C259.119 200.317 258.434 200.025 257.62 200.025C256.806 200.025 256.121 200.317 255.565 200.9C255.022 201.47 254.751 202.291 254.751 203.363C254.751 204.435 255.015 205.262 255.545 205.846C256.087 206.415 256.766 206.7 257.58 206.7ZM271.798 197.563C273.142 197.563 274.227 197.99 275.054 198.845C275.882 199.686 276.296 200.867 276.296 202.386V209H273.447V202.773C273.447 201.877 273.223 201.192 272.775 200.717C272.328 200.229 271.717 199.985 270.944 199.985C270.157 199.985 269.533 200.229 269.071 200.717C268.624 201.192 268.4 201.877 268.4 202.773V209H265.551V197.726H268.4V199.13C268.78 198.642 269.261 198.262 269.845 197.99C270.442 197.705 271.093 197.563 271.798 197.563ZM283.421 197.543C284.262 197.543 285.002 197.712 285.639 198.051C286.277 198.377 286.779 198.804 287.145 199.334V197.726H290.015V209.081C290.015 210.126 289.805 211.055 289.384 211.869C288.963 212.697 288.333 213.348 287.491 213.823C286.65 214.311 285.633 214.556 284.439 214.556C282.838 214.556 281.522 214.183 280.491 213.436C279.473 212.69 278.897 211.673 278.761 210.384H281.59C281.739 210.899 282.058 211.306 282.546 211.605C283.048 211.917 283.652 212.073 284.357 212.073C285.185 212.073 285.857 211.822 286.372 211.32C286.888 210.832 287.145 210.085 287.145 209.081V207.331C286.779 207.86 286.27 208.301 285.619 208.654C284.981 209.007 284.249 209.183 283.421 209.183C282.472 209.183 281.603 208.939 280.816 208.451C280.029 207.962 279.405 207.277 278.944 206.395C278.496 205.5 278.273 204.475 278.273 203.322C278.273 202.183 278.496 201.172 278.944 200.29C279.405 199.408 280.023 198.73 280.796 198.255C281.583 197.78 282.458 197.543 283.421 197.543ZM287.145 203.363C287.145 202.671 287.01 202.081 286.738 201.592C286.467 201.09 286.101 200.711 285.639 200.453C285.178 200.181 284.683 200.046 284.154 200.046C283.625 200.046 283.136 200.175 282.689 200.432C282.241 200.69 281.875 201.07 281.59 201.572C281.318 202.06 281.183 202.644 281.183 203.322C281.183 204.001 281.318 204.598 281.59 205.113C281.875 205.615 282.241 206.002 282.689 206.273C283.15 206.544 283.638 206.68 284.154 206.68C284.683 206.68 285.178 206.551 285.639 206.293C286.101 206.022 286.467 205.642 286.738 205.154C287.01 204.652 287.145 204.055 287.145 203.363Z" fill="black" fill-opacity="0.6"/>
<g clip-path="url(#clip0_2356_9402)">
<path d="M232.634 172.184C227.078 172.184 221.531 172.098 215.992 171.926C208.077 171.68 199.893 171.426 192.286 167.776C186.965 165.222 182.252 161.126 178.657 155.929C176.286 152.474 174.52 148.643 173.434 144.6C172.903 142.654 172.518 140.673 172.281 138.67C171.633 133.262 172.092 127.778 173.63 122.551C174.377 120.05 175.395 117.637 176.665 115.355C182.213 105.416 192.331 98.7449 204.425 97.0513C204.525 97.0401 204.626 97.0382 204.726 97.0457C204.781 97.0482 204.835 97.0509 204.89 97.0489L204.961 97.0294C205.145 96.9743 205.332 96.9327 205.522 96.905C224.174 94.5026 243.893 99.3635 262.544 110.962C276.965 119.931 296.077 124.76 320.972 125.727L321.326 125.743C328.256 126.087 334.96 128.559 340.713 132.891C346.334 137.091 350.616 142.821 353.042 149.39C353.336 150.185 353.605 151.012 353.842 151.849C354.291 153.431 353.771 155.03 352.413 156.247V156.248L352.351 156.303C352.202 156.432 352.045 156.555 351.884 156.67L351.695 156.804C350.104 157.938 348.848 158.834 347.344 159.529C346.329 159.994 345.264 160.342 344.169 160.566C338.103 161.846 331.942 163.032 325.858 164.093C314.043 166.154 301.917 167.854 289.816 169.146C270.823 171.171 251.735 172.185 232.634 172.184ZM204.585 97.3977C204.548 97.3974 204.511 97.3996 204.474 97.4042C192.493 99.082 182.47 105.688 176.978 115.528C175.72 117.787 174.712 120.176 173.973 122.653C172.449 127.834 171.994 133.268 172.636 138.629C172.871 140.613 173.253 142.578 173.779 144.506C174.854 148.511 176.603 152.305 178.952 155.727C182.511 160.873 187.176 164.928 192.442 167.454C199.98 171.072 208.126 171.325 216.003 171.569C240.629 172.331 265.279 171.403 289.778 168.792C301.871 167.5 313.989 165.801 325.796 163.742C331.876 162.682 338.033 161.497 344.095 160.218C345.163 159.999 346.203 159.66 347.193 159.206C348.667 158.525 349.912 157.637 351.487 156.514L351.676 156.38C351.814 156.281 351.95 156.176 352.079 156.066L352.116 156.032C353.411 154.903 353.915 153.414 353.498 151.945C353.263 151.118 352.997 150.299 352.707 149.513C347.829 136.199 335.211 126.789 321.309 126.098L320.957 126.082C309.585 125.641 299.634 124.418 290.536 122.344C279.675 119.867 270.194 116.139 262.355 111.264C243.774 99.7101 224.138 94.8673 205.567 97.2583C205.394 97.284 205.224 97.3223 205.057 97.3728L204.928 97.4038C204.855 97.4077 204.782 97.4048 204.71 97.4015C204.667 97.3996 204.625 97.3977 204.585 97.3977Z" fill="#F0F0F0"/>
<path d="M352.234 156.167V156.169C352.09 156.294 351.938 156.413 351.78 156.525C349.155 158.397 347.362 159.71 344.132 160.392C338.053 161.675 331.951 162.85 325.828 163.917C313.881 166.002 301.871 167.685 289.797 168.969C265.291 171.587 240.632 172.515 215.998 171.748C207.794 171.493 199.882 171.222 192.364 167.615C186.869 164.979 182.252 160.813 178.805 155.829C175.309 150.775 173.183 144.795 172.459 138.65C174.161 137.91 175.97 137.441 177.818 137.261C184.234 136.651 190.548 138.992 196.382 141.716C202.219 144.437 207.95 147.619 214.269 148.875C223.581 150.725 233.194 148.208 242.122 144.986C251.05 141.764 259.839 137.784 269.255 136.568C281.885 134.934 294.557 138.392 306.82 141.815C319.882 145.462 332.945 149.108 346.008 152.756C347.875 153.276 349.812 153.834 351.267 155.109C351.628 155.425 351.952 155.78 352.234 156.167Z" fill="#ABAEAE"/>
<path d="M352.235 156.167V156.169C352.09 156.293 351.938 156.413 351.781 156.525C350.136 157.697 348.818 158.652 347.27 159.368C341.946 159.89 336.616 160.341 331.278 160.723C317.54 161.705 303.775 162.227 289.984 162.289C262.005 162.432 232.589 163.304 208.092 149.767C199.94 145.262 188.133 154.499 180.057 149.56C177.73 148.131 175.567 146.452 173.608 144.553C173.079 142.616 172.695 140.643 172.46 138.65C171.811 133.265 172.268 127.805 173.803 122.602C174.545 120.113 175.558 117.712 176.823 115.441C180.574 116.783 184.172 118.714 187.596 120.759C193.876 124.505 199.982 128.758 206.976 130.903C217.284 134.065 228.437 132.326 238.897 129.711C249.358 127.096 259.748 123.612 270.529 123.318C284.988 122.925 298.905 128.288 312.364 133.566C325.866 138.862 339.37 144.157 352.875 149.451C353.172 150.255 353.437 151.07 353.671 151.897C354.148 153.579 353.456 155.102 352.235 156.167Z" fill="#F2F2F2"/>
<path d="M220.587 87.7836C218.553 86.418 218.752 83.4299 220.903 82.2555C220.946 82.2316 220.989 82.2069 221.031 82.1814C221.139 81.6672 221.247 81.153 221.355 80.6388C221.989 81.2952 223.237 81.1713 223.728 80.4031C222.014 76.759 219.758 73.3925 217.039 70.4163C216.446 69.7643 216.113 68.9186 216.104 68.039C216.094 67.1594 216.408 66.3067 216.987 65.6421C216.997 65.63 217.008 65.6179 217.018 65.6056C218.554 65.0889 220.008 64.3574 221.337 63.4329C216.779 56.1379 208.088 50.3425 206.022 42C199.807 48.6486 199.109 50.9901 192.894 57.6387C192.894 57.6387 187.01 62.9286 185.739 65.7714C186.051 66.098 188.846 66.8817 188.953 67.5238C191.084 67.694 194.775 65.3673 194.775 65.3673C194.775 65.3673 186.718 73.9247 184.272 79.1957C184.051 79.6704 183.842 80.2124 184.027 80.7019C184.174 81.0928 184.703 81.3181 185.043 81.1628C184.636 81.5535 184.31 82.0193 184.082 82.5342C184.791 82.9858 185.633 83.1857 186.471 83.1016C187.31 83.0175 188.095 82.6544 188.7 82.0708C188.359 82.705 188.018 83.3392 187.678 83.9733L187.678 83.9748C188.139 84.1247 188.552 84.3916 188.877 84.7492C189.202 85.1068 189.428 85.5427 189.532 86.0138C189.636 86.485 189.615 86.975 189.471 87.4356C189.327 87.8962 189.065 88.3114 188.71 88.6401C186.596 90.5991 184.664 92.6583 183.956 94.0144C183.29 95.2901 190.128 96.8279 191.666 96.7649C193.204 96.7018 194.642 96.0285 196.031 95.3678C195.964 95.9988 196.085 96.6357 196.38 97.1983C197.14 97.3822 197.93 97.4128 198.703 97.2883C199.476 97.1639 200.216 96.8868 200.88 96.4735C200.819 97.7354 202.417 98.4323 203.526 98.0749C202.972 106.801 203.377 119.055 203.909 131.776H205.229V98.578C205.58 98.7553 205.956 98.8797 206.344 98.9472C209.044 99.4247 212.303 99.715 214.06 97.6173C216.083 99.6488 219.789 99.6102 221.799 97.5858C221.602 97.9351 221.904 98.5228 222.353 98.6154C222.881 98.7246 223.394 98.412 223.843 98.1135C225.872 96.7619 227.901 95.4103 229.931 94.0586C227.426 92.3768 223.869 89.9877 220.587 87.7836Z" fill="#ABAEAE"/>
<path d="M281.506 83.7223C285.025 83.7223 287.879 80.88 287.879 77.3739C287.879 73.8677 285.025 71.0254 281.506 71.0254C277.986 71.0254 275.133 73.8677 275.133 77.3739C275.133 80.88 277.986 83.7223 281.506 83.7223Z" fill="#F2F2F2"/>
<path d="M295.771 74.3678C295.403 73.1379 294.361 72.335 293.103 72.1588C293.089 72.1569 293.076 72.1594 293.062 72.1586C293.045 72.1531 293.026 72.149 293.008 72.1461C291.226 71.9297 289.422 72.3207 287.891 73.2556C286.416 74.173 284.698 74.5879 282.96 74.6553C282.95 74.6557 282.939 74.6561 282.929 74.6566C282.283 74.6995 281.666 74.9396 281.162 75.3443C280.658 75.7489 280.292 76.2985 280.113 76.9181C280.094 76.9939 280.099 77.0739 280.129 77.1463C280.158 77.2187 280.21 77.2798 280.277 77.3209C280.47 77.4834 280.698 77.5987 280.943 77.6575C281.472 77.7692 282.003 77.8716 282.536 77.9645C283.577 78.1458 284.622 78.2924 285.673 78.4043C287.807 78.6321 289.953 78.7129 292.098 78.6462C292.812 78.624 293.501 78.6004 294.155 78.2864C294.632 78.0521 295.038 77.6985 295.336 77.2603C295.616 76.8391 295.8 76.3619 295.875 75.8622C295.951 75.3625 295.915 74.8524 295.771 74.3678Z" fill="#ABAEAE"/>
<path d="M282.529 82.8327C282.161 81.6027 281.119 80.7998 279.861 80.6237C279.847 80.6217 279.834 80.6243 279.82 80.6234C279.802 80.618 279.784 80.6138 279.766 80.6109C277.983 80.3945 276.18 80.7856 274.649 81.7205C273.174 82.6378 271.455 83.0528 269.718 83.1201C269.707 83.1205 269.697 83.121 269.687 83.1215C269.041 83.1644 268.424 83.4045 267.92 83.8091C267.416 84.2138 267.05 84.7633 266.87 85.3829C266.851 85.4588 266.857 85.5387 266.887 85.6111C266.916 85.6835 266.968 85.7447 267.035 85.7857C267.227 85.9482 267.456 86.0635 267.701 86.1224C268.23 86.2341 268.761 86.3364 269.294 86.4294C270.334 86.6107 271.38 86.7573 272.431 86.8692C274.564 87.0969 276.711 87.1777 278.856 87.1111C279.57 87.0889 280.259 87.0653 280.913 86.7512C281.389 86.517 281.796 86.1634 282.094 85.7252C282.374 85.304 282.558 84.8267 282.633 84.327C282.709 83.8273 282.673 83.3172 282.529 82.8327Z" fill="#ABAEAE"/>
<path d="M336.458 109.336C334.424 107.971 334.623 104.983 336.774 103.808C336.818 103.784 336.86 103.76 336.902 103.734C337.01 103.22 337.118 102.706 337.226 102.192C337.86 102.848 339.108 102.724 339.6 101.956C337.885 98.3117 335.63 94.9452 332.91 91.969C332.317 91.317 331.984 90.4714 331.975 89.5917C331.965 88.7121 332.279 87.8594 332.858 87.1948C332.868 87.1828 332.879 87.1706 332.889 87.1583C334.425 86.6416 335.879 85.9101 337.208 84.9857C332.65 77.6907 323.959 71.8953 321.893 63.5527C315.678 70.2013 314.98 72.5429 308.765 79.1914C308.765 79.1914 302.881 84.4813 301.61 87.3242C301.923 87.6508 304.717 88.4345 304.824 89.0766C306.955 89.2467 310.647 86.9201 310.647 86.9201C310.647 86.9201 302.589 95.4775 300.143 100.748C299.922 101.223 299.713 101.765 299.898 102.255C300.045 102.645 300.574 102.871 300.914 102.716C300.507 103.106 300.181 103.572 299.953 104.087C300.663 104.539 301.505 104.738 302.343 104.654C303.181 104.57 303.966 104.207 304.571 103.624C304.23 104.258 303.889 104.892 303.549 105.526L303.549 105.528C304.01 105.677 304.423 105.944 304.748 106.302C305.073 106.66 305.299 107.095 305.403 107.567C305.507 108.038 305.486 108.528 305.342 108.988C305.198 109.449 304.936 109.864 304.581 110.193C302.467 112.152 300.535 114.211 299.827 115.567C299.161 116.843 305.999 118.381 307.537 118.318C309.075 118.255 310.513 117.581 311.902 116.921C311.835 117.552 311.956 118.188 312.251 118.751C313.011 118.935 313.801 118.966 314.574 118.841C315.347 118.717 316.087 118.44 316.751 118.026C316.69 119.288 318.288 119.985 319.397 119.628C318.843 128.354 319.248 140.608 319.78 153.329H321.1V120.131C321.451 120.308 321.827 120.432 322.215 120.5C324.915 120.977 328.174 121.268 329.931 119.17C331.954 121.202 335.66 121.163 337.671 119.139C337.473 119.488 337.776 120.076 338.224 120.168C338.752 120.277 339.265 119.965 339.714 119.666C341.743 118.315 343.772 116.963 345.802 115.611C343.298 113.93 339.74 111.54 336.458 109.336Z" fill="#ABAEAE"/>
<path d="M183.26 143.18C183.392 143.186 183.523 143.151 183.635 143.081C183.747 143.01 183.834 142.907 183.885 142.785C183.936 142.663 183.949 142.529 183.921 142.4C183.892 142.271 183.825 142.154 183.728 142.064C183.712 142 183.7 141.953 183.684 141.889C183.689 141.875 183.695 141.861 183.701 141.847C183.834 141.533 184.058 141.266 184.343 141.078C184.629 140.89 184.963 140.791 185.305 140.792C185.647 140.793 185.981 140.895 186.265 141.085C186.549 141.275 186.771 141.544 186.902 141.859C187.425 143.114 188.092 144.372 188.256 145.7C188.328 146.287 188.297 146.882 188.166 147.459C189.395 144.787 190.033 141.884 190.037 138.945C190.038 138.207 189.997 137.47 189.914 136.737C189.846 136.136 189.752 135.54 189.631 134.948C188.972 131.734 187.557 128.722 185.503 126.158C184.509 125.618 183.704 124.787 183.199 123.777C183.016 123.414 182.886 123.027 182.814 122.627C182.927 122.641 183.041 122.65 183.153 122.658C183.188 122.66 183.225 122.661 183.259 122.663L183.273 122.664C183.396 122.669 183.518 122.639 183.625 122.577C183.731 122.515 183.817 122.424 183.873 122.314C183.928 122.204 183.951 122.081 183.938 121.958C183.925 121.836 183.876 121.72 183.798 121.625C183.75 121.566 183.701 121.506 183.653 121.447C183.579 121.355 183.504 121.266 183.43 121.174C183.422 121.165 183.414 121.156 183.407 121.147C183.322 121.042 183.237 120.94 183.153 120.835C183.307 120.596 183.515 120.396 183.76 120.251C184.607 119.756 185.777 120.099 186.389 120.863C187.003 121.626 187.119 122.698 186.906 123.653C186.696 124.465 186.349 125.235 185.88 125.931C185.926 125.99 185.974 126.047 186.02 126.105C186.86 127.182 187.592 128.338 188.206 129.557C188.057 128.191 188.235 126.81 188.726 125.526C189.224 124.33 190.157 123.323 190.979 122.289C191.965 121.047 193.989 121.589 194.163 123.163C194.164 123.179 194.166 123.194 194.168 123.209C194.046 123.278 193.926 123.351 193.809 123.428C193.662 123.525 193.549 123.665 193.483 123.828C193.417 123.991 193.402 124.171 193.44 124.342C193.479 124.514 193.568 124.67 193.697 124.791C193.826 124.911 193.988 124.989 194.163 125.016L194.18 125.019C194.137 125.457 194.06 125.891 193.951 126.318C193.633 127.508 193.072 128.621 192.303 129.586C191.534 130.55 190.573 131.346 189.48 131.923C189.409 131.96 189.339 131.996 189.267 132.031C189.596 132.955 189.859 133.901 190.054 134.861C190.228 135.709 190.35 136.566 190.418 137.428C190.501 138.514 190.497 139.605 190.403 140.69L190.409 140.652C190.644 139.445 191.291 138.356 192.239 137.569C193.647 136.417 195.636 135.992 197.155 135.066C197.316 134.963 197.504 134.908 197.696 134.907C197.888 134.907 198.076 134.961 198.238 135.064C198.4 135.166 198.529 135.313 198.61 135.486C198.691 135.659 198.721 135.852 198.696 136.041C198.693 136.054 198.691 136.068 198.689 136.081C198.463 136.173 198.242 136.279 198.029 136.398C197.907 136.467 197.788 136.54 197.671 136.617C197.524 136.714 197.41 136.854 197.344 137.017C197.279 137.18 197.264 137.36 197.302 137.531C197.34 137.703 197.43 137.859 197.558 137.98C197.687 138.1 197.85 138.179 198.024 138.205L198.042 138.208C198.055 138.21 198.066 138.212 198.079 138.214C197.692 139.134 197.149 139.981 196.473 140.718C195.639 141.61 194.631 142.322 193.51 142.812C192.39 143.302 191.18 143.559 189.957 143.566H189.955C189.623 145.004 189.141 146.404 188.519 147.743H183.388C183.37 147.686 183.353 147.627 183.337 147.571C183.812 147.6 184.288 147.572 184.756 147.486C184.376 147.021 183.995 146.552 183.614 146.087C183.606 146.078 183.598 146.069 183.59 146.059C183.397 145.821 183.202 145.585 183.009 145.347L183.009 145.347C182.999 144.617 183.083 143.888 183.259 143.18L183.26 143.18Z" fill="#ABAEAE"/>
<path d="M336.144 148.168C336.277 148.174 336.408 148.139 336.52 148.069C336.632 147.998 336.719 147.895 336.77 147.773C336.821 147.652 336.834 147.517 336.805 147.388C336.777 147.259 336.71 147.142 336.613 147.052C336.596 146.988 336.585 146.942 336.568 146.877C336.574 146.863 336.58 146.849 336.586 146.835C336.719 146.521 336.943 146.254 337.228 146.066C337.513 145.879 337.848 145.779 338.19 145.78C338.532 145.782 338.866 145.884 339.15 146.073C339.434 146.263 339.655 146.532 339.786 146.847C340.31 148.103 340.976 149.361 341.14 150.689C341.213 151.276 341.182 151.871 341.05 152.447C342.28 149.776 342.918 146.872 342.922 143.933C342.923 143.195 342.881 142.458 342.799 141.726C342.731 141.125 342.637 140.528 342.516 139.936C341.857 136.722 340.442 133.71 338.388 131.147C337.393 130.606 336.589 129.775 336.084 128.765C335.9 128.402 335.771 128.015 335.699 127.615C335.811 127.63 335.925 127.639 336.038 127.646C336.073 127.648 336.109 127.65 336.144 127.652L336.157 127.652C336.281 127.658 336.403 127.628 336.509 127.565C336.616 127.503 336.702 127.412 336.758 127.302C336.813 127.192 336.836 127.069 336.823 126.947C336.809 126.825 336.761 126.709 336.683 126.613C336.635 126.554 336.586 126.495 336.538 126.435C336.464 126.344 336.389 126.254 336.315 126.162C336.307 126.154 336.299 126.144 336.291 126.135C336.207 126.03 336.122 125.928 336.038 125.823C336.192 125.585 336.4 125.385 336.644 125.239C337.492 124.744 338.662 125.087 339.274 125.851C339.888 126.615 340.004 127.686 339.791 128.641C339.581 129.453 339.234 130.223 338.765 130.92C338.811 130.978 338.858 131.035 338.904 131.094C339.745 132.17 340.477 133.326 341.091 134.545C340.942 133.179 341.12 131.798 341.611 130.515C342.109 129.319 343.042 128.311 343.863 127.277C344.85 126.035 346.874 126.577 347.047 128.152C347.049 128.167 347.051 128.182 347.052 128.197C346.93 128.266 346.811 128.339 346.694 128.416C346.547 128.514 346.433 128.653 346.368 128.816C346.302 128.98 346.287 129.159 346.325 129.331C346.363 129.502 346.453 129.659 346.582 129.779C346.711 129.899 346.873 129.978 347.047 130.005L347.065 130.007C347.022 130.445 346.945 130.88 346.835 131.306C346.518 132.497 345.957 133.609 345.188 134.574C344.419 135.538 343.458 136.334 342.365 136.911C342.293 136.948 342.223 136.985 342.152 137.02C342.769 138.761 343.156 140.575 343.303 142.416C343.386 143.502 343.381 144.593 343.288 145.679L343.294 145.64C343.529 144.433 344.175 143.344 345.123 142.557C346.531 141.405 348.521 140.981 350.04 140.054C350.201 139.951 350.389 139.896 350.581 139.896C350.773 139.895 350.961 139.949 351.122 140.052C351.284 140.154 351.414 140.301 351.495 140.474C351.576 140.647 351.606 140.84 351.58 141.029C351.578 141.043 351.576 141.056 351.574 141.07C351.348 141.162 351.127 141.267 350.914 141.387C350.792 141.455 350.672 141.528 350.556 141.605C350.409 141.703 350.295 141.842 350.229 142.006C350.163 142.169 350.149 142.348 350.187 142.52C350.225 142.691 350.314 142.848 350.443 142.968C350.572 143.088 350.734 143.167 350.909 143.194L350.927 143.196C350.94 143.198 350.951 143.2 350.964 143.202C350.577 144.122 350.034 144.969 349.358 145.706C348.524 146.598 347.516 147.311 346.395 147.8C345.274 148.29 344.065 148.547 342.841 148.555H342.839C342.507 149.993 342.026 151.392 341.403 152.731H336.273C336.255 152.674 336.238 152.616 336.221 152.559C336.696 152.589 337.173 152.56 337.641 152.475C337.26 152.009 336.88 151.54 336.499 151.075C336.491 151.066 336.483 151.057 336.475 151.048C336.282 150.81 336.087 150.573 335.894 150.335L335.894 150.335C335.884 149.605 335.968 148.877 336.144 148.168Z" fill="#ABAEAE"/>
<path d="M275.172 133.383C275.304 133.389 275.435 133.354 275.547 133.284C275.659 133.213 275.746 133.11 275.797 132.988C275.849 132.866 275.861 132.732 275.833 132.603C275.805 132.474 275.737 132.357 275.64 132.267C275.624 132.203 275.612 132.156 275.596 132.092C275.602 132.078 275.607 132.064 275.613 132.05C275.747 131.736 275.97 131.469 276.255 131.281C276.541 131.093 276.876 130.994 277.217 130.995C277.559 130.997 277.893 131.098 278.177 131.288C278.461 131.478 278.683 131.747 278.814 132.062C279.337 133.318 280.004 134.576 280.168 135.904C280.24 136.49 280.21 137.085 280.078 137.662C281.307 134.99 281.945 132.087 281.95 129.148C281.95 128.41 281.909 127.673 281.826 126.94C281.758 126.34 281.664 125.743 281.543 125.151C280.884 121.937 279.469 118.925 277.415 116.362C276.421 115.821 275.616 114.99 275.111 113.98C274.928 113.617 274.798 113.23 274.727 112.83C274.839 112.844 274.953 112.854 275.065 112.861C275.1 112.863 275.137 112.865 275.172 112.866L275.185 112.867C275.308 112.873 275.43 112.842 275.537 112.78C275.643 112.718 275.729 112.627 275.785 112.517C275.841 112.407 275.863 112.284 275.85 112.162C275.837 112.039 275.788 111.924 275.71 111.828C275.662 111.769 275.614 111.709 275.565 111.65C275.492 111.559 275.416 111.469 275.343 111.377C275.334 111.368 275.326 111.359 275.319 111.35C275.234 111.245 275.15 111.143 275.065 111.038C275.219 110.8 275.427 110.6 275.672 110.454C276.519 109.959 277.689 110.302 278.301 111.066C278.915 111.83 279.031 112.901 278.818 113.856C278.608 114.668 278.261 115.438 277.792 116.134C277.838 116.193 277.886 116.25 277.932 116.308C278.772 117.385 279.505 118.541 280.119 119.76C279.969 118.394 280.147 117.013 280.639 115.73C281.136 114.533 282.069 113.526 282.891 112.492C283.877 111.25 285.901 111.792 286.075 113.367C286.076 113.382 286.078 113.397 286.08 113.412C285.958 113.481 285.838 113.554 285.721 113.631C285.575 113.728 285.461 113.868 285.395 114.031C285.329 114.194 285.314 114.374 285.353 114.545C285.391 114.717 285.48 114.873 285.609 114.994C285.738 115.114 285.9 115.193 286.075 115.219L286.093 115.222C286.049 115.66 285.972 116.094 285.863 116.521C285.545 117.712 284.984 118.824 284.215 119.789C283.446 120.753 282.485 121.549 281.392 122.126C281.321 122.163 281.251 122.2 281.179 122.234C281.796 123.976 282.183 125.79 282.33 127.631C282.414 128.717 282.409 129.808 282.316 130.893L282.321 130.855C282.556 129.648 283.203 128.559 284.151 127.772C285.559 126.62 287.548 126.195 289.067 125.269C289.228 125.166 289.416 125.111 289.608 125.111C289.8 125.11 289.988 125.164 290.15 125.267C290.312 125.369 290.441 125.516 290.522 125.689C290.603 125.862 290.633 126.055 290.608 126.244C290.606 126.258 290.604 126.271 290.601 126.285C290.375 126.376 290.154 126.482 289.941 126.601C289.819 126.67 289.7 126.743 289.583 126.82C289.436 126.918 289.322 127.057 289.257 127.22C289.191 127.384 289.176 127.563 289.214 127.735C289.252 127.906 289.342 128.063 289.471 128.183C289.599 128.303 289.762 128.382 289.936 128.409L289.954 128.411C289.967 128.413 289.978 128.415 289.991 128.417C289.604 129.337 289.061 130.184 288.386 130.921C287.551 131.813 286.543 132.525 285.422 133.015C284.302 133.505 283.092 133.762 281.869 133.769H281.867C281.535 135.207 281.053 136.607 280.431 137.946H275.3C275.282 137.889 275.265 137.831 275.249 137.774C275.724 137.804 276.2 137.775 276.668 137.69C276.288 137.224 275.907 136.755 275.526 136.29C275.518 136.281 275.51 136.272 275.503 136.263C275.309 136.024 275.115 135.788 274.921 135.55L274.921 135.55C274.911 134.82 274.995 134.091 275.172 133.383L275.172 133.383Z" fill="#ABAEAE"/>
<path d="M242.571 172.22L244.718 171.584L243.298 162.842L240.129 163.78L242.571 172.22Z" fill="#FFB6B6"/>
<path d="M229.402 168.769C229.533 168.883 229.664 168.995 229.796 169.107C230.06 169.331 230.327 169.553 230.594 169.772C230.728 169.881 230.864 169.991 230.999 170.099L230.998 170.103L231.007 170.106L231.009 170.108L231.226 170.199L231.686 169.398L231.898 169.028L232.197 168.505L232.746 167.549L235.636 162.511L232.592 161.232L232.396 161.697L232.395 161.697L232.298 161.927L230.48 166.224L230.109 167.103L230.097 167.129L229.874 167.654L229.682 168.108L229.467 168.616L229.402 168.769Z" fill="#FFB6B6"/>
<path d="M213.498 146.967C213.648 147.32 213.802 147.672 213.958 148.022C214.249 148.672 214.55 149.316 214.864 149.952C214.864 149.953 214.865 149.954 214.866 149.955C215.068 150.21 215.298 150.441 215.554 150.643C215.564 150.654 215.576 150.662 215.587 150.671C215.775 150.817 215.981 150.939 216.199 151.035C216.278 151.069 216.358 151.102 216.437 151.136C216.722 151.253 217.006 151.359 217.289 151.457C217.793 151.631 218.297 151.778 218.8 151.899C218.84 151.91 218.881 151.919 218.921 151.929C220.994 152.413 223.076 152.489 225.272 152.42C226.356 152.388 227.468 152.319 228.62 152.248C228.996 152.224 229.374 152.201 229.756 152.179C229.785 152.178 229.816 152.175 229.846 152.174C230.392 152.142 230.947 152.112 231.514 152.087C232.229 152.054 232.964 152.029 233.727 152.017L233.509 153.049C233.337 153.843 233.045 154.607 232.641 155.312C232.177 156.185 231.811 156.876 232.098 158.479L232.236 159.256C232.046 159.6 231.938 159.984 231.922 160.377C231.906 160.77 231.981 161.162 232.142 161.521L232.181 161.606L229.202 166.631L229.009 166.957L230.098 167.129L231.437 167.342L233.708 167.7L238.026 161.669L238.232 161.381L238.235 161.365L239.897 148.728C239.91 148.616 239.919 148.503 239.922 148.389C239.943 147.875 239.86 147.363 239.68 146.881C239.499 146.399 239.224 145.958 238.87 145.583C238.532 145.221 238.125 144.93 237.672 144.727C237.22 144.523 236.731 144.411 236.235 144.398L235.091 144.365L232.753 144.299L231.105 144.253L231.072 144.252L226.215 144.114L226.094 142.673L226.035 142.64L224.147 141.592L217.619 137.968L217.602 137.959L217.172 137.721L217.104 137.8C217.084 137.824 217.064 137.847 217.045 137.871C216.466 138.605 215.964 139.395 215.547 140.231C214.852 141.593 214.236 142.994 213.7 144.426C213.677 144.488 213.656 144.544 213.637 144.595L213.631 144.611C213.622 144.635 213.617 144.65 213.615 144.655C213.349 145.292 213.332 146.119 213.498 146.967Z" fill="#2F2E41"/>
<path d="M213.943 142.282C213.98 142.192 214.023 142.101 214.067 142.014C214.41 141.354 214.79 140.713 215.205 140.095C215.671 139.39 216.215 138.642 216.849 137.839C217.156 137.45 217.484 137.048 217.832 136.63C218.007 136.421 218.187 136.209 218.374 135.993C218.381 135.983 218.389 135.973 218.398 135.964L218.452 135.9L225.164 137.897L225.161 138.812L225.647 140.109L225.614 140.148C225.616 140.146 225.616 140.148 225.614 140.148V139.97L225.793 140.148L227.524 142.278L227.536 142.278L231.403 142.387L235.388 142.499L237.529 142.56C238.025 142.574 238.514 142.685 238.966 142.889C239.418 143.092 239.826 143.384 240.164 143.745C240.518 144.12 240.793 144.561 240.973 145.043C241.154 145.525 241.236 146.038 241.216 146.552C241.213 146.656 241.205 146.763 241.193 146.867L242.429 151.851C243.169 154.832 243.453 157.907 243.272 160.972L243.989 165.823L243.779 165.809L240.658 165.609L239.834 165.556L238.459 162.673C238.302 162.345 238.157 162.009 238.027 161.668C237.811 161.111 237.631 160.54 237.488 159.96L235.078 150.179C234.771 150.183 234.467 150.185 234.166 150.185C232.775 150.19 231.445 150.163 230.176 150.105C226.048 149.916 222.53 149.397 219.464 148.521C218.603 148.276 217.776 148.002 216.984 147.699C216.694 147.588 216.408 147.474 216.127 147.355C216.061 147.328 215.996 147.301 215.931 147.273C215.35 147.022 214.841 146.63 214.452 146.132C214.062 145.634 213.804 145.047 213.702 144.425C213.576 143.702 213.659 142.958 213.943 142.282Z" fill="#2F2E41"/>
<path d="M242.149 170.762L244.472 170.072L244.836 169.963L245.167 171.371L248.812 172.795C248.992 172.865 249.145 172.991 249.248 173.154C249.351 173.317 249.4 173.509 249.386 173.701C249.372 173.893 249.297 174.076 249.171 174.223C249.046 174.37 248.877 174.473 248.688 174.517L244.76 175.434L243.756 174.199L243.819 175.654L242.339 176L241.584 170.93L242.149 170.762Z" fill="#2F2E41"/>
<path d="M229.201 166.631L229.008 166.957L229.146 166.978L229.201 166.631Z" fill="#2F2E41"/>
<path d="M229.887 167.171L232.025 168.309L232.361 168.487L231.601 169.719L233.185 173.286C233.263 173.462 233.283 173.659 233.241 173.847C233.2 174.035 233.099 174.205 232.953 174.332C232.807 174.459 232.625 174.536 232.432 174.553C232.239 174.569 232.046 174.523 231.881 174.422L228.442 172.321L228.6 170.74L227.618 171.818L226.322 171.026L229.366 166.895L229.887 167.171Z" fill="#2F2E41"/>
<path d="M245.339 102.302C245.36 102.538 245.328 102.776 245.246 102.998C245.165 103.221 245.035 103.423 244.867 103.59C244.698 103.757 244.495 103.886 244.271 103.966C244.048 104.047 243.809 104.078 243.572 104.056L241.194 109.306L239.588 106.777L242.093 102.179C242.155 101.785 242.36 101.427 242.669 101.174C242.979 100.92 243.37 100.789 243.771 100.804C244.171 100.819 244.551 100.98 244.841 101.256C245.13 101.532 245.307 101.904 245.339 102.302Z" fill="#FFB6B6"/>
<path d="M239.29 117.92L228.393 126.225C227.529 126.883 226.438 127.172 225.36 127.029C224.282 126.886 223.305 126.323 222.643 125.463C222.277 124.987 222.021 124.436 221.893 123.85C221.765 123.264 221.768 122.657 221.901 122.072C222.035 121.487 222.297 120.939 222.667 120.466C223.037 119.993 223.508 119.607 224.045 119.336L234.908 113.846L239.768 104.414L243.031 105.38L239.29 117.92Z" fill="#3EBCD2"/>
<path d="M216.083 127.788L215.862 135.847C212.822 140.964 212.476 143.448 213.318 144.773L225.819 140.224L226.029 139.723L226.682 136.122L227.866 132.407C228.074 132.018 230.903 129.633 228.251 125.109L222.916 117.949L218.641 117.705C217.936 119.507 219.207 120.49 217.938 120.906C215.066 123.527 215.488 123.954 216.083 127.788Z" fill="#3EBCD2"/>
<path d="M207.582 150.412C207.485 150.196 207.437 149.961 207.442 149.724C207.446 149.487 207.502 149.254 207.607 149.041C207.711 148.828 207.861 148.64 208.046 148.492C208.231 148.343 208.447 148.236 208.677 148.179L209.205 142.443L211.552 144.312L210.691 149.472C210.761 149.865 210.685 150.27 210.475 150.61C210.266 150.95 209.939 151.202 209.556 151.318C209.173 151.434 208.76 151.405 208.396 151.238C208.033 151.072 207.743 150.778 207.582 150.412Z" fill="#FFB6B6"/>
<path d="M208.182 133.683L215.759 122.289C216.361 121.386 217.297 120.758 218.363 120.543C219.429 120.327 220.537 120.542 221.444 121.139C221.946 121.47 222.369 121.907 222.682 122.42C222.995 122.932 223.191 123.507 223.256 124.103C223.322 124.699 223.254 125.303 223.059 125.87C222.864 126.437 222.546 126.955 222.127 127.386L213.659 136.109L212.156 146.604L208.756 146.752L208.182 133.683Z" fill="#3EBCD2"/>
<path d="M224.239 107.926C225.751 110.894 224.763 114.332 221.958 116.139C218.925 118.094 214.987 117.666 213.714 113.867C212.295 109.637 213.46 107.822 215.994 105.654C218.964 103.113 222.606 104.719 224.239 107.926Z" fill="#2F2E41"/>
<path d="M216.799 114.538C217.568 115.543 218.707 116.202 219.964 116.371C221.221 116.54 222.493 116.205 223.503 115.439C224.512 114.674 225.175 113.541 225.345 112.289C225.516 111.037 225.181 109.768 224.414 108.762L224.372 108.708C223.589 107.73 222.45 107.099 221.203 106.95C219.956 106.801 218.701 107.146 217.707 107.911C216.713 108.676 216.061 109.8 215.892 111.039C215.722 112.279 216.048 113.535 216.8 114.538L216.799 114.538Z" fill="#FFB6B6"/>
<path d="M225.705 107.447C224.927 108.184 223.979 108.719 222.944 109.005C222.737 108.766 222.491 108.563 222.217 108.404C222.348 108.676 222.438 108.966 222.484 109.265C222.023 110.219 220.138 110.904 218.337 111.605L215.951 107.411L219.109 105.629C221.646 103.881 224.633 104.627 225.705 107.447Z" fill="#2F2E41"/>
<path d="M214.152 105.66C213.722 105.462 213.166 105.584 212.762 105.862C212.377 106.153 212.066 106.53 211.854 106.962C211.468 107.661 211.19 108.414 211.031 109.196C210.895 109.873 210.918 110.691 211.527 111.044C212.036 111.338 212.762 111.153 213.23 110.76C213.697 110.366 213.96 109.814 214.188 109.274C214.416 108.735 214.632 108.175 215.037 107.727L214.616 107.923C214.749 107.521 214.811 107.098 214.799 106.675C214.79 106.464 214.725 106.259 214.611 106.081C214.498 105.903 214.339 105.758 214.152 105.66Z" fill="#2F2E41"/>
<path d="M219.613 106.209L216.226 108.121C215.31 108.638 214.637 109.497 214.357 110.508C214.076 111.519 214.21 112.599 214.729 113.512C215.485 114.841 216.711 115.841 218.168 116.317C219.625 116.794 221.208 116.712 222.608 116.088L219.512 113.365L223.712 115.497L224.608 114.991C220.105 114.175 219.236 110.655 219.613 106.209Z" fill="#2F2E41"/>
</g>
<defs>
<filter id="filter0_d_2356_9402" x="0" y="0" width="511" height="329" filterUnits="userSpaceOnUse" color-interpolation-filters="sRGB">
<feFlood flood-opacity="0" result="BackgroundImageFix"/>
<feColorMatrix in="SourceAlpha" type="matrix" values="0 0 0 0 0 0 0 0 0 0 0 0 0 0 0 0 0 0 127 0" result="hardAlpha"/>
<feOffset dy="8"/>
<feGaussianBlur stdDeviation="12"/>
<feComposite in2="hardAlpha" operator="out"/>
<feColorMatrix type="matrix" values="0 0 0 0 0 0 0 0 0 0 0 0 0 0 0 0 0 0 0.15 0"/>
<feBlend mode="normal" in2="BackgroundImageFix" result="effect1_dropShadow_2356_9402"/>
<feBlend mode="normal" in="SourceGraphic" in2="effect1_dropShadow_2356_9402" result="shape"/>
</filter>
<clipPath id="clip0_2356_9402">
<rect width="182" height="134" fill="white" transform="translate(172 42)"/>
</clipPath>
</defs>
</svg>
