<svg width="511" height="329" viewBox="0 0 511 329" fill="none" xmlns="http://www.w3.org/2000/svg">
<g filter="url(#filter0_d_398_2131)">
<rect x="25.5" y="17.5" width="460" height="278" rx="21.215" stroke="black" stroke-opacity="0.29" stroke-width="3" stroke-dasharray="9 9" shape-rendering="crispEdges"/>
</g>
<path d="M116.536 233.491C117.203 233.616 117.769 233.955 118.232 234.509C118.696 235.063 118.927 235.707 118.927 236.442C118.927 237.041 118.775 237.584 118.47 238.07C118.176 238.545 117.74 238.924 117.164 239.206C116.587 239.478 115.897 239.613 115.095 239.613H110.991V227.759H114.976C116.174 227.759 117.085 228.036 117.706 228.59C118.34 229.144 118.656 229.862 118.656 230.744C118.656 231.479 118.458 232.078 118.063 232.541C117.667 232.994 117.158 233.31 116.536 233.491ZM112.178 232.999H114.942C115.745 232.999 116.361 232.813 116.791 232.44C117.232 232.055 117.452 231.53 117.452 230.863C117.452 230.207 117.232 229.692 116.791 229.319C116.361 228.946 115.728 228.76 114.891 228.76H112.178V232.999ZM115.01 238.613C115.869 238.613 116.536 238.409 117.011 238.002C117.497 237.595 117.74 237.036 117.74 236.323C117.74 235.611 117.486 235.046 116.977 234.627C116.48 234.198 115.807 233.983 114.959 233.983H112.178V238.613H115.01ZM129.487 234.509C129.487 234.916 129.476 235.227 129.453 235.441H121.771C121.805 236.142 121.975 236.742 122.28 237.239C122.585 237.737 122.986 238.115 123.484 238.375C123.981 238.624 124.524 238.748 125.112 238.748C125.881 238.748 126.525 238.562 127.045 238.189C127.577 237.816 127.927 237.313 128.097 236.679H129.352C129.126 237.584 128.639 238.324 127.893 238.901C127.158 239.466 126.231 239.749 125.112 239.749C124.241 239.749 123.461 239.557 122.772 239.172C122.082 238.777 121.539 238.223 121.144 237.51C120.759 236.787 120.567 235.945 120.567 234.984C120.567 234.023 120.759 233.18 121.144 232.457C121.528 231.733 122.065 231.179 122.755 230.795C123.444 230.41 124.23 230.218 125.112 230.218C125.994 230.218 126.763 230.41 127.418 230.795C128.085 231.179 128.594 231.699 128.945 232.355C129.306 232.999 129.487 233.717 129.487 234.509ZM128.283 234.475C128.295 233.785 128.153 233.197 127.859 232.711C127.577 232.225 127.187 231.857 126.689 231.609C126.192 231.36 125.649 231.236 125.061 231.236C124.179 231.236 123.427 231.518 122.806 232.084C122.184 232.649 121.839 233.446 121.771 234.475H128.283ZM132.846 227.064V239.613H131.659V227.064H132.846ZM143.556 230.354V239.613H142.369V237.985C142.098 238.562 141.679 239.003 141.114 239.308C140.549 239.613 139.916 239.766 139.215 239.766C138.107 239.766 137.202 239.427 136.501 238.748C135.8 238.059 135.45 237.064 135.45 235.764V230.354H136.62V235.628C136.62 236.634 136.869 237.403 137.366 237.934C137.875 238.466 138.565 238.731 139.435 238.731C140.328 238.731 141.04 238.449 141.572 237.883C142.103 237.318 142.369 236.487 142.369 235.391V230.354H143.556ZM157.289 230.184C158.375 230.184 159.257 230.529 159.935 231.219C160.625 231.897 160.97 232.886 160.97 234.186V239.613H159.799V234.322C159.799 233.316 159.556 232.547 159.07 232.016C158.584 231.484 157.923 231.219 157.086 231.219C156.215 231.219 155.52 231.507 155 232.084C154.48 232.66 154.22 233.497 154.22 234.593V239.613H153.05V234.322C153.05 233.316 152.807 232.547 152.321 232.016C151.834 231.484 151.167 231.219 150.319 231.219C149.449 231.219 148.754 231.507 148.233 232.084C147.713 232.66 147.453 233.497 147.453 234.593V239.613H146.266V230.354H147.453V231.948C147.747 231.371 148.166 230.936 148.708 230.642C149.251 230.337 149.856 230.184 150.523 230.184C151.326 230.184 152.027 230.376 152.626 230.761C153.236 231.145 153.677 231.71 153.949 232.457C154.197 231.722 154.621 231.162 155.22 230.778C155.831 230.382 156.521 230.184 157.289 230.184ZM167.717 234.967C167.717 234.017 167.904 233.186 168.277 232.474C168.661 231.75 169.187 231.196 169.854 230.812C170.532 230.416 171.295 230.218 172.143 230.218C173.025 230.218 173.783 230.422 174.416 230.829C175.06 231.236 175.524 231.756 175.806 232.389V230.354H176.993V239.613H175.806V237.561C175.512 238.194 175.043 238.72 174.399 239.138C173.766 239.545 173.008 239.749 172.126 239.749C171.29 239.749 170.532 239.551 169.854 239.155C169.187 238.76 168.661 238.2 168.277 237.476C167.904 236.753 167.717 235.916 167.717 234.967ZM175.806 234.984C175.806 234.237 175.654 233.582 175.348 233.016C175.043 232.451 174.625 232.016 174.093 231.71C173.573 231.405 172.997 231.253 172.364 231.253C171.708 231.253 171.12 231.4 170.6 231.694C170.08 231.987 169.667 232.417 169.362 232.982C169.068 233.536 168.921 234.198 168.921 234.967C168.921 235.724 169.068 236.391 169.362 236.968C169.667 237.533 170.08 237.968 170.6 238.274C171.12 238.567 171.708 238.714 172.364 238.714C172.997 238.714 173.573 238.562 174.093 238.257C174.625 237.951 175.043 237.516 175.348 236.951C175.654 236.385 175.806 235.73 175.806 234.984ZM179.161 234.967C179.161 234.017 179.353 233.186 179.737 232.474C180.122 231.75 180.648 231.196 181.315 230.812C181.993 230.416 182.756 230.218 183.604 230.218C184.418 230.218 185.153 230.416 185.809 230.812C186.464 231.207 186.945 231.722 187.25 232.355V227.064H188.437V239.613H187.25V237.544C186.968 238.189 186.504 238.72 185.86 239.138C185.215 239.545 184.458 239.749 183.587 239.749C182.739 239.749 181.976 239.551 181.298 239.155C180.631 238.76 180.105 238.2 179.72 237.476C179.347 236.753 179.161 235.916 179.161 234.967ZM187.25 234.984C187.25 234.237 187.098 233.582 186.792 233.016C186.487 232.451 186.069 232.016 185.537 231.71C185.017 231.405 184.441 231.253 183.808 231.253C183.152 231.253 182.564 231.4 182.044 231.694C181.524 231.987 181.111 232.417 180.806 232.982C180.512 233.536 180.365 234.198 180.365 234.967C180.365 235.724 180.512 236.391 180.806 236.968C181.111 237.533 181.524 237.968 182.044 238.274C182.564 238.567 183.152 238.714 183.808 238.714C184.441 238.714 185.017 238.562 185.537 238.257C186.069 237.951 186.487 237.516 186.792 236.951C187.098 236.385 187.25 235.73 187.25 234.984ZM190.605 234.967C190.605 234.017 190.791 233.186 191.164 232.474C191.549 231.75 192.074 231.196 192.741 230.812C193.42 230.416 194.183 230.218 195.031 230.218C195.913 230.218 196.67 230.422 197.303 230.829C197.948 231.236 198.411 231.756 198.694 232.389V230.354H199.881V239.613H198.694V237.561C198.4 238.194 197.931 238.72 197.286 239.138C196.653 239.545 195.896 239.749 195.014 239.749C194.177 239.749 193.42 239.551 192.741 239.155C192.074 238.76 191.549 238.2 191.164 237.476C190.791 236.753 190.605 235.916 190.605 234.967ZM198.694 234.984C198.694 234.237 198.541 233.582 198.236 233.016C197.931 232.451 197.513 232.016 196.981 231.71C196.461 231.405 195.885 231.253 195.251 231.253C194.596 231.253 194.008 231.4 193.488 231.694C192.968 231.987 192.555 232.417 192.25 232.982C191.956 233.536 191.809 234.198 191.809 234.967C191.809 235.724 191.956 236.391 192.25 236.968C192.555 237.533 192.968 237.968 193.488 238.274C194.008 238.567 194.596 238.714 195.251 238.714C195.885 238.714 196.461 238.562 196.981 238.257C197.513 237.951 197.931 237.516 198.236 236.951C198.541 236.385 198.694 235.73 198.694 234.984ZM208.415 232.389C208.709 231.767 209.173 231.253 209.806 230.846C210.45 230.427 211.213 230.218 212.095 230.218C212.932 230.218 213.684 230.416 214.351 230.812C215.029 231.196 215.555 231.75 215.928 232.474C216.312 233.186 216.504 234.017 216.504 234.967C216.504 235.916 216.312 236.753 215.928 237.476C215.555 238.2 215.029 238.76 214.351 239.155C213.684 239.551 212.932 239.749 212.095 239.749C211.225 239.749 210.467 239.545 209.823 239.138C209.178 238.72 208.709 238.2 208.415 237.578V243.989H207.245V230.354H208.415V232.389ZM215.3 234.967C215.3 234.198 215.148 233.536 214.842 232.982C214.549 232.417 214.142 231.987 213.621 231.694C213.101 231.4 212.513 231.253 211.858 231.253C211.225 231.253 210.642 231.405 210.111 231.71C209.591 232.016 209.178 232.451 208.873 233.016C208.568 233.582 208.415 234.237 208.415 234.984C208.415 235.73 208.568 236.385 208.873 236.951C209.178 237.516 209.591 237.951 210.111 238.257C210.642 238.562 211.225 238.714 211.858 238.714C212.513 238.714 213.101 238.567 213.621 238.274C214.142 237.968 214.549 237.533 214.842 236.968C215.148 236.391 215.3 235.724 215.3 234.967ZM227.066 234.509C227.066 234.916 227.055 235.227 227.033 235.441H219.35C219.384 236.142 219.554 236.742 219.859 237.239C220.164 237.737 220.566 238.115 221.063 238.375C221.56 238.624 222.103 238.748 222.691 238.748C223.46 238.748 224.104 238.562 224.624 238.189C225.156 237.816 225.506 237.313 225.676 236.679H226.931C226.705 237.584 226.218 238.324 225.472 238.901C224.737 239.466 223.81 239.749 222.691 239.749C221.821 239.749 221.04 239.557 220.351 239.172C219.661 238.777 219.118 238.223 218.723 237.51C218.338 236.787 218.146 235.945 218.146 234.984C218.146 234.023 218.338 233.18 218.723 232.457C219.107 231.733 219.644 231.179 220.334 230.795C221.023 230.41 221.809 230.218 222.691 230.218C223.573 230.218 224.342 230.41 224.997 230.795C225.664 231.179 226.173 231.699 226.524 232.355C226.886 232.999 227.066 233.717 227.066 234.509ZM225.862 234.475C225.874 233.785 225.732 233.197 225.438 232.711C225.156 232.225 224.766 231.857 224.268 231.609C223.771 231.36 223.228 231.236 222.64 231.236C221.758 231.236 221.006 231.518 220.385 232.084C219.763 232.649 219.418 233.446 219.35 234.475H225.862ZM233.58 230.184C234.688 230.184 235.592 230.529 236.293 231.219C236.994 231.897 237.345 232.886 237.345 234.186V239.613H236.174V234.322C236.174 233.316 235.92 232.547 235.411 232.016C234.914 231.484 234.23 231.219 233.359 231.219C232.466 231.219 231.754 231.501 231.223 232.067C230.691 232.632 230.425 233.463 230.425 234.56V239.613H229.238V230.354H230.425V231.931C230.719 231.366 231.143 230.936 231.697 230.642C232.251 230.337 232.879 230.184 233.58 230.184ZM243.854 230.218C244.724 230.218 245.482 230.422 246.126 230.829C246.771 231.236 247.234 231.75 247.517 232.372V230.354H248.704V239.851C248.704 240.699 248.517 241.45 248.144 242.106C247.782 242.762 247.274 243.265 246.618 243.616C245.962 243.977 245.216 244.158 244.379 244.158C243.192 244.158 242.203 243.876 241.412 243.31C240.631 242.745 240.145 241.976 239.953 241.004H241.123C241.327 241.648 241.711 242.163 242.276 242.547C242.853 242.932 243.554 243.124 244.379 243.124C244.979 243.124 245.516 242.994 245.99 242.734C246.465 242.485 246.838 242.112 247.11 241.614C247.381 241.117 247.517 240.529 247.517 239.851V237.561C247.223 238.194 246.754 238.72 246.109 239.138C245.476 239.545 244.724 239.749 243.854 239.749C243.006 239.749 242.243 239.551 241.564 239.155C240.897 238.76 240.371 238.2 239.987 237.476C239.614 236.753 239.427 235.916 239.427 234.967C239.427 234.017 239.614 233.186 239.987 232.474C240.371 231.75 240.897 231.196 241.564 230.812C242.243 230.416 243.006 230.218 243.854 230.218ZM247.517 234.984C247.517 234.237 247.364 233.582 247.059 233.016C246.754 232.451 246.335 232.016 245.804 231.71C245.284 231.405 244.707 231.253 244.074 231.253C243.418 231.253 242.83 231.4 242.31 231.694C241.79 231.987 241.378 232.417 241.072 232.982C240.778 233.536 240.631 234.198 240.631 234.967C240.631 235.724 240.778 236.391 241.072 236.968C241.378 237.533 241.79 237.968 242.31 238.274C242.83 238.567 243.418 238.714 244.074 238.714C244.707 238.714 245.284 238.562 245.804 238.257C246.335 237.951 246.754 237.516 247.059 236.951C247.364 236.385 247.517 235.73 247.517 234.984ZM250.871 234.967C250.871 234.017 251.058 233.186 251.431 232.474C251.815 231.75 252.341 231.196 253.008 230.812C253.686 230.416 254.45 230.218 255.297 230.218C256.179 230.218 256.937 230.422 257.57 230.829C258.214 231.236 258.678 231.756 258.961 232.389V230.354H260.148V239.613H258.961V237.561C258.667 238.194 258.197 238.72 257.553 239.138C256.92 239.545 256.162 239.749 255.281 239.749C254.444 239.749 253.686 239.551 253.008 239.155C252.341 238.76 251.815 238.2 251.431 237.476C251.058 236.753 250.871 235.916 250.871 234.967ZM258.961 234.984C258.961 234.237 258.808 233.582 258.503 233.016C258.197 232.451 257.779 232.016 257.248 231.71C256.728 231.405 256.151 231.253 255.518 231.253C254.862 231.253 254.274 231.4 253.754 231.694C253.234 231.987 252.821 232.417 252.516 232.982C252.222 233.536 252.075 234.198 252.075 234.967C252.075 235.724 252.222 236.391 252.516 236.968C252.821 237.533 253.234 237.968 253.754 238.274C254.274 238.567 254.862 238.714 255.518 238.714C256.151 238.714 256.728 238.562 257.248 238.257C257.779 237.951 258.197 237.516 258.503 236.951C258.808 236.385 258.961 235.73 258.961 234.984ZM263.536 228.607C263.299 228.607 263.095 228.522 262.926 228.353C262.756 228.183 262.671 227.974 262.671 227.725C262.671 227.476 262.756 227.273 262.926 227.115C263.095 226.945 263.299 226.86 263.536 226.86C263.774 226.86 263.971 226.945 264.13 227.115C264.299 227.273 264.384 227.476 264.384 227.725C264.384 227.974 264.299 228.183 264.13 228.353C263.971 228.522 263.774 228.607 263.536 228.607ZM264.113 241.801C264.113 242.547 263.926 243.095 263.553 243.446C263.18 243.808 262.62 243.989 261.874 243.989H261.043V242.971H261.688C262.129 242.971 262.445 242.875 262.637 242.683C262.83 242.502 262.926 242.191 262.926 241.75V230.354H264.113V241.801ZM274.854 230.354V239.613H273.667V237.985C273.396 238.562 272.977 239.003 272.412 239.308C271.847 239.613 271.213 239.766 270.513 239.766C269.405 239.766 268.5 239.427 267.799 238.748C267.098 238.059 266.748 237.064 266.748 235.764V230.354H267.918V235.628C267.918 236.634 268.167 237.403 268.664 237.934C269.173 238.466 269.862 238.731 270.733 238.731C271.626 238.731 272.338 238.449 272.87 237.883C273.401 237.318 273.667 236.487 273.667 235.391V230.354H274.854ZM277.022 234.967C277.022 234.017 277.208 233.186 277.581 232.474C277.966 231.75 278.491 231.196 279.158 230.812C279.837 230.416 280.6 230.218 281.448 230.218C282.33 230.218 283.087 230.422 283.72 230.829C284.365 231.236 284.828 231.756 285.111 232.389V230.354H286.298V239.613H285.111V237.561C284.817 238.194 284.348 238.72 283.703 239.138C283.07 239.545 282.313 239.749 281.431 239.749C280.594 239.749 279.837 239.551 279.158 239.155C278.491 238.76 277.966 238.2 277.581 237.476C277.208 236.753 277.022 235.916 277.022 234.967ZM285.111 234.984C285.111 234.237 284.958 233.582 284.653 233.016C284.348 232.451 283.929 232.016 283.398 231.71C282.878 231.405 282.301 231.253 281.668 231.253C281.012 231.253 280.425 231.4 279.904 231.694C279.384 231.987 278.972 232.417 278.667 232.982C278.373 233.536 278.226 234.198 278.226 234.967C278.226 235.724 278.373 236.391 278.667 236.968C278.972 237.533 279.384 237.968 279.904 238.274C280.425 238.567 281.012 238.714 281.668 238.714C282.301 238.714 282.878 238.562 283.398 238.257C283.929 237.951 284.348 237.516 284.653 236.951C284.958 236.385 285.111 235.73 285.111 234.984ZM293.349 230.184C294.457 230.184 295.362 230.529 296.063 231.219C296.764 231.897 297.114 232.886 297.114 234.186V239.613H295.944V234.322C295.944 233.316 295.69 232.547 295.181 232.016C294.684 231.484 294 231.219 293.129 231.219C292.236 231.219 291.524 231.501 290.992 232.067C290.461 232.632 290.195 233.463 290.195 234.56V239.613H289.008V230.354H290.195V231.931C290.489 231.366 290.913 230.936 291.467 230.642C292.021 230.337 292.649 230.184 293.349 230.184ZM305.564 232.406C305.869 231.761 306.338 231.236 306.971 230.829C307.616 230.422 308.373 230.218 309.244 230.218C310.092 230.218 310.849 230.416 311.516 230.812C312.183 231.196 312.703 231.75 313.076 232.474C313.461 233.186 313.653 234.017 313.653 234.967C313.653 235.916 313.461 236.753 313.076 237.476C312.703 238.2 312.178 238.76 311.499 239.155C310.832 239.551 310.08 239.749 309.244 239.749C308.362 239.749 307.599 239.551 306.954 239.155C306.321 238.748 305.858 238.223 305.564 237.578V239.613H304.393V227.064H305.564V232.406ZM312.449 234.967C312.449 234.198 312.296 233.536 311.991 232.982C311.697 232.417 311.29 231.987 310.77 231.694C310.25 231.4 309.662 231.253 309.006 231.253C308.373 231.253 307.791 231.405 307.26 231.71C306.739 232.016 306.327 232.451 306.022 233.016C305.716 233.582 305.564 234.237 305.564 234.984C305.564 235.73 305.716 236.385 306.022 236.951C306.327 237.516 306.739 237.951 307.26 238.257C307.791 238.562 308.373 238.714 309.006 238.714C309.662 238.714 310.25 238.567 310.77 238.274C311.29 237.968 311.697 237.533 311.991 236.968C312.296 236.391 312.449 235.724 312.449 234.967ZM316.431 228.607C316.193 228.607 315.99 228.522 315.82 228.353C315.651 228.183 315.566 227.974 315.566 227.725C315.566 227.476 315.651 227.273 315.82 227.115C315.99 226.945 316.193 226.86 316.431 226.86C316.668 226.86 316.872 226.945 317.041 227.115C317.211 227.273 317.296 227.476 317.296 227.725C317.296 227.974 317.211 228.183 317.041 228.353C316.872 228.522 316.668 228.607 316.431 228.607ZM317.024 230.354V239.613H315.837V230.354H317.024ZM330.736 230.184C331.821 230.184 332.703 230.529 333.381 231.219C334.071 231.897 334.416 232.886 334.416 234.186V239.613H333.246V234.322C333.246 233.316 333.003 232.547 332.517 232.016C332.03 231.484 331.369 231.219 330.532 231.219C329.662 231.219 328.967 231.507 328.446 232.084C327.926 232.66 327.666 233.497 327.666 234.593V239.613H326.496V234.322C326.496 233.316 326.253 232.547 325.767 232.016C325.281 231.484 324.614 231.219 323.766 231.219C322.895 231.219 322.2 231.507 321.68 232.084C321.16 232.66 320.9 233.497 320.9 234.593V239.613H319.713V230.354H320.9V231.948C321.194 231.371 321.612 230.936 322.155 230.642C322.697 230.337 323.302 230.184 323.969 230.184C324.772 230.184 325.473 230.376 326.072 230.761C326.683 231.145 327.124 231.71 327.395 232.457C327.644 231.722 328.068 231.162 328.667 230.778C329.277 230.382 329.967 230.184 330.736 230.184ZM338.223 232.406C338.528 231.761 338.997 231.236 339.63 230.829C340.275 230.422 341.032 230.218 341.903 230.218C342.75 230.218 343.508 230.416 344.175 230.812C344.842 231.196 345.362 231.75 345.735 232.474C346.12 233.186 346.312 234.017 346.312 234.967C346.312 235.916 346.12 236.753 345.735 237.476C345.362 238.2 344.836 238.76 344.158 239.155C343.491 239.551 342.739 239.749 341.903 239.749C341.021 239.749 340.258 239.551 339.613 239.155C338.98 238.748 338.516 238.223 338.223 237.578V239.613H337.052V227.064H338.223V232.406ZM345.108 234.967C345.108 234.198 344.955 233.536 344.65 232.982C344.356 232.417 343.949 231.987 343.429 231.694C342.909 231.4 342.321 231.253 341.665 231.253C341.032 231.253 340.45 231.405 339.918 231.71C339.398 232.016 338.986 232.451 338.68 233.016C338.375 233.582 338.223 234.237 338.223 234.984C338.223 235.73 338.375 236.385 338.68 236.951C338.986 237.516 339.398 237.951 339.918 238.257C340.45 238.562 341.032 238.714 341.665 238.714C342.321 238.714 342.909 238.567 343.429 238.274C343.949 237.968 344.356 237.533 344.65 236.968C344.955 236.391 345.108 235.724 345.108 234.967ZM349.09 228.607C348.852 228.607 348.649 228.522 348.479 228.353C348.31 228.183 348.225 227.974 348.225 227.725C348.225 227.476 348.31 227.273 348.479 227.115C348.649 226.945 348.852 226.86 349.09 226.86C349.327 226.86 349.531 226.945 349.7 227.115C349.87 227.273 349.955 227.476 349.955 227.725C349.955 227.974 349.87 228.183 349.7 228.353C349.531 228.522 349.327 228.607 349.09 228.607ZM349.683 230.354V239.613H348.496V230.354H349.683ZM356.713 230.184C357.821 230.184 358.725 230.529 359.426 231.219C360.127 231.897 360.478 232.886 360.478 234.186V239.613H359.308V234.322C359.308 233.316 359.053 232.547 358.545 232.016C358.047 231.484 357.363 231.219 356.493 231.219C355.599 231.219 354.887 231.501 354.356 232.067C353.824 232.632 353.559 233.463 353.559 234.56V239.613H352.372V230.354H353.559V231.931C353.853 231.366 354.277 230.936 354.831 230.642C355.385 230.337 356.012 230.184 356.713 230.184ZM366.987 230.218C367.857 230.218 368.615 230.422 369.259 230.829C369.904 231.236 370.367 231.75 370.65 232.372V230.354H371.837V239.851C371.837 240.699 371.651 241.45 371.277 242.106C370.916 242.762 370.407 243.265 369.751 243.616C369.095 243.977 368.349 244.158 367.513 244.158C366.325 244.158 365.336 243.876 364.545 243.31C363.765 242.745 363.279 241.976 363.086 241.004H364.256C364.46 241.648 364.844 242.163 365.41 242.547C365.986 242.932 366.687 243.124 367.513 243.124C368.112 243.124 368.649 242.994 369.124 242.734C369.598 242.485 369.972 242.112 370.243 241.614C370.514 241.117 370.65 240.529 370.65 239.851V237.561C370.356 238.194 369.887 238.72 369.242 239.138C368.609 239.545 367.857 239.749 366.987 239.749C366.139 239.749 365.376 239.551 364.697 239.155C364.03 238.76 363.505 238.2 363.12 237.476C362.747 236.753 362.561 235.916 362.561 234.967C362.561 234.017 362.747 233.186 363.12 232.474C363.505 231.75 364.03 231.196 364.697 230.812C365.376 230.416 366.139 230.218 366.987 230.218ZM370.65 234.984C370.65 234.237 370.497 233.582 370.192 233.016C369.887 232.451 369.468 232.016 368.937 231.71C368.417 231.405 367.84 231.253 367.207 231.253C366.552 231.253 365.964 231.4 365.444 231.694C364.924 231.987 364.511 232.417 364.206 232.982C363.912 233.536 363.765 234.198 363.765 234.967C363.765 235.724 363.912 236.391 364.206 236.968C364.511 237.533 364.924 237.968 365.444 238.274C365.964 238.567 366.552 238.714 367.207 238.714C367.84 238.714 368.417 238.562 368.937 238.257C369.468 237.951 369.887 237.516 370.192 236.951C370.497 236.385 370.65 235.73 370.65 234.984ZM374.004 234.967C374.004 234.017 374.191 233.186 374.564 232.474C374.948 231.75 375.474 231.196 376.141 230.812C376.82 230.416 377.583 230.218 378.431 230.218C379.313 230.218 380.07 230.422 380.703 230.829C381.348 231.236 381.811 231.756 382.094 232.389V230.354H383.281V239.613H382.094V237.561C381.8 238.194 381.331 238.72 380.686 239.138C380.053 239.545 379.296 239.749 378.414 239.749C377.577 239.749 376.82 239.551 376.141 239.155C375.474 238.76 374.948 238.2 374.564 237.476C374.191 236.753 374.004 235.916 374.004 234.967ZM382.094 234.984C382.094 234.237 381.941 233.582 381.636 233.016C381.331 232.451 380.912 232.016 380.381 231.71C379.861 231.405 379.284 231.253 378.651 231.253C377.995 231.253 377.408 231.4 376.887 231.694C376.367 231.987 375.955 232.417 375.649 232.982C375.355 233.536 375.209 234.198 375.209 234.967C375.209 235.724 375.355 236.391 375.649 236.968C375.955 237.533 376.367 237.968 376.887 238.274C377.408 238.567 377.995 238.714 378.651 238.714C379.284 238.714 379.861 238.562 380.381 238.257C380.912 237.951 381.331 237.516 381.636 236.951C381.941 236.385 382.094 235.73 382.094 234.984ZM390.332 230.184C391.44 230.184 392.345 230.529 393.046 231.219C393.747 231.897 394.097 232.886 394.097 234.186V239.613H392.927V234.322C392.927 233.316 392.673 232.547 392.164 232.016C391.667 231.484 390.983 231.219 390.112 231.219C389.219 231.219 388.507 231.501 387.975 232.067C387.444 232.632 387.178 233.463 387.178 234.56V239.613H385.991V230.354H387.178V231.931C387.472 231.366 387.896 230.936 388.45 230.642C389.004 230.337 389.631 230.184 390.332 230.184ZM127.026 261.798H121.633L120.598 264.613H119.343L123.668 252.912H125.008L129.315 264.613H128.06L127.026 261.798ZM126.67 260.815L124.329 254.404L121.989 260.815H126.67ZM135.562 255.184C136.67 255.184 137.574 255.529 138.275 256.219C138.976 256.897 139.327 257.886 139.327 259.186V264.613H138.156V259.322C138.156 258.316 137.902 257.547 137.393 257.016C136.896 256.484 136.212 256.219 135.341 256.219C134.448 256.219 133.736 256.501 133.205 257.067C132.673 257.632 132.407 258.463 132.407 259.56V264.613H131.22V255.354H132.407V256.931C132.701 256.366 133.125 255.936 133.679 255.642C134.233 255.337 134.861 255.184 135.562 255.184ZM141.409 259.967C141.409 259.017 141.602 258.186 141.986 257.474C142.37 256.75 142.896 256.196 143.563 255.812C144.241 255.416 145.005 255.218 145.853 255.218C146.667 255.218 147.401 255.416 148.057 255.812C148.713 256.207 149.193 256.722 149.499 257.355V252.064H150.686V264.613H149.499V262.544C149.216 263.189 148.753 263.72 148.108 264.138C147.464 264.545 146.706 264.749 145.836 264.749C144.988 264.749 144.225 264.551 143.546 264.155C142.879 263.76 142.353 263.2 141.969 262.476C141.596 261.753 141.409 260.916 141.409 259.967ZM149.499 259.984C149.499 259.237 149.346 258.582 149.041 258.016C148.736 257.451 148.317 257.016 147.786 256.71C147.266 256.405 146.689 256.253 146.056 256.253C145.4 256.253 144.812 256.4 144.292 256.694C143.772 256.987 143.36 257.417 143.054 257.982C142.76 258.536 142.613 259.198 142.613 259.967C142.613 260.724 142.76 261.391 143.054 261.968C143.36 262.533 143.772 262.968 144.292 263.274C144.812 263.567 145.4 263.714 146.056 263.714C146.689 263.714 147.266 263.562 147.786 263.257C148.317 262.951 148.736 262.516 149.041 261.951C149.346 261.385 149.499 260.73 149.499 259.984ZM152.853 259.967C152.853 259.017 153.04 258.186 153.413 257.474C153.797 256.75 154.323 256.196 154.99 255.812C155.668 255.416 156.432 255.218 157.279 255.218C158.161 255.218 158.919 255.422 159.552 255.829C160.196 256.236 160.66 256.756 160.943 257.389V255.354H162.13V264.613H160.943V262.561C160.649 263.194 160.179 263.72 159.535 264.138C158.902 264.545 158.144 264.749 157.262 264.749C156.426 264.749 155.668 264.551 154.99 264.155C154.323 263.76 153.797 263.2 153.413 262.476C153.04 261.753 152.853 260.916 152.853 259.967ZM160.943 259.984C160.943 259.237 160.79 258.582 160.485 258.016C160.179 257.451 159.761 257.016 159.23 256.71C158.71 256.405 158.133 256.253 157.5 256.253C156.844 256.253 156.256 256.4 155.736 256.694C155.216 256.987 154.803 257.417 154.498 257.982C154.204 258.536 154.057 259.198 154.057 259.967C154.057 260.724 154.204 261.391 154.498 261.968C154.803 262.533 155.216 262.968 155.736 263.274C156.256 263.567 156.844 263.714 157.5 263.714C158.133 263.714 158.71 263.562 159.23 263.257C159.761 262.951 160.179 262.516 160.485 261.951C160.79 261.385 160.943 260.73 160.943 259.984ZM177.125 255.354L171.63 268.972H170.392L172.19 264.562L168.391 255.354H169.697L172.851 263.257L175.904 255.354H177.125ZM178.192 259.967C178.192 259.017 178.379 258.186 178.752 257.474C179.136 256.75 179.662 256.196 180.329 255.812C181.007 255.416 181.77 255.218 182.618 255.218C183.5 255.218 184.258 255.422 184.891 255.829C185.535 256.236 185.999 256.756 186.281 257.389V255.354H187.468V264.613H186.281V262.561C185.987 263.194 185.518 263.72 184.874 264.138C184.241 264.545 183.483 264.749 182.601 264.749C181.765 264.749 181.007 264.551 180.329 264.155C179.662 263.76 179.136 263.2 178.752 262.476C178.379 261.753 178.192 260.916 178.192 259.967ZM186.281 259.984C186.281 259.237 186.129 258.582 185.823 258.016C185.518 257.451 185.1 257.016 184.568 256.71C184.048 256.405 183.472 256.253 182.839 256.253C182.183 256.253 181.595 256.4 181.075 256.694C180.555 256.987 180.142 257.417 179.837 257.982C179.543 258.536 179.396 259.198 179.396 259.967C179.396 260.724 179.543 261.391 179.837 261.968C180.142 262.533 180.555 262.968 181.075 263.274C181.595 263.567 182.183 263.714 182.839 263.714C183.472 263.714 184.048 263.562 184.568 263.257C185.1 262.951 185.518 262.516 185.823 261.951C186.129 261.385 186.281 260.73 186.281 259.984ZM194.52 255.184C195.628 255.184 196.532 255.529 197.233 256.219C197.934 256.897 198.285 257.886 198.285 259.186V264.613H197.115V259.322C197.115 258.316 196.86 257.547 196.352 257.016C195.854 256.484 195.17 256.219 194.3 256.219C193.406 256.219 192.694 256.501 192.163 257.067C191.631 257.632 191.366 258.463 191.366 259.56V264.613H190.179V255.354H191.366V256.931C191.66 256.366 192.084 255.936 192.638 255.642C193.192 255.337 193.819 255.184 194.52 255.184ZM204.794 255.218C205.664 255.218 206.422 255.422 207.066 255.829C207.711 256.236 208.174 256.75 208.457 257.372V255.354H209.644V264.851C209.644 265.699 209.457 266.45 209.084 267.106C208.723 267.762 208.214 268.265 207.558 268.616C206.902 268.977 206.156 269.158 205.32 269.158C204.132 269.158 203.143 268.876 202.352 268.31C201.572 267.745 201.085 266.976 200.893 266.004H202.063C202.267 266.648 202.651 267.163 203.217 267.547C203.793 267.932 204.494 268.124 205.32 268.124C205.919 268.124 206.456 267.994 206.931 267.734C207.405 267.485 207.779 267.112 208.05 266.614C208.321 266.117 208.457 265.529 208.457 264.851V262.561C208.163 263.194 207.694 263.72 207.049 264.138C206.416 264.545 205.664 264.749 204.794 264.749C203.946 264.749 203.183 264.551 202.504 264.155C201.837 263.76 201.312 263.2 200.927 262.476C200.554 261.753 200.368 260.916 200.368 259.967C200.368 259.017 200.554 258.186 200.927 257.474C201.312 256.75 201.837 256.196 202.504 255.812C203.183 255.416 203.946 255.218 204.794 255.218ZM208.457 259.984C208.457 259.237 208.304 258.582 207.999 258.016C207.694 257.451 207.275 257.016 206.744 256.71C206.224 256.405 205.647 256.253 205.014 256.253C204.359 256.253 203.771 256.4 203.251 256.694C202.73 256.987 202.318 257.417 202.013 257.982C201.719 258.536 201.572 259.198 201.572 259.967C201.572 260.724 201.719 261.391 202.013 261.968C202.318 262.533 202.73 262.968 203.251 263.274C203.771 263.567 204.359 263.714 205.014 263.714C205.647 263.714 206.224 263.562 206.744 263.257C207.275 262.951 207.694 262.516 207.999 261.951C208.304 261.385 208.457 260.73 208.457 259.984ZM216.465 259.967C216.465 259.017 216.657 258.186 217.042 257.474C217.426 256.75 217.952 256.196 218.619 255.812C219.297 255.416 220.06 255.218 220.908 255.218C221.722 255.218 222.457 255.416 223.113 255.812C223.769 256.207 224.249 256.722 224.554 257.355V252.064H225.742V264.613H224.554V262.544C224.272 263.189 223.808 263.72 223.164 264.138C222.519 264.545 221.762 264.749 220.891 264.749C220.043 264.749 219.28 264.551 218.602 264.155C217.935 263.76 217.409 263.2 217.025 262.476C216.652 261.753 216.465 260.916 216.465 259.967ZM224.554 259.984C224.554 259.237 224.402 258.582 224.097 258.016C223.791 257.451 223.373 257.016 222.842 256.71C222.322 256.405 221.745 256.253 221.112 256.253C220.456 256.253 219.868 256.4 219.348 256.694C218.828 256.987 218.415 257.417 218.11 257.982C217.816 258.536 217.669 259.198 217.669 259.967C217.669 260.724 217.816 261.391 218.11 261.968C218.415 262.533 218.828 262.968 219.348 263.274C219.868 263.567 220.456 263.714 221.112 263.714C221.745 263.714 222.322 263.562 222.842 263.257C223.373 262.951 223.791 262.516 224.097 261.951C224.402 261.385 224.554 260.73 224.554 259.984ZM229.045 253.607C228.808 253.607 228.604 253.522 228.435 253.353C228.265 253.183 228.18 252.974 228.18 252.725C228.18 252.476 228.265 252.273 228.435 252.115C228.604 251.945 228.808 251.86 229.045 251.86C229.283 251.86 229.486 251.945 229.656 252.115C229.825 252.273 229.91 252.476 229.91 252.725C229.91 252.974 229.825 253.183 229.656 253.353C229.486 253.522 229.283 253.607 229.045 253.607ZM229.639 255.354V264.613H228.452V255.354H229.639ZM235.515 264.749C234.453 264.749 233.582 264.506 232.904 264.02C232.237 263.522 231.863 262.85 231.784 262.002H233.005C233.062 262.522 233.305 262.946 233.735 263.274C234.176 263.59 234.763 263.748 235.498 263.748C236.143 263.748 236.646 263.596 237.008 263.29C237.381 262.985 237.567 262.606 237.567 262.154C237.567 261.838 237.466 261.578 237.262 261.374C237.059 261.171 236.798 261.012 236.482 260.899C236.177 260.775 235.758 260.645 235.227 260.509C234.537 260.328 233.978 260.147 233.548 259.967C233.118 259.786 232.751 259.52 232.446 259.17C232.152 258.808 232.005 258.327 232.005 257.728C232.005 257.276 232.14 256.857 232.412 256.473C232.683 256.089 233.068 255.783 233.565 255.557C234.062 255.331 234.628 255.218 235.261 255.218C236.256 255.218 237.059 255.473 237.669 255.981C238.28 256.479 238.607 257.168 238.653 258.05H237.466C237.432 257.508 237.217 257.072 236.821 256.744C236.437 256.405 235.905 256.236 235.227 256.236C234.628 256.236 234.142 256.377 233.769 256.66C233.395 256.942 233.209 257.293 233.209 257.711C233.209 258.073 233.316 258.372 233.531 258.61C233.757 258.836 234.034 259.017 234.362 259.153C234.69 259.277 235.131 259.418 235.685 259.577C236.352 259.757 236.883 259.933 237.279 260.102C237.675 260.272 238.014 260.521 238.297 260.848C238.579 261.176 238.726 261.612 238.737 262.154C238.737 262.652 238.602 263.098 238.33 263.494C238.059 263.878 237.68 264.184 237.194 264.41C236.708 264.636 236.148 264.749 235.515 264.749ZM249.35 259.509C249.35 259.916 249.338 260.227 249.316 260.441H241.633C241.667 261.142 241.837 261.742 242.142 262.239C242.447 262.737 242.849 263.115 243.346 263.375C243.844 263.624 244.386 263.748 244.974 263.748C245.743 263.748 246.388 263.562 246.908 263.189C247.439 262.816 247.789 262.313 247.959 261.679H249.214C248.988 262.584 248.502 263.324 247.756 263.901C247.021 264.466 246.094 264.749 244.974 264.749C244.104 264.749 243.324 264.557 242.634 264.172C241.944 263.777 241.402 263.223 241.006 262.51C240.622 261.787 240.429 260.945 240.429 259.984C240.429 259.023 240.622 258.18 241.006 257.457C241.39 256.733 241.927 256.179 242.617 255.795C243.307 255.41 244.092 255.218 244.974 255.218C245.856 255.218 246.625 255.41 247.281 255.795C247.948 256.179 248.456 256.699 248.807 257.355C249.169 257.999 249.35 258.717 249.35 259.509ZM248.146 259.475C248.157 258.785 248.016 258.197 247.722 257.711C247.439 257.225 247.049 256.857 246.551 256.609C246.054 256.36 245.511 256.236 244.923 256.236C244.042 256.236 243.29 256.518 242.668 257.084C242.046 257.649 241.701 258.446 241.633 259.475H248.146ZM253.065 256.354V262.103C253.065 262.669 253.172 263.059 253.387 263.274C253.602 263.488 253.981 263.596 254.523 263.596H255.609V264.613H254.337C253.5 264.613 252.878 264.421 252.471 264.037C252.064 263.641 251.861 262.997 251.861 262.103V256.354H250.572V255.354H251.861V253.03H253.065V255.354H255.609V256.354H253.065ZM265.588 255.354V264.613H264.401V262.985C264.129 263.562 263.711 264.003 263.146 264.308C262.581 264.613 261.947 264.766 261.246 264.766C260.139 264.766 259.234 264.427 258.533 263.748C257.832 263.059 257.482 262.064 257.482 260.764V255.354H258.652V260.628C258.652 261.634 258.901 262.403 259.398 262.934C259.907 263.466 260.596 263.731 261.467 263.731C262.36 263.731 263.072 263.449 263.604 262.883C264.135 262.318 264.401 261.487 264.401 260.391V255.354H265.588ZM268.977 253.607C268.739 253.607 268.536 253.522 268.366 253.353C268.196 253.183 268.112 252.974 268.112 252.725C268.112 252.476 268.196 252.273 268.366 252.115C268.536 251.945 268.739 251.86 268.977 251.86C269.214 251.86 269.412 251.945 269.57 252.115C269.74 252.273 269.824 252.476 269.824 252.725C269.824 252.974 269.74 253.183 269.57 253.353C269.412 253.522 269.214 253.607 268.977 253.607ZM269.553 266.801C269.553 267.547 269.367 268.095 268.993 268.446C268.62 268.808 268.061 268.989 267.315 268.989H266.484V267.971H267.128C267.569 267.971 267.885 267.875 268.078 267.683C268.27 267.502 268.366 267.191 268.366 266.75V255.354H269.553V266.801ZM280.294 255.354V264.613H279.107V262.985C278.836 263.562 278.418 264.003 277.852 264.308C277.287 264.613 276.654 264.766 275.953 264.766C274.845 264.766 273.94 264.427 273.24 263.748C272.539 263.059 272.188 262.064 272.188 260.764V255.354H273.358V260.628C273.358 261.634 273.607 262.403 274.104 262.934C274.613 263.466 275.303 263.731 276.173 263.731C277.067 263.731 277.779 263.449 278.31 262.883C278.842 262.318 279.107 261.487 279.107 260.391V255.354H280.294ZM283.598 253.607C283.361 253.607 283.157 253.522 282.988 253.353C282.818 253.183 282.733 252.974 282.733 252.725C282.733 252.476 282.818 252.273 282.988 252.115C283.157 251.945 283.361 251.86 283.598 251.86C283.836 251.86 284.039 251.945 284.209 252.115C284.378 252.273 284.463 252.476 284.463 252.725C284.463 252.974 284.378 253.183 284.209 253.353C284.039 253.522 283.836 253.607 283.598 253.607ZM284.192 255.354V264.613H283.005V255.354H284.192ZM295.587 264.749C294.716 264.749 293.93 264.557 293.23 264.172C292.54 263.777 291.992 263.223 291.585 262.51C291.189 261.787 290.991 260.945 290.991 259.984C290.991 259.023 291.194 258.186 291.601 257.474C292.008 256.75 292.562 256.196 293.263 255.812C293.964 255.416 294.75 255.218 295.621 255.218C296.491 255.218 297.277 255.416 297.978 255.812C298.69 256.196 299.244 256.75 299.64 257.474C300.047 258.186 300.25 259.023 300.25 259.984C300.25 260.933 300.047 261.77 299.64 262.493C299.233 263.217 298.673 263.777 297.961 264.172C297.249 264.557 296.457 264.749 295.587 264.749ZM295.587 263.714C296.197 263.714 296.763 263.579 297.283 263.307C297.803 263.025 298.221 262.606 298.538 262.053C298.865 261.487 299.029 260.798 299.029 259.984C299.029 259.17 298.871 258.486 298.555 257.932C298.238 257.366 297.82 256.948 297.3 256.677C296.78 256.394 296.214 256.253 295.604 256.253C294.993 256.253 294.428 256.394 293.908 256.677C293.388 256.948 292.969 257.366 292.653 257.932C292.348 258.486 292.195 259.17 292.195 259.984C292.195 260.798 292.348 261.487 292.653 262.053C292.969 262.606 293.382 263.025 293.891 263.307C294.411 263.579 294.976 263.714 295.587 263.714ZM303.602 252.064V264.613H302.414V252.064H303.602ZM314.667 259.509C314.667 259.916 314.656 260.227 314.633 260.441H306.951C306.985 261.142 307.155 261.742 307.46 262.239C307.765 262.737 308.167 263.115 308.664 263.375C309.161 263.624 309.704 263.748 310.292 263.748C311.061 263.748 311.705 263.562 312.225 263.189C312.757 262.816 313.107 262.313 313.277 261.679H314.532C314.306 262.584 313.819 263.324 313.073 263.901C312.338 264.466 311.411 264.749 310.292 264.749C309.421 264.749 308.641 264.557 307.952 264.172C307.262 263.777 306.719 263.223 306.324 262.51C305.939 261.787 305.747 260.945 305.747 259.984C305.747 259.023 305.939 258.18 306.324 257.457C306.708 256.733 307.245 256.179 307.935 255.795C308.624 255.41 309.41 255.218 310.292 255.218C311.174 255.218 311.943 255.41 312.598 255.795C313.265 256.179 313.774 256.699 314.125 257.355C314.486 257.999 314.667 258.717 314.667 259.509ZM313.463 259.475C313.475 258.785 313.333 258.197 313.039 257.711C312.757 257.225 312.367 256.857 311.869 256.609C311.372 256.36 310.829 256.236 310.241 256.236C309.359 256.236 308.607 256.518 307.986 257.084C307.364 257.649 307.019 258.446 306.951 259.475H313.463ZM321.249 255.184C321.95 255.184 322.577 255.331 323.131 255.625C323.696 255.919 324.137 256.371 324.454 256.982C324.782 257.581 324.946 258.316 324.946 259.186V264.613H323.775V259.322C323.775 258.316 323.521 257.547 323.012 257.016C322.515 256.484 321.831 256.219 320.96 256.219C320.067 256.219 319.355 256.501 318.823 257.067C318.292 257.632 318.026 258.463 318.026 259.56V264.613H316.839V252.064H318.026V256.931C318.32 256.377 318.75 255.947 319.315 255.642C319.892 255.337 320.536 255.184 321.249 255.184ZM331.682 259.967C331.682 259.017 331.874 258.186 332.259 257.474C332.643 256.75 333.169 256.196 333.836 255.812C334.514 255.416 335.277 255.218 336.125 255.218C336.939 255.218 337.674 255.416 338.33 255.812C338.986 256.207 339.466 256.722 339.771 257.355V252.064H340.959V264.613H339.771V262.544C339.489 263.189 339.025 263.72 338.381 264.138C337.736 264.545 336.979 264.749 336.108 264.749C335.26 264.749 334.497 264.551 333.819 264.155C333.152 263.76 332.626 263.2 332.242 262.476C331.869 261.753 331.682 260.916 331.682 259.967ZM339.771 259.984C339.771 259.237 339.619 258.582 339.314 258.016C339.008 257.451 338.59 257.016 338.059 256.71C337.538 256.405 336.962 256.253 336.329 256.253C335.673 256.253 335.085 256.4 334.565 256.694C334.045 256.987 333.632 257.417 333.327 257.982C333.033 258.536 332.886 259.198 332.886 259.967C332.886 260.724 333.033 261.391 333.327 261.968C333.632 262.533 334.045 262.968 334.565 263.274C335.085 263.567 335.673 263.714 336.329 263.714C336.962 263.714 337.538 263.562 338.059 263.257C338.59 262.951 339.008 262.516 339.314 261.951C339.619 261.385 339.771 260.73 339.771 259.984ZM347.722 264.749C346.851 264.749 346.065 264.557 345.364 264.172C344.675 263.777 344.126 263.223 343.719 262.51C343.324 261.787 343.126 260.945 343.126 259.984C343.126 259.023 343.329 258.186 343.736 257.474C344.143 256.75 344.697 256.196 345.398 255.812C346.099 255.416 346.885 255.218 347.756 255.218C348.626 255.218 349.412 255.416 350.113 255.812C350.825 256.196 351.379 256.75 351.775 257.474C352.182 258.186 352.385 259.023 352.385 259.984C352.385 260.933 352.182 261.77 351.775 262.493C351.368 263.217 350.808 263.777 350.096 264.172C349.384 264.557 348.592 264.749 347.722 264.749ZM347.722 263.714C348.332 263.714 348.898 263.579 349.418 263.307C349.938 263.025 350.356 262.606 350.673 262.053C351 261.487 351.164 260.798 351.164 259.984C351.164 259.17 351.006 258.486 350.69 257.932C350.373 257.366 349.955 256.948 349.435 256.677C348.915 256.394 348.349 256.253 347.739 256.253C347.128 256.253 346.563 256.394 346.043 256.677C345.523 256.948 345.104 257.366 344.788 257.932C344.483 258.486 344.33 259.17 344.33 259.984C344.33 260.798 344.483 261.487 344.788 262.053C345.104 262.606 345.517 263.025 346.026 263.307C346.546 263.579 347.111 263.714 347.722 263.714ZM357.738 264.749C356.675 264.749 355.804 264.506 355.126 264.02C354.459 263.522 354.086 262.85 354.007 262.002H355.228C355.284 262.522 355.527 262.946 355.957 263.274C356.398 263.59 356.986 263.748 357.721 263.748C358.365 263.748 358.868 263.596 359.23 263.29C359.603 262.985 359.79 262.606 359.79 262.154C359.79 261.838 359.688 261.578 359.484 261.374C359.281 261.171 359.021 261.012 358.704 260.899C358.399 260.775 357.981 260.645 357.449 260.509C356.76 260.328 356.2 260.147 355.77 259.967C355.341 259.786 354.973 259.52 354.668 259.17C354.374 258.808 354.227 258.327 354.227 257.728C354.227 257.276 354.363 256.857 354.634 256.473C354.905 256.089 355.29 255.783 355.787 255.557C356.285 255.331 356.85 255.218 357.483 255.218C358.478 255.218 359.281 255.473 359.891 255.981C360.502 256.479 360.83 257.168 360.875 258.05H359.688C359.654 257.508 359.439 257.072 359.043 256.744C358.659 256.405 358.128 256.236 357.449 256.236C356.85 256.236 356.364 256.377 355.991 256.66C355.618 256.942 355.431 257.293 355.431 257.711C355.431 258.073 355.539 258.372 355.753 258.61C355.98 258.836 356.257 259.017 356.584 259.153C356.912 259.277 357.353 259.418 357.907 259.577C358.574 259.757 359.106 259.933 359.501 260.102C359.897 260.272 360.236 260.521 360.519 260.848C360.801 261.176 360.948 261.612 360.96 262.154C360.96 262.652 360.824 263.098 360.553 263.494C360.281 263.878 359.903 264.184 359.417 264.41C358.93 264.636 358.371 264.749 357.738 264.749ZM371.572 259.509C371.572 259.916 371.561 260.227 371.538 260.441H363.856C363.89 261.142 364.059 261.742 364.365 262.239C364.67 262.737 365.071 263.115 365.569 263.375C366.066 263.624 366.609 263.748 367.197 263.748C367.965 263.748 368.61 263.562 369.13 263.189C369.661 262.816 370.012 262.313 370.181 261.679H371.436C371.21 262.584 370.724 263.324 369.978 263.901C369.243 264.466 368.316 264.749 367.197 264.749C366.326 264.749 365.546 264.557 364.856 264.172C364.167 263.777 363.624 263.223 363.228 262.51C362.844 261.787 362.652 260.945 362.652 259.984C362.652 259.023 362.844 258.18 363.228 257.457C363.613 256.733 364.15 256.179 364.839 255.795C365.529 255.41 366.315 255.218 367.197 255.218C368.078 255.218 368.847 255.41 369.503 255.795C370.17 256.179 370.679 256.699 371.029 257.355C371.391 257.999 371.572 258.717 371.572 259.509ZM370.368 259.475C370.379 258.785 370.238 258.197 369.944 257.711C369.661 257.225 369.271 256.857 368.774 256.609C368.276 256.36 367.734 256.236 367.146 256.236C366.264 256.236 365.512 256.518 364.89 257.084C364.268 257.649 363.924 258.446 363.856 259.475H370.368ZM378.085 255.184C379.193 255.184 380.098 255.529 380.799 256.219C381.5 256.897 381.85 257.886 381.85 259.186V264.613H380.68V259.322C380.68 258.316 380.426 257.547 379.917 257.016C379.419 256.484 378.735 256.219 377.865 256.219C376.972 256.219 376.259 256.501 375.728 257.067C375.197 257.632 374.931 258.463 374.931 259.56V264.613H373.744V255.354H374.931V256.931C375.225 256.366 375.649 255.936 376.203 255.642C376.757 255.337 377.384 255.184 378.085 255.184ZM384.679 264.698C384.43 264.698 384.221 264.613 384.052 264.444C383.893 264.274 383.814 264.065 383.814 263.816C383.814 263.567 383.893 263.364 384.052 263.206C384.221 263.036 384.43 262.951 384.679 262.951C384.917 262.951 385.114 263.036 385.273 263.206C385.442 263.364 385.527 263.567 385.527 263.816C385.527 264.065 385.442 264.274 385.273 264.444C385.114 264.613 384.917 264.698 384.679 264.698Z" fill="black" fill-opacity="0.6"/>
<path d="M223.03 209L217.861 202.671V209H215.012V194.795H217.861V201.165L223.03 194.795H226.47L220.609 201.837L226.632 209H223.03ZM233.513 209.183C232.427 209.183 231.451 208.946 230.582 208.471C229.714 207.982 229.029 207.297 228.527 206.415C228.038 205.534 227.794 204.516 227.794 203.363C227.794 202.21 228.045 201.192 228.547 200.31C229.063 199.428 229.761 198.75 230.643 198.275C231.525 197.787 232.509 197.543 233.594 197.543C234.679 197.543 235.663 197.787 236.545 198.275C237.427 198.75 238.119 199.428 238.621 200.31C239.136 201.192 239.394 202.21 239.394 203.363C239.394 204.516 239.129 205.534 238.6 206.415C238.085 207.297 237.379 207.982 236.484 208.471C235.602 208.946 234.612 209.183 233.513 209.183ZM233.513 206.7C234.028 206.7 234.51 206.578 234.958 206.334C235.419 206.076 235.785 205.696 236.057 205.194C236.328 204.692 236.464 204.082 236.464 203.363C236.464 202.291 236.179 201.47 235.609 200.9C235.053 200.317 234.367 200.025 233.553 200.025C232.739 200.025 232.054 200.317 231.498 200.9C230.955 201.47 230.684 202.291 230.684 203.363C230.684 204.435 230.949 205.262 231.478 205.846C232.02 206.415 232.699 206.7 233.513 206.7ZM245.798 209.183C244.876 209.183 244.048 209.02 243.315 208.695C242.583 208.356 241.999 207.901 241.565 207.331C241.145 206.761 240.914 206.131 240.873 205.439H243.743C243.797 205.873 244.007 206.232 244.374 206.517C244.754 206.802 245.222 206.945 245.778 206.945C246.321 206.945 246.741 206.836 247.04 206.619C247.352 206.402 247.508 206.124 247.508 205.785C247.508 205.418 247.318 205.147 246.938 204.971C246.572 204.781 245.981 204.577 245.167 204.36C244.326 204.157 243.634 203.946 243.092 203.729C242.562 203.512 242.101 203.18 241.708 202.732C241.328 202.284 241.138 201.681 241.138 200.921C241.138 200.297 241.314 199.727 241.667 199.211C242.033 198.696 242.549 198.289 243.214 197.99C243.892 197.692 244.686 197.543 245.595 197.543C246.938 197.543 248.01 197.882 248.81 198.56C249.611 199.225 250.051 200.127 250.133 201.267H247.406C247.365 200.819 247.175 200.466 246.836 200.209C246.51 199.937 246.07 199.802 245.513 199.802C244.998 199.802 244.598 199.897 244.313 200.086C244.041 200.276 243.906 200.541 243.906 200.88C243.906 201.26 244.096 201.552 244.475 201.755C244.855 201.945 245.445 202.142 246.246 202.345C247.06 202.549 247.732 202.759 248.261 202.976C248.79 203.193 249.244 203.532 249.624 203.994C250.018 204.441 250.221 205.038 250.235 205.785C250.235 206.436 250.051 207.019 249.685 207.535C249.332 208.05 248.817 208.457 248.139 208.756C247.474 209.041 246.694 209.183 245.798 209.183ZM257.58 209.183C256.494 209.183 255.517 208.946 254.649 208.471C253.781 207.982 253.096 207.297 252.594 206.415C252.105 205.534 251.861 204.516 251.861 203.363C251.861 202.21 252.112 201.192 252.614 200.31C253.13 199.428 253.828 198.75 254.71 198.275C255.592 197.787 256.576 197.543 257.661 197.543C258.746 197.543 259.73 197.787 260.612 198.275C261.494 198.75 262.186 199.428 262.688 200.31C263.203 201.192 263.461 202.21 263.461 203.363C263.461 204.516 263.196 205.534 262.667 206.415C262.152 207.297 261.446 207.982 260.551 208.471C259.669 208.946 258.679 209.183 257.58 209.183ZM257.58 206.7C258.095 206.7 258.577 206.578 259.024 206.334C259.486 206.076 259.852 205.696 260.123 205.194C260.395 204.692 260.53 204.082 260.53 203.363C260.53 202.291 260.246 201.47 259.676 200.9C259.119 200.317 258.434 200.025 257.62 200.025C256.806 200.025 256.121 200.317 255.565 200.9C255.022 201.47 254.751 202.291 254.751 203.363C254.751 204.435 255.015 205.262 255.545 205.846C256.087 206.415 256.766 206.7 257.58 206.7ZM271.798 197.563C273.142 197.563 274.227 197.99 275.054 198.845C275.882 199.686 276.296 200.867 276.296 202.386V209H273.447V202.773C273.447 201.877 273.223 201.192 272.775 200.717C272.328 200.229 271.717 199.985 270.944 199.985C270.157 199.985 269.533 200.229 269.071 200.717C268.624 201.192 268.4 201.877 268.4 202.773V209H265.551V197.726H268.4V199.13C268.78 198.642 269.261 198.262 269.845 197.99C270.442 197.705 271.093 197.563 271.798 197.563ZM283.421 197.543C284.262 197.543 285.002 197.712 285.639 198.051C286.277 198.377 286.779 198.804 287.145 199.334V197.726H290.015V209.081C290.015 210.126 289.805 211.055 289.384 211.869C288.963 212.697 288.333 213.348 287.491 213.823C286.65 214.311 285.633 214.556 284.439 214.556C282.838 214.556 281.522 214.183 280.491 213.436C279.473 212.69 278.897 211.673 278.761 210.384H281.59C281.739 210.899 282.058 211.306 282.546 211.605C283.048 211.917 283.652 212.073 284.357 212.073C285.185 212.073 285.857 211.822 286.372 211.32C286.888 210.832 287.145 210.085 287.145 209.081V207.331C286.779 207.86 286.27 208.301 285.619 208.654C284.981 209.007 284.249 209.183 283.421 209.183C282.472 209.183 281.603 208.939 280.816 208.451C280.029 207.962 279.405 207.277 278.944 206.395C278.496 205.5 278.273 204.475 278.273 203.322C278.273 202.183 278.496 201.172 278.944 200.29C279.405 199.408 280.023 198.73 280.796 198.255C281.583 197.78 282.458 197.543 283.421 197.543ZM287.145 203.363C287.145 202.671 287.01 202.081 286.738 201.592C286.467 201.09 286.101 200.711 285.639 200.453C285.178 200.181 284.683 200.046 284.154 200.046C283.625 200.046 283.136 200.175 282.689 200.432C282.241 200.69 281.875 201.07 281.59 201.572C281.318 202.06 281.183 202.644 281.183 203.322C281.183 204.001 281.318 204.598 281.59 205.113C281.875 205.615 282.241 206.002 282.689 206.273C283.15 206.544 283.638 206.68 284.154 206.68C284.683 206.68 285.178 206.551 285.639 206.293C286.101 206.022 286.467 205.642 286.738 205.154C287.01 204.652 287.145 204.055 287.145 203.363Z" fill="black" fill-opacity="0.6"/>
<g clip-path="url(#clip0_398_2131)">
<path d="M232.634 172.184C227.078 172.184 221.531 172.098 215.992 171.926C208.077 171.68 199.893 171.426 192.286 167.776C186.965 165.222 182.252 161.126 178.657 155.929C176.286 152.474 174.52 148.643 173.434 144.6C172.903 142.654 172.518 140.673 172.281 138.67C171.633 133.262 172.092 127.778 173.63 122.551C174.377 120.05 175.395 117.637 176.665 115.355C182.213 105.416 192.331 98.7449 204.425 97.0513C204.525 97.0401 204.626 97.0382 204.726 97.0457C204.781 97.0482 204.835 97.0509 204.89 97.0489L204.961 97.0294C205.145 96.9743 205.332 96.9327 205.522 96.905C224.174 94.5026 243.893 99.3635 262.544 110.962C276.965 119.931 296.077 124.76 320.972 125.727L321.326 125.743C328.256 126.087 334.96 128.559 340.713 132.891C346.334 137.091 350.616 142.821 353.042 149.39C353.336 150.185 353.605 151.012 353.842 151.849C354.291 153.431 353.771 155.03 352.413 156.247V156.248L352.351 156.303C352.202 156.432 352.045 156.555 351.884 156.669L351.695 156.804C350.104 157.938 348.848 158.834 347.344 159.529C346.329 159.994 345.264 160.342 344.169 160.566C338.103 161.846 331.942 163.032 325.858 164.093C314.043 166.154 301.917 167.854 289.816 169.146C270.823 171.171 251.735 172.185 232.634 172.184ZM204.585 97.3977C204.548 97.3974 204.511 97.3996 204.474 97.4042C192.493 99.082 182.47 105.688 176.978 115.528C175.72 117.787 174.712 120.176 173.973 122.653C172.449 127.834 171.994 133.268 172.636 138.629C172.871 140.613 173.253 142.578 173.779 144.506C174.854 148.511 176.603 152.305 178.952 155.727C182.511 160.873 187.176 164.928 192.442 167.454C199.98 171.072 208.126 171.325 216.003 171.569C240.629 172.331 265.279 171.403 289.778 168.792C301.871 167.5 313.989 165.801 325.796 163.742C331.876 162.682 338.033 161.497 344.095 160.218C345.163 159.999 346.203 159.66 347.193 159.206C348.667 158.525 349.912 157.637 351.487 156.514L351.676 156.38C351.814 156.281 351.95 156.176 352.079 156.066L352.116 156.032C353.411 154.903 353.915 153.414 353.498 151.945C353.263 151.118 352.997 150.299 352.707 149.513C347.829 136.199 335.211 126.789 321.309 126.098L320.957 126.082C309.585 125.641 299.634 124.418 290.536 122.344C279.675 119.867 270.194 116.139 262.355 111.264C243.774 99.7101 224.138 94.8673 205.567 97.2583C205.394 97.284 205.224 97.3223 205.057 97.3728L204.928 97.4038C204.855 97.4077 204.782 97.4048 204.71 97.4015C204.667 97.3996 204.625 97.3977 204.585 97.3977Z" fill="#F0F0F0"/>
<path d="M352.234 156.167V156.169C352.09 156.294 351.938 156.413 351.78 156.525C349.155 158.397 347.362 159.71 344.132 160.392C338.053 161.675 331.951 162.85 325.828 163.917C313.881 166.002 301.871 167.685 289.797 168.969C265.291 171.587 240.632 172.515 215.998 171.748C207.794 171.493 199.882 171.222 192.364 167.615C186.869 164.979 182.252 160.813 178.805 155.829C175.309 150.775 173.183 144.795 172.459 138.65C174.161 137.91 175.97 137.441 177.818 137.261C184.234 136.651 190.548 138.992 196.382 141.716C202.219 144.437 207.95 147.619 214.269 148.875C223.581 150.725 233.194 148.208 242.122 144.986C251.05 141.764 259.839 137.784 269.255 136.568C281.885 134.934 294.557 138.392 306.82 141.815C319.882 145.462 332.945 149.108 346.008 152.756C347.875 153.276 349.812 153.834 351.267 155.109C351.628 155.425 351.952 155.78 352.234 156.167Z" fill="#ABAEAE"/>
<path d="M352.235 156.167V156.169C352.09 156.293 351.938 156.413 351.781 156.525C350.136 157.697 348.818 158.652 347.27 159.368C341.946 159.89 336.616 160.341 331.278 160.723C317.54 161.705 303.775 162.227 289.984 162.289C262.005 162.432 232.589 163.304 208.092 149.767C199.94 145.262 188.133 154.499 180.057 149.56C177.73 148.131 175.567 146.452 173.608 144.553C173.079 142.616 172.695 140.643 172.46 138.65C171.811 133.265 172.268 127.805 173.803 122.602C174.545 120.113 175.558 117.712 176.823 115.441C180.574 116.783 184.172 118.714 187.596 120.759C193.876 124.505 199.982 128.758 206.976 130.903C217.284 134.065 228.437 132.326 238.897 129.711C249.358 127.096 259.748 123.612 270.529 123.318C284.988 122.925 298.905 128.288 312.364 133.566C325.866 138.862 339.37 144.157 352.875 149.451C353.172 150.255 353.437 151.07 353.671 151.897C354.148 153.579 353.456 155.102 352.235 156.167Z" fill="#F2F2F2"/>
<path d="M220.587 87.7836C218.553 86.418 218.752 83.4299 220.903 82.2555C220.946 82.2316 220.989 82.2069 221.031 82.1814C221.139 81.6672 221.247 81.153 221.355 80.6388C221.989 81.2952 223.237 81.1713 223.728 80.4031C222.014 76.759 219.758 73.3925 217.039 70.4163C216.446 69.7643 216.113 68.9186 216.104 68.039C216.094 67.1594 216.408 66.3067 216.987 65.6421C216.997 65.63 217.008 65.6179 217.018 65.6056C218.554 65.0889 220.008 64.3574 221.337 63.4329C216.779 56.1379 208.088 50.3425 206.022 42C199.807 48.6486 199.109 50.9901 192.894 57.6387C192.894 57.6387 187.01 62.9286 185.739 65.7714C186.051 66.098 188.846 66.8817 188.953 67.5238C191.084 67.694 194.776 65.3673 194.776 65.3673C194.776 65.3673 186.718 73.9247 184.272 79.1957C184.051 79.6704 183.842 80.2124 184.027 80.7019C184.174 81.0928 184.703 81.3181 185.043 81.1628C184.636 81.5535 184.31 82.0193 184.082 82.5342C184.791 82.9858 185.633 83.1857 186.471 83.1016C187.31 83.0175 188.095 82.6544 188.7 82.0708C188.359 82.705 188.018 83.3392 187.678 83.9733L187.678 83.9748C188.139 84.1247 188.552 84.3916 188.877 84.7492C189.202 85.1068 189.428 85.5427 189.532 86.0138C189.636 86.485 189.615 86.975 189.471 87.4356C189.327 87.8962 189.065 88.3114 188.71 88.6401C186.596 90.5991 184.664 92.6583 183.956 94.0144C183.29 95.2901 190.128 96.8279 191.666 96.7649C193.204 96.7018 194.642 96.0285 196.031 95.3678C195.964 95.9988 196.085 96.6357 196.38 97.1982C197.14 97.3822 197.93 97.4128 198.703 97.2883C199.476 97.1639 200.216 96.8868 200.88 96.4735C200.819 97.7354 202.417 98.4323 203.526 98.0749C202.972 106.801 203.377 119.055 203.909 131.776H205.229V98.578C205.58 98.7553 205.956 98.8797 206.344 98.9472C209.044 99.4247 212.303 99.715 214.06 97.6173C216.083 99.6488 219.789 99.6102 221.799 97.5858C221.602 97.9351 221.904 98.5228 222.353 98.6154C222.881 98.7246 223.394 98.412 223.843 98.1135C225.872 96.7619 227.901 95.4103 229.931 94.0586C227.426 92.3768 223.869 89.9877 220.587 87.7836Z" fill="#ABAEAE"/>
<path d="M281.506 83.7223C285.025 83.7223 287.879 80.88 287.879 77.3739C287.879 73.8677 285.025 71.0254 281.506 71.0254C277.986 71.0254 275.133 73.8677 275.133 77.3739C275.133 80.88 277.986 83.7223 281.506 83.7223Z" fill="#F2F2F2"/>
<path d="M295.771 74.3678C295.403 73.1379 294.361 72.335 293.103 72.1588C293.089 72.1569 293.076 72.1594 293.062 72.1586C293.045 72.1531 293.026 72.149 293.008 72.1461C291.226 71.9297 289.422 72.3207 287.891 73.2556C286.416 74.173 284.698 74.5879 282.96 74.6553C282.95 74.6557 282.939 74.6561 282.929 74.6566C282.283 74.6995 281.666 74.9396 281.162 75.3443C280.658 75.7489 280.292 76.2985 280.113 76.9181C280.094 76.9939 280.099 77.0739 280.129 77.1463C280.158 77.2187 280.21 77.2798 280.277 77.3209C280.47 77.4834 280.698 77.5987 280.943 77.6575C281.472 77.7692 282.003 77.8716 282.536 77.9645C283.577 78.1458 284.622 78.2924 285.673 78.4043C287.807 78.6321 289.953 78.7129 292.098 78.6462C292.812 78.624 293.501 78.6004 294.155 78.2864C294.632 78.0521 295.038 77.6985 295.336 77.2603C295.616 76.8391 295.8 76.3619 295.875 75.8622C295.951 75.3625 295.915 74.8524 295.771 74.3678Z" fill="#ABAEAE"/>
<path d="M282.529 82.8327C282.161 81.6027 281.119 80.7998 279.861 80.6237C279.847 80.6217 279.834 80.6243 279.82 80.6234C279.802 80.618 279.784 80.6138 279.766 80.6109C277.983 80.3945 276.18 80.7856 274.649 81.7205C273.174 82.6378 271.455 83.0528 269.718 83.1201C269.707 83.1205 269.697 83.121 269.687 83.1215C269.041 83.1644 268.424 83.4045 267.92 83.8091C267.416 84.2138 267.05 84.7633 266.87 85.3829C266.851 85.4588 266.857 85.5387 266.887 85.6111C266.916 85.6835 266.968 85.7447 267.035 85.7857C267.227 85.9482 267.456 86.0635 267.701 86.1224C268.23 86.2341 268.761 86.3364 269.294 86.4294C270.334 86.6107 271.38 86.7573 272.431 86.8692C274.564 87.0969 276.711 87.1777 278.856 87.1111C279.57 87.0889 280.259 87.0653 280.913 86.7512C281.389 86.517 281.796 86.1634 282.094 85.7252C282.374 85.304 282.558 84.8267 282.633 84.327C282.709 83.8273 282.673 83.3172 282.529 82.8327Z" fill="#ABAEAE"/>
<path d="M336.458 109.336C334.424 107.971 334.623 104.983 336.774 103.808C336.818 103.784 336.86 103.76 336.902 103.734C337.01 103.22 337.118 102.706 337.226 102.192C337.86 102.848 339.108 102.724 339.6 101.956C337.885 98.3117 335.63 94.9452 332.91 91.969C332.317 91.317 331.984 90.4714 331.975 89.5917C331.965 88.7121 332.279 87.8594 332.858 87.1948C332.868 87.1828 332.879 87.1706 332.889 87.1583C334.425 86.6416 335.879 85.9101 337.208 84.9857C332.65 77.6907 323.959 71.8953 321.893 63.5527C315.678 70.2013 314.98 72.5429 308.765 79.1914C308.765 79.1914 302.881 84.4813 301.61 87.3242C301.923 87.6508 304.717 88.4345 304.824 89.0766C306.955 89.2467 310.647 86.9201 310.647 86.9201C310.647 86.9201 302.589 95.4775 300.143 100.748C299.922 101.223 299.713 101.765 299.898 102.255C300.045 102.645 300.574 102.871 300.914 102.716C300.507 103.106 300.181 103.572 299.953 104.087C300.663 104.539 301.505 104.738 302.343 104.654C303.181 104.57 303.966 104.207 304.571 103.624C304.23 104.258 303.889 104.892 303.549 105.526L303.549 105.528C304.01 105.677 304.423 105.944 304.748 106.302C305.073 106.66 305.299 107.095 305.403 107.567C305.507 108.038 305.486 108.528 305.342 108.988C305.198 109.449 304.936 109.864 304.581 110.193C302.467 112.152 300.535 114.211 299.827 115.567C299.161 116.843 305.999 118.381 307.537 118.318C309.075 118.255 310.513 117.581 311.902 116.921C311.835 117.552 311.956 118.188 312.251 118.751C313.011 118.935 313.801 118.966 314.574 118.841C315.347 118.717 316.087 118.44 316.751 118.026C316.69 119.288 318.288 119.985 319.397 119.628C318.843 128.354 319.248 140.608 319.78 153.329H321.1V120.131C321.451 120.308 321.827 120.432 322.215 120.5C324.915 120.977 328.174 121.268 329.931 119.17C331.954 121.202 335.66 121.163 337.671 119.139C337.473 119.488 337.776 120.076 338.224 120.168C338.752 120.277 339.265 119.965 339.714 119.666C341.743 118.315 343.772 116.963 345.802 115.611C343.298 113.93 339.74 111.54 336.458 109.336Z" fill="#ABAEAE"/>
<path d="M183.26 143.18C183.392 143.186 183.523 143.151 183.635 143.081C183.747 143.01 183.834 142.907 183.885 142.785C183.936 142.663 183.949 142.529 183.921 142.4C183.892 142.271 183.825 142.154 183.728 142.064C183.712 142 183.7 141.953 183.684 141.889C183.689 141.875 183.695 141.861 183.701 141.847C183.834 141.533 184.058 141.266 184.343 141.078C184.629 140.89 184.963 140.791 185.305 140.792C185.647 140.793 185.981 140.895 186.265 141.085C186.549 141.275 186.771 141.544 186.902 141.859C187.425 143.114 188.092 144.372 188.256 145.7C188.328 146.287 188.297 146.882 188.166 147.459C189.395 144.787 190.033 141.884 190.037 138.945C190.038 138.207 189.997 137.47 189.914 136.737C189.846 136.136 189.752 135.54 189.631 134.948C188.972 131.734 187.557 128.722 185.503 126.158C184.509 125.618 183.704 124.787 183.199 123.777C183.016 123.414 182.886 123.027 182.814 122.627C182.927 122.641 183.041 122.65 183.153 122.658C183.188 122.66 183.225 122.661 183.259 122.663L183.273 122.664C183.396 122.669 183.518 122.639 183.625 122.577C183.731 122.515 183.817 122.424 183.873 122.314C183.928 122.204 183.951 122.081 183.938 121.958C183.925 121.836 183.876 121.72 183.798 121.625C183.75 121.566 183.701 121.506 183.653 121.447C183.579 121.355 183.504 121.266 183.43 121.174C183.422 121.165 183.414 121.156 183.407 121.147C183.322 121.042 183.237 120.94 183.153 120.835C183.307 120.596 183.515 120.396 183.76 120.251C184.607 119.756 185.777 120.099 186.389 120.863C187.003 121.626 187.119 122.698 186.906 123.653C186.696 124.465 186.349 125.235 185.88 125.931C185.926 125.99 185.974 126.047 186.02 126.105C186.86 127.182 187.592 128.338 188.206 129.557C188.057 128.191 188.235 126.81 188.726 125.526C189.224 124.33 190.157 123.323 190.979 122.289C191.965 121.047 193.989 121.589 194.163 123.163C194.164 123.179 194.166 123.194 194.168 123.209C194.046 123.278 193.926 123.351 193.809 123.428C193.662 123.525 193.549 123.665 193.483 123.828C193.417 123.991 193.402 124.171 193.44 124.342C193.479 124.514 193.568 124.67 193.697 124.791C193.826 124.911 193.988 124.989 194.163 125.016L194.18 125.019C194.137 125.457 194.06 125.891 193.951 126.318C193.633 127.508 193.072 128.621 192.303 129.586C191.534 130.55 190.573 131.346 189.48 131.923C189.409 131.96 189.339 131.996 189.267 132.031C189.596 132.955 189.859 133.901 190.054 134.861C190.228 135.709 190.35 136.566 190.418 137.428C190.501 138.514 190.497 139.605 190.403 140.69L190.409 140.652C190.644 139.445 191.291 138.356 192.239 137.569C193.647 136.417 195.636 135.992 197.155 135.066C197.316 134.963 197.504 134.908 197.696 134.907C197.888 134.907 198.076 134.961 198.238 135.064C198.4 135.166 198.529 135.313 198.61 135.486C198.691 135.659 198.721 135.852 198.696 136.041C198.693 136.054 198.691 136.068 198.689 136.081C198.463 136.173 198.242 136.279 198.029 136.398C197.907 136.467 197.788 136.54 197.671 136.617C197.524 136.714 197.41 136.854 197.344 137.017C197.279 137.18 197.264 137.36 197.302 137.531C197.34 137.703 197.43 137.859 197.558 137.98C197.687 138.1 197.85 138.179 198.024 138.205L198.042 138.208C198.055 138.21 198.066 138.212 198.079 138.214C197.692 139.134 197.149 139.981 196.473 140.718C195.639 141.61 194.631 142.322 193.51 142.812C192.39 143.302 191.18 143.559 189.957 143.566H189.955C189.623 145.004 189.141 146.404 188.519 147.743H183.388C183.37 147.686 183.353 147.627 183.337 147.571C183.812 147.6 184.288 147.572 184.756 147.486C184.376 147.021 183.995 146.552 183.614 146.087C183.606 146.078 183.598 146.069 183.59 146.059C183.397 145.821 183.202 145.585 183.009 145.347L183.009 145.347C182.999 144.617 183.083 143.888 183.259 143.18L183.26 143.18Z" fill="#ABAEAE"/>
<path d="M336.144 148.168C336.277 148.174 336.408 148.139 336.52 148.069C336.632 147.998 336.719 147.895 336.77 147.773C336.821 147.652 336.834 147.517 336.805 147.388C336.777 147.259 336.71 147.142 336.613 147.052C336.596 146.988 336.585 146.942 336.568 146.877C336.574 146.863 336.58 146.849 336.586 146.835C336.719 146.521 336.943 146.254 337.228 146.066C337.513 145.879 337.848 145.779 338.19 145.78C338.532 145.782 338.866 145.884 339.15 146.073C339.434 146.263 339.655 146.532 339.786 146.847C340.31 148.103 340.976 149.361 341.14 150.689C341.213 151.276 341.182 151.871 341.05 152.447C342.28 149.776 342.918 146.872 342.922 143.933C342.923 143.195 342.881 142.458 342.799 141.726C342.731 141.125 342.637 140.528 342.516 139.936C341.857 136.722 340.442 133.71 338.388 131.147C337.393 130.606 336.589 129.775 336.084 128.765C335.9 128.402 335.771 128.015 335.699 127.615C335.811 127.63 335.925 127.639 336.038 127.646C336.073 127.648 336.109 127.65 336.144 127.652L336.157 127.652C336.281 127.658 336.403 127.628 336.509 127.565C336.616 127.503 336.702 127.412 336.758 127.302C336.813 127.192 336.836 127.069 336.823 126.947C336.809 126.825 336.761 126.709 336.683 126.613C336.635 126.554 336.586 126.495 336.538 126.435C336.464 126.344 336.389 126.254 336.315 126.162C336.307 126.154 336.299 126.144 336.291 126.135C336.207 126.03 336.122 125.928 336.038 125.823C336.192 125.585 336.4 125.385 336.644 125.239C337.492 124.744 338.662 125.087 339.274 125.851C339.888 126.615 340.004 127.686 339.791 128.641C339.581 129.453 339.234 130.223 338.765 130.92C338.811 130.978 338.858 131.035 338.904 131.094C339.745 132.17 340.477 133.326 341.091 134.545C340.942 133.179 341.12 131.798 341.611 130.515C342.109 129.319 343.042 128.311 343.863 127.277C344.85 126.035 346.874 126.577 347.047 128.152C347.049 128.167 347.051 128.182 347.052 128.197C346.93 128.266 346.811 128.339 346.694 128.416C346.547 128.514 346.433 128.653 346.368 128.816C346.302 128.98 346.287 129.159 346.325 129.331C346.363 129.502 346.453 129.659 346.582 129.779C346.711 129.899 346.873 129.978 347.047 130.005L347.065 130.007C347.022 130.445 346.945 130.88 346.835 131.306C346.518 132.497 345.957 133.609 345.188 134.574C344.419 135.538 343.458 136.334 342.365 136.911C342.293 136.948 342.223 136.985 342.152 137.02C342.769 138.761 343.156 140.575 343.303 142.416C343.386 143.502 343.381 144.593 343.288 145.679L343.294 145.64C343.529 144.433 344.175 143.344 345.123 142.557C346.531 141.405 348.521 140.981 350.04 140.054C350.201 139.951 350.389 139.896 350.581 139.896C350.773 139.895 350.961 139.949 351.122 140.052C351.284 140.154 351.414 140.301 351.495 140.474C351.576 140.647 351.606 140.84 351.58 141.029C351.578 141.043 351.576 141.056 351.574 141.07C351.348 141.162 351.127 141.267 350.914 141.387C350.792 141.455 350.672 141.528 350.556 141.605C350.409 141.703 350.295 141.842 350.229 142.006C350.163 142.169 350.149 142.348 350.187 142.52C350.225 142.691 350.314 142.848 350.443 142.968C350.572 143.088 350.734 143.167 350.909 143.194L350.927 143.196C350.94 143.198 350.951 143.2 350.964 143.202C350.577 144.122 350.034 144.969 349.358 145.706C348.524 146.598 347.516 147.311 346.395 147.8C345.274 148.29 344.065 148.547 342.841 148.555H342.839C342.507 149.993 342.026 151.392 341.403 152.731H336.273C336.255 152.674 336.238 152.616 336.221 152.559C336.696 152.589 337.173 152.56 337.641 152.475C337.26 152.009 336.88 151.54 336.499 151.075C336.491 151.066 336.483 151.057 336.475 151.048C336.282 150.81 336.087 150.573 335.894 150.335L335.894 150.335C335.884 149.605 335.968 148.877 336.144 148.168Z" fill="#ABAEAE"/>
<path d="M275.172 133.383C275.304 133.389 275.435 133.354 275.547 133.284C275.659 133.213 275.746 133.11 275.797 132.988C275.849 132.866 275.861 132.732 275.833 132.603C275.805 132.474 275.737 132.357 275.64 132.267C275.624 132.203 275.612 132.156 275.596 132.092C275.602 132.078 275.607 132.064 275.613 132.05C275.747 131.736 275.97 131.469 276.255 131.281C276.541 131.093 276.876 130.994 277.217 130.995C277.559 130.997 277.893 131.098 278.177 131.288C278.461 131.478 278.683 131.747 278.814 132.062C279.337 133.318 280.004 134.576 280.168 135.904C280.24 136.49 280.21 137.085 280.078 137.662C281.307 134.99 281.945 132.087 281.95 129.148C281.95 128.41 281.909 127.673 281.826 126.94C281.758 126.34 281.664 125.743 281.543 125.151C280.884 121.937 279.469 118.925 277.415 116.362C276.421 115.821 275.616 114.99 275.111 113.98C274.928 113.617 274.798 113.23 274.727 112.83C274.839 112.844 274.953 112.854 275.065 112.861C275.1 112.863 275.137 112.865 275.172 112.866L275.185 112.867C275.308 112.873 275.43 112.842 275.537 112.78C275.643 112.718 275.729 112.627 275.785 112.517C275.841 112.407 275.863 112.284 275.85 112.162C275.837 112.039 275.788 111.924 275.71 111.828C275.662 111.769 275.614 111.709 275.565 111.65C275.492 111.559 275.416 111.469 275.343 111.377C275.334 111.368 275.326 111.359 275.319 111.35C275.234 111.245 275.15 111.143 275.065 111.038C275.219 110.8 275.427 110.6 275.672 110.454C276.519 109.959 277.689 110.302 278.301 111.066C278.915 111.83 279.031 112.901 278.818 113.856C278.608 114.668 278.261 115.438 277.792 116.134C277.838 116.193 277.886 116.25 277.932 116.308C278.772 117.385 279.505 118.541 280.119 119.76C279.969 118.394 280.147 117.013 280.639 115.73C281.136 114.533 282.069 113.526 282.891 112.492C283.877 111.25 285.901 111.792 286.075 113.367C286.076 113.382 286.078 113.397 286.08 113.412C285.958 113.481 285.838 113.554 285.721 113.631C285.575 113.728 285.461 113.868 285.395 114.031C285.329 114.194 285.314 114.374 285.353 114.545C285.391 114.717 285.48 114.873 285.609 114.994C285.738 115.114 285.9 115.193 286.075 115.219L286.093 115.222C286.049 115.66 285.972 116.094 285.863 116.521C285.545 117.712 284.984 118.824 284.215 119.789C283.446 120.753 282.485 121.549 281.392 122.126C281.321 122.163 281.251 122.2 281.179 122.234C281.796 123.976 282.183 125.79 282.33 127.631C282.414 128.717 282.409 129.808 282.316 130.893L282.321 130.855C282.556 129.648 283.203 128.559 284.151 127.772C285.559 126.62 287.548 126.195 289.067 125.269C289.228 125.166 289.416 125.111 289.608 125.111C289.8 125.11 289.988 125.164 290.15 125.267C290.312 125.369 290.441 125.516 290.522 125.689C290.603 125.862 290.633 126.055 290.608 126.244C290.606 126.258 290.604 126.271 290.601 126.285C290.375 126.376 290.154 126.482 289.941 126.601C289.819 126.67 289.7 126.743 289.583 126.82C289.436 126.918 289.322 127.057 289.257 127.22C289.191 127.384 289.176 127.563 289.214 127.735C289.252 127.906 289.342 128.063 289.471 128.183C289.599 128.303 289.762 128.382 289.936 128.409L289.954 128.411C289.967 128.413 289.978 128.415 289.991 128.417C289.604 129.337 289.061 130.184 288.386 130.921C287.551 131.813 286.543 132.525 285.422 133.015C284.302 133.505 283.092 133.762 281.869 133.769H281.867C281.535 135.207 281.053 136.607 280.431 137.946H275.3C275.282 137.889 275.265 137.831 275.249 137.774C275.724 137.804 276.2 137.775 276.668 137.69C276.288 137.224 275.907 136.755 275.526 136.29C275.518 136.281 275.51 136.272 275.503 136.263C275.309 136.024 275.115 135.788 274.921 135.55L274.921 135.55C274.911 134.82 274.995 134.091 275.172 133.383L275.172 133.383Z" fill="#ABAEAE"/>
<path d="M242.571 172.22L244.718 171.584L243.298 162.842L240.129 163.78L242.571 172.22Z" fill="#FFB6B6"/>
<path d="M229.402 168.769C229.533 168.883 229.664 168.995 229.796 169.107C230.06 169.331 230.327 169.553 230.594 169.772C230.728 169.881 230.864 169.991 230.999 170.099L230.998 170.103L231.007 170.106L231.009 170.108L231.226 170.199L231.686 169.398L231.898 169.028L232.197 168.505L232.746 167.549L235.636 162.511L232.592 161.232L232.396 161.697L232.395 161.697L232.298 161.927L230.48 166.224L230.109 167.103L230.097 167.129L229.874 167.654L229.682 168.108L229.467 168.616L229.402 168.769Z" fill="#FFB6B6"/>
<path d="M213.498 146.967C213.648 147.32 213.802 147.672 213.958 148.022C214.249 148.672 214.55 149.316 214.864 149.952C214.864 149.953 214.865 149.954 214.866 149.955C215.068 150.21 215.298 150.441 215.554 150.643C215.564 150.654 215.576 150.662 215.587 150.671C215.775 150.817 215.981 150.939 216.199 151.035C216.278 151.069 216.358 151.102 216.437 151.136C216.722 151.253 217.006 151.359 217.289 151.457C217.793 151.631 218.297 151.778 218.8 151.899C218.84 151.91 218.881 151.919 218.921 151.929C220.994 152.413 223.076 152.489 225.272 152.42C226.356 152.388 227.468 152.319 228.62 152.248C228.996 152.224 229.374 152.201 229.756 152.179C229.785 152.178 229.816 152.175 229.846 152.174C230.392 152.142 230.947 152.112 231.514 152.087C232.229 152.054 232.964 152.029 233.727 152.017L233.509 153.049C233.337 153.843 233.045 154.607 232.641 155.312C232.177 156.185 231.811 156.876 232.098 158.479L232.236 159.256C232.046 159.6 231.938 159.984 231.922 160.377C231.906 160.77 231.981 161.162 232.142 161.521L232.181 161.606L229.202 166.631L229.009 166.957L230.098 167.129L231.437 167.342L233.708 167.7L238.026 161.669L238.232 161.381L238.235 161.365L239.897 148.728C239.91 148.616 239.919 148.503 239.922 148.389C239.943 147.875 239.86 147.363 239.68 146.881C239.499 146.399 239.224 145.958 238.87 145.583C238.532 145.221 238.125 144.93 237.672 144.727C237.22 144.523 236.731 144.411 236.235 144.398L235.091 144.365L232.753 144.299L231.105 144.253L231.072 144.252L226.215 144.114L226.094 142.673L226.035 142.64L224.147 141.592L217.619 137.968L217.602 137.959L217.172 137.721L217.104 137.8C217.084 137.824 217.064 137.847 217.045 137.871C216.466 138.605 215.964 139.395 215.547 140.231C214.852 141.593 214.236 142.994 213.7 144.426C213.677 144.488 213.656 144.544 213.637 144.595L213.631 144.611C213.622 144.635 213.617 144.65 213.615 144.655C213.349 145.292 213.332 146.119 213.498 146.967Z" fill="#2F2E41"/>
<path d="M213.943 142.282C213.98 142.192 214.023 142.101 214.067 142.014C214.41 141.354 214.79 140.713 215.205 140.095C215.671 139.39 216.215 138.642 216.849 137.839C217.156 137.45 217.484 137.048 217.832 136.63C218.007 136.421 218.187 136.209 218.374 135.993C218.381 135.983 218.389 135.973 218.398 135.964L218.452 135.9L225.164 137.897L225.161 138.812L225.647 140.109L225.614 140.148C225.616 140.148 225.616 140.146 225.614 140.148V139.97L225.793 140.148L227.524 142.278L227.536 142.278L231.403 142.387L235.388 142.499L237.529 142.56C238.025 142.574 238.514 142.685 238.966 142.889C239.418 143.092 239.826 143.384 240.164 143.745C240.518 144.12 240.793 144.561 240.973 145.043C241.154 145.525 241.236 146.038 241.216 146.552C241.213 146.656 241.205 146.763 241.193 146.867L242.429 151.851C243.169 154.832 243.453 157.907 243.272 160.972L243.989 165.823L243.779 165.809L240.658 165.609L239.834 165.556L238.459 162.673C238.302 162.345 238.157 162.009 238.027 161.668C237.811 161.111 237.631 160.54 237.488 159.96L235.078 150.179C234.771 150.183 234.467 150.185 234.166 150.185C232.775 150.19 231.445 150.163 230.176 150.105C226.048 149.916 222.53 149.397 219.464 148.521C218.603 148.276 217.776 148.002 216.984 147.699C216.694 147.588 216.408 147.474 216.127 147.355C216.061 147.328 215.996 147.301 215.931 147.273C215.35 147.022 214.841 146.63 214.452 146.132C214.062 145.634 213.804 145.047 213.702 144.425C213.576 143.702 213.659 142.958 213.943 142.282Z" fill="#2F2E41"/>
<path d="M242.149 170.762L244.472 170.072L244.836 169.963L245.167 171.371L248.812 172.795C248.992 172.865 249.145 172.991 249.248 173.154C249.351 173.317 249.4 173.509 249.386 173.701C249.372 173.893 249.297 174.076 249.171 174.223C249.046 174.37 248.877 174.473 248.688 174.517L244.76 175.434L243.756 174.199L243.819 175.654L242.339 176L241.584 170.93L242.149 170.762Z" fill="#2F2E41"/>
<path d="M229.201 166.631L229.008 166.957L229.146 166.978L229.201 166.631Z" fill="#2F2E41"/>
<path d="M229.887 167.171L232.025 168.309L232.361 168.487L231.601 169.719L233.185 173.286C233.263 173.462 233.283 173.659 233.241 173.847C233.2 174.035 233.099 174.205 232.953 174.332C232.807 174.459 232.625 174.536 232.432 174.553C232.239 174.569 232.046 174.523 231.881 174.422L228.442 172.321L228.6 170.74L227.618 171.818L226.322 171.026L229.366 166.895L229.887 167.171Z" fill="#2F2E41"/>
<path d="M245.339 102.302C245.36 102.538 245.328 102.776 245.246 102.998C245.165 103.221 245.035 103.423 244.867 103.59C244.698 103.757 244.495 103.886 244.271 103.966C244.048 104.047 243.809 104.078 243.572 104.056L241.194 109.306L239.588 106.777L242.093 102.179C242.155 101.785 242.36 101.427 242.669 101.174C242.979 100.92 243.37 100.789 243.771 100.804C244.171 100.819 244.551 100.98 244.841 101.256C245.13 101.532 245.307 101.904 245.339 102.302Z" fill="#FFB6B6"/>
<path d="M239.29 117.92L228.393 126.225C227.529 126.883 226.438 127.172 225.36 127.029C224.282 126.886 223.305 126.323 222.643 125.463C222.277 124.987 222.021 124.436 221.893 123.85C221.765 123.264 221.768 122.657 221.901 122.072C222.035 121.487 222.297 120.939 222.667 120.466C223.037 119.993 223.508 119.607 224.045 119.336L234.908 113.846L239.768 104.414L243.031 105.38L239.29 117.92Z" fill="#3EBCD2"/>
<path d="M216.083 127.788L215.862 135.847C212.822 140.964 212.476 143.448 213.318 144.773L225.819 140.224L226.029 139.723L226.682 136.122L227.866 132.407C228.074 132.018 230.903 129.633 228.251 125.109L222.916 117.949L218.641 117.705C217.936 119.507 219.207 120.49 217.938 120.906C215.066 123.527 215.488 123.954 216.083 127.788Z" fill="#3EBCD2"/>
<path d="M207.582 150.412C207.485 150.196 207.437 149.961 207.442 149.724C207.446 149.487 207.502 149.254 207.607 149.041C207.711 148.828 207.861 148.64 208.046 148.492C208.231 148.343 208.447 148.236 208.677 148.179L209.205 142.443L211.552 144.312L210.691 149.472C210.761 149.865 210.685 150.27 210.475 150.61C210.266 150.95 209.939 151.202 209.556 151.318C209.173 151.434 208.76 151.405 208.396 151.238C208.033 151.072 207.743 150.778 207.582 150.412Z" fill="#FFB6B6"/>
<path d="M208.182 133.683L215.759 122.289C216.361 121.386 217.297 120.758 218.363 120.543C219.429 120.327 220.537 120.542 221.444 121.139C221.946 121.47 222.369 121.907 222.682 122.42C222.995 122.932 223.191 123.507 223.256 124.103C223.322 124.699 223.254 125.303 223.059 125.87C222.864 126.437 222.546 126.955 222.127 127.386L213.659 136.109L212.156 146.604L208.756 146.752L208.182 133.683Z" fill="#3EBCD2"/>
<path d="M224.239 107.926C225.751 110.894 224.763 114.332 221.958 116.139C218.925 118.094 214.987 117.666 213.714 113.867C212.295 109.637 213.46 107.822 215.994 105.654C218.964 103.113 222.606 104.719 224.239 107.926Z" fill="#2F2E41"/>
<path d="M216.799 114.538C217.568 115.543 218.707 116.202 219.964 116.371C221.221 116.54 222.493 116.205 223.503 115.439C224.512 114.674 225.175 113.541 225.345 112.289C225.516 111.037 225.181 109.768 224.414 108.762L224.372 108.708C223.589 107.73 222.45 107.099 221.203 106.95C219.956 106.801 218.701 107.146 217.707 107.911C216.713 108.676 216.061 109.8 215.892 111.039C215.722 112.279 216.048 113.535 216.8 114.538L216.799 114.538Z" fill="#FFB6B6"/>
<path d="M225.705 107.447C224.927 108.184 223.979 108.719 222.944 109.005C222.737 108.766 222.491 108.563 222.217 108.404C222.348 108.676 222.438 108.966 222.484 109.265C222.023 110.219 220.138 110.904 218.337 111.605L215.951 107.411L219.109 105.629C221.646 103.881 224.633 104.627 225.705 107.447Z" fill="#2F2E41"/>
<path d="M214.152 105.66C213.722 105.462 213.166 105.584 212.762 105.862C212.377 106.153 212.066 106.53 211.854 106.962C211.468 107.661 211.19 108.414 211.031 109.196C210.895 109.873 210.918 110.691 211.527 111.044C212.036 111.338 212.762 111.153 213.23 110.76C213.697 110.366 213.96 109.814 214.188 109.274C214.416 108.735 214.632 108.175 215.037 107.727L214.616 107.923C214.749 107.521 214.811 107.098 214.799 106.675C214.79 106.464 214.725 106.259 214.611 106.081C214.498 105.903 214.339 105.758 214.152 105.66Z" fill="#2F2E41"/>
<path d="M219.613 106.209L216.226 108.121C215.31 108.638 214.637 109.497 214.357 110.508C214.076 111.519 214.21 112.599 214.729 113.512C215.485 114.841 216.711 115.841 218.168 116.317C219.625 116.794 221.208 116.712 222.608 116.088L219.512 113.365L223.712 115.497L224.608 114.991C220.105 114.175 219.236 110.655 219.613 106.209Z" fill="#2F2E41"/>
</g>
<defs>
<filter id="filter0_d_398_2131" x="0" y="0" width="511" height="329" filterUnits="userSpaceOnUse" color-interpolation-filters="sRGB">
<feFlood flood-opacity="0" result="BackgroundImageFix"/>
<feColorMatrix in="SourceAlpha" type="matrix" values="0 0 0 0 0 0 0 0 0 0 0 0 0 0 0 0 0 0 127 0" result="hardAlpha"/>
<feOffset dy="8"/>
<feGaussianBlur stdDeviation="12"/>
<feComposite in2="hardAlpha" operator="out"/>
<feColorMatrix type="matrix" values="0 0 0 0 0 0 0 0 0 0 0 0 0 0 0 0 0 0 0.15 0"/>
<feBlend mode="normal" in2="BackgroundImageFix" result="effect1_dropShadow_398_2131"/>
<feBlend mode="normal" in="SourceGraphic" in2="effect1_dropShadow_398_2131" result="shape"/>
</filter>
<clipPath id="clip0_398_2131">
<rect width="182" height="134" fill="white" transform="translate(172 42)"/>
</clipPath>
</defs>
</svg>
