<svg width="511" height="329" viewBox="0 0 511 329" fill="none" xmlns="http://www.w3.org/2000/svg">
<g filter="url(#filter0_d_398_2131)">
<rect x="25.5" y="17.5" width="460" height="278" rx="21.215" stroke="black" stroke-opacity="0.29" stroke-width="3" stroke-dasharray="9 9" shape-rendering="crispEdges"/>
</g>
<path d="M117.395 231.168C117.395 232.185 117.062 233.005 116.395 233.627C115.728 234.249 114.727 234.56 113.393 234.56H111.002V239.613H109.815V227.759H113.393C114.716 227.759 115.711 228.07 116.378 228.692C117.056 229.314 117.395 230.139 117.395 231.168ZM113.393 233.542C115.247 233.542 116.174 232.751 116.174 231.168C116.174 230.376 115.954 229.777 115.513 229.37C115.072 228.963 114.365 228.76 113.393 228.76H111.002V233.542H113.393ZM118.845 234.967C118.845 234.017 119.031 233.186 119.404 232.474C119.789 231.75 120.314 231.196 120.981 230.812C121.66 230.416 122.423 230.218 123.271 230.218C124.153 230.218 124.91 230.422 125.543 230.829C126.188 231.236 126.651 231.756 126.934 232.389V230.354H128.121V239.613H126.934V237.561C126.64 238.194 126.171 238.72 125.526 239.138C124.893 239.545 124.136 239.749 123.254 239.749C122.417 239.749 121.66 239.551 120.981 239.155C120.314 238.76 119.789 238.2 119.404 237.476C119.031 236.753 118.845 235.916 118.845 234.967ZM126.934 234.984C126.934 234.237 126.781 233.582 126.476 233.016C126.171 232.451 125.752 232.016 125.221 231.71C124.701 231.405 124.124 231.253 123.491 231.253C122.836 231.253 122.248 231.4 121.728 231.694C121.208 231.987 120.795 232.417 120.49 232.982C120.196 233.536 120.049 234.198 120.049 234.967C120.049 235.724 120.196 236.391 120.49 236.968C120.795 237.533 121.208 237.968 121.728 238.274C122.248 238.567 122.836 238.714 123.491 238.714C124.124 238.714 124.701 238.562 125.221 238.257C125.752 237.951 126.171 237.516 126.476 236.951C126.781 236.385 126.934 235.73 126.934 234.984ZM134.019 239.749C132.957 239.749 132.086 239.506 131.408 239.02C130.741 238.522 130.368 237.85 130.288 237.002H131.509C131.566 237.522 131.809 237.946 132.239 238.274C132.68 238.59 133.268 238.748 134.002 238.748C134.647 238.748 135.15 238.596 135.512 238.29C135.885 237.985 136.071 237.606 136.071 237.154C136.071 236.838 135.97 236.578 135.766 236.374C135.563 236.171 135.303 236.012 134.986 235.899C134.681 235.775 134.262 235.645 133.731 235.509C133.041 235.328 132.482 235.147 132.052 234.967C131.623 234.786 131.255 234.52 130.95 234.17C130.656 233.808 130.509 233.327 130.509 232.728C130.509 232.276 130.645 231.857 130.916 231.473C131.187 231.089 131.572 230.783 132.069 230.557C132.567 230.331 133.132 230.218 133.765 230.218C134.76 230.218 135.563 230.473 136.173 230.981C136.784 231.479 137.112 232.168 137.157 233.05H135.97C135.936 232.508 135.721 232.072 135.325 231.744C134.941 231.405 134.409 231.236 133.731 231.236C133.132 231.236 132.646 231.377 132.273 231.66C131.9 231.942 131.713 232.293 131.713 232.711C131.713 233.073 131.82 233.372 132.035 233.61C132.261 233.836 132.538 234.017 132.866 234.153C133.194 234.277 133.635 234.418 134.189 234.577C134.856 234.757 135.387 234.933 135.783 235.102C136.179 235.272 136.518 235.521 136.801 235.848C137.083 236.176 137.23 236.612 137.242 237.154C137.242 237.652 137.106 238.098 136.835 238.494C136.563 238.878 136.184 239.184 135.698 239.41C135.212 239.636 134.653 239.749 134.019 239.749ZM141.019 231.354V237.103C141.019 237.669 141.127 238.059 141.342 238.274C141.556 238.488 141.935 238.596 142.478 238.596H143.563V239.613H142.291C141.455 239.613 140.833 239.421 140.426 239.037C140.019 238.641 139.815 237.997 139.815 237.103V231.354H138.526V230.354H139.815V228.03H141.019V230.354H143.563V231.354H141.019ZM146.115 228.607C145.877 228.607 145.674 228.522 145.504 228.353C145.334 228.183 145.25 227.974 145.25 227.725C145.25 227.476 145.334 227.273 145.504 227.115C145.674 226.945 145.877 226.86 146.115 226.86C146.352 226.86 146.555 226.945 146.725 227.115C146.895 227.273 146.979 227.476 146.979 227.725C146.979 227.974 146.895 228.183 146.725 228.353C146.555 228.522 146.352 228.607 146.115 228.607ZM146.708 230.354V239.613H145.521V230.354H146.708ZM154.399 239.613L150.583 235.458V239.613H149.396V227.064H150.583V234.492L154.314 230.354H155.976L151.584 234.967L156.01 239.613H154.399ZM157.002 234.967C157.002 234.017 157.188 233.186 157.561 232.474C157.946 231.75 158.472 231.196 159.139 230.812C159.817 230.416 160.58 230.218 161.428 230.218C162.31 230.218 163.067 230.422 163.701 230.829C164.345 231.236 164.809 231.756 165.091 232.389V230.354H166.278V239.613H165.091V237.561C164.797 238.194 164.328 238.72 163.684 239.138C163.05 239.545 162.293 239.749 161.411 239.749C160.574 239.749 159.817 239.551 159.139 239.155C158.472 238.76 157.946 238.2 157.561 237.476C157.188 236.753 157.002 235.916 157.002 234.967ZM165.091 234.984C165.091 234.237 164.939 233.582 164.633 233.016C164.328 232.451 163.91 232.016 163.378 231.71C162.858 231.405 162.282 231.253 161.649 231.253C160.993 231.253 160.405 231.4 159.885 231.694C159.365 231.987 158.952 232.417 158.647 232.982C158.353 233.536 158.206 234.198 158.206 234.967C158.206 235.724 158.353 236.391 158.647 236.968C158.952 237.533 159.365 237.968 159.885 238.274C160.405 238.567 160.993 238.714 161.649 238.714C162.282 238.714 162.858 238.562 163.378 238.257C163.91 237.951 164.328 237.516 164.633 236.951C164.939 236.385 165.091 235.73 165.091 234.984ZM173.33 230.184C174.438 230.184 175.342 230.529 176.043 231.219C176.744 231.897 177.095 232.886 177.095 234.186V239.613H175.924V234.322C175.924 233.316 175.67 232.547 175.161 232.016C174.664 231.484 173.98 231.219 173.109 231.219C172.216 231.219 171.504 231.501 170.973 232.067C170.441 232.632 170.175 233.463 170.175 234.56V239.613H168.988V230.354H170.175V231.931C170.469 231.366 170.893 230.936 171.447 230.642C172.001 230.337 172.629 230.184 173.33 230.184ZM191.242 236.798H185.849L184.815 239.613H183.56L187.884 227.912H189.224L193.532 239.613H192.277L191.242 236.798ZM190.886 235.815L188.546 229.404L186.205 235.815H190.886ZM199.778 230.184C200.886 230.184 201.791 230.529 202.492 231.219C203.193 231.897 203.543 232.886 203.543 234.186V239.613H202.373V234.322C202.373 233.316 202.118 232.547 201.61 232.016C201.112 231.484 200.428 231.219 199.558 231.219C198.665 231.219 197.952 231.501 197.421 232.067C196.89 232.632 196.624 233.463 196.624 234.56V239.613H195.437V230.354H196.624V231.931C196.918 231.366 197.342 230.936 197.896 230.642C198.45 230.337 199.077 230.184 199.778 230.184ZM205.626 234.967C205.626 234.017 205.818 233.186 206.202 232.474C206.587 231.75 207.112 231.196 207.78 230.812C208.458 230.416 209.221 230.218 210.069 230.218C210.883 230.218 211.618 230.416 212.274 230.812C212.929 231.207 213.41 231.722 213.715 232.355V227.064H214.902V239.613H213.715V237.544C213.432 238.189 212.969 238.72 212.324 239.138C211.68 239.545 210.923 239.749 210.052 239.749C209.204 239.749 208.441 239.551 207.763 239.155C207.096 238.76 206.57 238.2 206.185 237.476C205.812 236.753 205.626 235.916 205.626 234.967ZM213.715 234.984C213.715 234.237 213.562 233.582 213.257 233.016C212.952 232.451 212.534 232.016 212.002 231.71C211.482 231.405 210.906 231.253 210.272 231.253C209.617 231.253 209.029 231.4 208.509 231.694C207.989 231.987 207.576 232.417 207.271 232.982C206.977 233.536 206.83 234.198 206.83 234.967C206.83 235.724 206.977 236.391 207.271 236.968C207.576 237.533 207.989 237.968 208.509 238.274C209.029 238.567 209.617 238.714 210.272 238.714C210.906 238.714 211.482 238.562 212.002 238.257C212.534 237.951 212.952 237.516 213.257 236.951C213.562 236.385 213.715 235.73 213.715 234.984ZM217.07 234.967C217.07 234.017 217.256 233.186 217.629 232.474C218.014 231.75 218.539 231.196 219.206 230.812C219.885 230.416 220.648 230.218 221.496 230.218C222.378 230.218 223.135 230.422 223.768 230.829C224.413 231.236 224.876 231.756 225.159 232.389V230.354H226.346V239.613H225.159V237.561C224.865 238.194 224.396 238.72 223.751 239.138C223.118 239.545 222.361 239.749 221.479 239.749C220.642 239.749 219.885 239.551 219.206 239.155C218.539 238.76 218.014 238.2 217.629 237.476C217.256 236.753 217.07 235.916 217.07 234.967ZM225.159 234.984C225.159 234.237 225.006 233.582 224.701 233.016C224.396 232.451 223.978 232.016 223.446 231.71C222.926 231.405 222.349 231.253 221.716 231.253C221.061 231.253 220.473 231.4 219.953 231.694C219.433 231.987 219.02 232.417 218.715 232.982C218.421 233.536 218.274 234.198 218.274 234.967C218.274 235.724 218.421 236.391 218.715 236.968C219.02 237.533 219.433 237.968 219.953 238.274C220.473 238.567 221.061 238.714 221.716 238.714C222.349 238.714 222.926 238.562 223.446 238.257C223.978 237.951 224.396 237.516 224.701 236.951C225.006 236.385 225.159 235.73 225.159 234.984ZM236.898 239.749C235.835 239.749 234.965 239.506 234.286 239.02C233.619 238.522 233.246 237.85 233.167 237.002H234.388C234.445 237.522 234.688 237.946 235.117 238.274C235.558 238.59 236.146 238.748 236.881 238.748C237.526 238.748 238.029 238.596 238.39 238.29C238.764 237.985 238.95 237.606 238.95 237.154C238.95 236.838 238.848 236.578 238.645 236.374C238.441 236.171 238.181 236.012 237.865 235.899C237.56 235.775 237.141 235.645 236.61 235.509C235.92 235.328 235.361 235.147 234.931 234.967C234.501 234.786 234.134 234.52 233.829 234.17C233.535 233.808 233.388 233.327 233.388 232.728C233.388 232.276 233.523 231.857 233.795 231.473C234.066 231.089 234.45 230.783 234.948 230.557C235.445 230.331 236.011 230.218 236.644 230.218C237.639 230.218 238.441 230.473 239.052 230.981C239.662 231.479 239.99 232.168 240.035 233.05H238.848C238.814 232.508 238.6 232.072 238.204 231.744C237.82 231.405 237.288 231.236 236.61 231.236C236.011 231.236 235.524 231.377 235.151 231.66C234.778 231.942 234.592 232.293 234.592 232.711C234.592 233.073 234.699 233.372 234.914 233.61C235.14 233.836 235.417 234.017 235.745 234.153C236.073 234.277 236.514 234.418 237.068 234.577C237.735 234.757 238.266 234.933 238.662 235.102C239.058 235.272 239.397 235.521 239.679 235.848C239.962 236.176 240.109 236.612 240.12 237.154C240.12 237.652 239.985 238.098 239.713 238.494C239.442 238.878 239.063 239.184 238.577 239.41C238.091 239.636 237.531 239.749 236.898 239.749ZM250.376 230.354V239.613H249.189V237.985C248.918 238.562 248.5 239.003 247.934 239.308C247.369 239.613 246.736 239.766 246.035 239.766C244.927 239.766 244.022 239.427 243.322 238.748C242.621 238.059 242.27 237.064 242.27 235.764V230.354H243.44V235.628C243.44 236.634 243.689 237.403 244.186 237.934C244.695 238.466 245.385 238.731 246.255 238.731C247.149 238.731 247.861 238.449 248.392 237.883C248.924 237.318 249.189 236.487 249.189 235.391V230.354H250.376ZM252.544 234.967C252.544 234.017 252.736 233.186 253.121 232.474C253.505 231.75 254.031 231.196 254.698 230.812C255.376 230.416 256.139 230.218 256.987 230.218C257.801 230.218 258.536 230.416 259.192 230.812C259.847 231.207 260.328 231.722 260.633 232.355V227.064H261.82V239.613H260.633V237.544C260.351 238.189 259.887 238.72 259.243 239.138C258.598 239.545 257.841 239.749 256.97 239.749C256.122 239.749 255.359 239.551 254.681 239.155C254.014 238.76 253.488 238.2 253.104 237.476C252.73 236.753 252.544 235.916 252.544 234.967ZM260.633 234.984C260.633 234.237 260.481 233.582 260.175 233.016C259.87 232.451 259.452 232.016 258.92 231.71C258.4 231.405 257.824 231.253 257.191 231.253C256.535 231.253 255.947 231.4 255.427 231.694C254.907 231.987 254.494 232.417 254.189 232.982C253.895 233.536 253.748 234.198 253.748 234.967C253.748 235.724 253.895 236.391 254.189 236.968C254.494 237.533 254.907 237.968 255.427 238.274C255.947 238.567 256.535 238.714 257.191 238.714C257.824 238.714 258.4 238.562 258.92 238.257C259.452 237.951 259.87 237.516 260.175 236.951C260.481 236.385 260.633 235.73 260.633 234.984ZM263.988 234.967C263.988 234.017 264.174 233.186 264.547 232.474C264.932 231.75 265.458 231.196 266.125 230.812C266.803 230.416 267.566 230.218 268.414 230.218C269.296 230.218 270.053 230.422 270.686 230.829C271.331 231.236 271.794 231.756 272.077 232.389V230.354H273.264V239.613H272.077V237.561C271.783 238.194 271.314 238.72 270.67 239.138C270.036 239.545 269.279 239.749 268.397 239.749C267.56 239.749 266.803 239.551 266.125 239.155C265.458 238.76 264.932 238.2 264.547 237.476C264.174 236.753 263.988 235.916 263.988 234.967ZM272.077 234.984C272.077 234.237 271.924 233.582 271.619 233.016C271.314 232.451 270.896 232.016 270.364 231.71C269.844 231.405 269.268 231.253 268.634 231.253C267.979 231.253 267.391 231.4 266.871 231.694C266.351 231.987 265.938 232.417 265.633 232.982C265.339 233.536 265.192 234.198 265.192 234.967C265.192 235.724 265.339 236.391 265.633 236.968C265.938 237.533 266.351 237.968 266.871 238.274C267.391 238.567 267.979 238.714 268.634 238.714C269.268 238.714 269.844 238.562 270.364 238.257C270.896 237.951 271.314 237.516 271.619 236.951C271.924 236.385 272.077 235.73 272.077 234.984ZM280.384 230.184C281.085 230.184 281.712 230.331 282.266 230.625C282.831 230.919 283.272 231.371 283.589 231.982C283.917 232.581 284.081 233.316 284.081 234.186V239.613H282.91V234.322C282.91 233.316 282.656 232.547 282.147 232.016C281.65 231.484 280.966 231.219 280.095 231.219C279.202 231.219 278.49 231.501 277.958 232.067C277.427 232.632 277.161 233.463 277.161 234.56V239.613H275.974V227.064H277.161V231.931C277.455 231.377 277.885 230.947 278.45 230.642C279.027 230.337 279.671 230.184 280.384 230.184ZM302.383 230.184C303.468 230.184 304.35 230.529 305.029 231.219C305.718 231.897 306.063 232.886 306.063 234.186V239.613H304.893V234.322C304.893 233.316 304.65 232.547 304.164 232.016C303.677 231.484 303.016 231.219 302.179 231.219C301.309 231.219 300.614 231.507 300.094 232.084C299.573 232.66 299.313 233.497 299.313 234.593V239.613H298.143V234.322C298.143 233.316 297.9 232.547 297.414 232.016C296.928 231.484 296.261 231.219 295.413 231.219C294.542 231.219 293.847 231.507 293.327 232.084C292.807 232.66 292.547 233.497 292.547 234.593V239.613H291.36V230.354H292.547V231.948C292.841 231.371 293.259 230.936 293.802 230.642C294.344 230.337 294.949 230.184 295.616 230.184C296.419 230.184 297.12 230.376 297.719 230.761C298.33 231.145 298.771 231.71 299.042 232.457C299.291 231.722 299.715 231.162 300.314 230.778C300.924 230.382 301.614 230.184 302.383 230.184ZM317.077 234.509C317.077 234.916 317.066 235.227 317.043 235.441H309.361C309.395 236.142 309.564 236.742 309.87 237.239C310.175 237.737 310.576 238.115 311.074 238.375C311.571 238.624 312.114 238.748 312.702 238.748C313.47 238.748 314.115 238.562 314.635 238.189C315.166 237.816 315.517 237.313 315.686 236.679H316.941C316.715 237.584 316.229 238.324 315.483 238.901C314.748 239.466 313.821 239.749 312.702 239.749C311.831 239.749 311.051 239.557 310.361 239.172C309.672 238.777 309.129 238.223 308.733 237.51C308.349 236.787 308.157 235.945 308.157 234.984C308.157 234.023 308.349 233.18 308.733 232.457C309.118 231.733 309.655 231.179 310.344 230.795C311.034 230.41 311.82 230.218 312.702 230.218C313.584 230.218 314.352 230.41 315.008 230.795C315.675 231.179 316.184 231.699 316.534 232.355C316.896 232.999 317.077 233.717 317.077 234.509ZM315.873 234.475C315.884 233.785 315.743 233.197 315.449 232.711C315.166 232.225 314.776 231.857 314.279 231.609C313.781 231.36 313.239 231.236 312.651 231.236C311.769 231.236 311.017 231.518 310.395 232.084C309.773 232.649 309.429 233.446 309.361 234.475H315.873ZM323.59 230.184C324.698 230.184 325.603 230.529 326.304 231.219C327.005 231.897 327.355 232.886 327.355 234.186V239.613H326.185V234.322C326.185 233.316 325.931 232.547 325.422 232.016C324.924 231.484 324.24 231.219 323.37 231.219C322.477 231.219 321.765 231.501 321.233 232.067C320.702 232.632 320.436 233.463 320.436 234.56V239.613H319.249V230.354H320.436V231.931C320.73 231.366 321.154 230.936 321.708 230.642C322.262 230.337 322.889 230.184 323.59 230.184ZM333.864 230.218C334.735 230.218 335.492 230.422 336.137 230.829C336.781 231.236 337.245 231.75 337.527 232.372V230.354H338.714V239.851C338.714 240.699 338.528 241.45 338.155 242.106C337.793 242.762 337.284 243.265 336.629 243.616C335.973 243.977 335.227 244.158 334.39 244.158C333.203 244.158 332.214 243.876 331.422 243.31C330.642 242.745 330.156 241.976 329.964 241.004H331.134C331.337 241.648 331.722 242.163 332.287 242.547C332.864 242.932 333.565 243.124 334.39 243.124C334.989 243.124 335.526 242.994 336.001 242.734C336.476 242.485 336.849 242.112 337.12 241.614C337.392 241.117 337.527 240.529 337.527 239.851V237.561C337.233 238.194 336.764 238.72 336.12 239.138C335.487 239.545 334.735 239.749 333.864 239.749C333.016 239.749 332.253 239.551 331.575 239.155C330.908 238.76 330.382 238.2 329.998 237.476C329.625 236.753 329.438 235.916 329.438 234.967C329.438 234.017 329.625 233.186 329.998 232.474C330.382 231.75 330.908 231.196 331.575 230.812C332.253 230.416 333.016 230.218 333.864 230.218ZM337.527 234.984C337.527 234.237 337.375 233.582 337.069 233.016C336.764 232.451 336.346 232.016 335.814 231.71C335.294 231.405 334.718 231.253 334.085 231.253C333.429 231.253 332.841 231.4 332.321 231.694C331.801 231.987 331.388 232.417 331.083 232.982C330.789 233.536 330.642 234.198 330.642 234.967C330.642 235.724 330.789 236.391 331.083 236.968C331.388 237.533 331.801 237.968 332.321 238.274C332.841 238.567 333.429 238.714 334.085 238.714C334.718 238.714 335.294 238.562 335.814 238.257C336.346 237.951 336.764 237.516 337.069 236.951C337.375 236.385 337.527 235.73 337.527 234.984ZM340.882 234.967C340.882 234.017 341.068 233.186 341.441 232.474C341.826 231.75 342.352 231.196 343.019 230.812C343.697 230.416 344.46 230.218 345.308 230.218C346.19 230.218 346.947 230.422 347.581 230.829C348.225 231.236 348.689 231.756 348.971 232.389V230.354H350.158V239.613H348.971V237.561C348.677 238.194 348.208 238.72 347.564 239.138C346.93 239.545 346.173 239.749 345.291 239.749C344.454 239.749 343.697 239.551 343.019 239.155C342.352 238.76 341.826 238.2 341.441 237.476C341.068 236.753 340.882 235.916 340.882 234.967ZM348.971 234.984C348.971 234.237 348.819 233.582 348.513 233.016C348.208 232.451 347.79 232.016 347.258 231.71C346.738 231.405 346.162 231.253 345.529 231.253C344.873 231.253 344.285 231.4 343.765 231.694C343.245 231.987 342.832 232.417 342.527 232.982C342.233 233.536 342.086 234.198 342.086 234.967C342.086 235.724 342.233 236.391 342.527 236.968C342.832 237.533 343.245 237.968 343.765 238.274C344.285 238.567 344.873 238.714 345.529 238.714C346.162 238.714 346.738 238.562 347.258 238.257C347.79 237.951 348.208 237.516 348.513 236.951C348.819 236.385 348.971 235.73 348.971 234.984ZM353.547 228.607C353.309 228.607 353.106 228.522 352.936 228.353C352.767 228.183 352.682 227.974 352.682 227.725C352.682 227.476 352.767 227.273 352.936 227.115C353.106 226.945 353.309 226.86 353.547 226.86C353.784 226.86 353.982 226.945 354.14 227.115C354.31 227.273 354.395 227.476 354.395 227.725C354.395 227.974 354.31 228.183 354.14 228.353C353.982 228.522 353.784 228.607 353.547 228.607ZM354.123 241.801C354.123 242.547 353.937 243.095 353.564 243.446C353.191 243.808 352.631 243.989 351.885 243.989H351.054V242.971H351.698C352.139 242.971 352.456 242.875 352.648 242.683C352.84 242.502 352.936 242.191 352.936 241.75V230.354H354.123V241.801ZM364.865 230.354V239.613H363.677V237.985C363.406 238.562 362.988 239.003 362.423 239.308C361.857 239.613 361.224 239.766 360.523 239.766C359.415 239.766 358.511 239.427 357.81 238.748C357.109 238.059 356.758 237.064 356.758 235.764V230.354H357.928V235.628C357.928 236.634 358.177 237.403 358.675 237.934C359.183 238.466 359.873 238.731 360.744 238.731C361.637 238.731 362.349 238.449 362.88 237.883C363.412 237.318 363.677 236.487 363.677 235.391V230.354H364.865ZM372.578 239.613L368.762 235.458V239.613H367.575V227.064H368.762V234.492L372.493 230.354H374.155L369.762 234.967L374.189 239.613H372.578ZM375.18 234.967C375.18 234.017 375.367 233.186 375.74 232.474C376.124 231.75 376.65 231.196 377.317 230.812C377.995 230.416 378.759 230.218 379.607 230.218C380.488 230.218 381.246 230.422 381.879 230.829C382.523 231.236 382.987 231.756 383.27 232.389V230.354H384.457V239.613H383.27V237.561C382.976 238.194 382.506 238.72 381.862 239.138C381.229 239.545 380.471 239.749 379.59 239.749C378.753 239.749 377.995 239.551 377.317 239.155C376.65 238.76 376.124 238.2 375.74 237.476C375.367 236.753 375.18 235.916 375.18 234.967ZM383.27 234.984C383.27 234.237 383.117 233.582 382.812 233.016C382.506 232.451 382.088 232.016 381.557 231.71C381.037 231.405 380.46 231.253 379.827 231.253C379.171 231.253 378.583 231.4 378.063 231.694C377.543 231.987 377.131 232.417 376.825 232.982C376.531 233.536 376.384 234.198 376.384 234.967C376.384 235.724 376.531 236.391 376.825 236.968C377.131 237.533 377.543 237.968 378.063 238.274C378.583 238.567 379.171 238.714 379.827 238.714C380.46 238.714 381.037 238.562 381.557 238.257C382.088 237.951 382.506 237.516 382.812 236.951C383.117 236.385 383.27 235.73 383.27 234.984ZM391.508 230.184C392.616 230.184 393.521 230.529 394.222 231.219C394.923 231.897 395.273 232.886 395.273 234.186V239.613H394.103V234.322C394.103 233.316 393.849 232.547 393.34 232.016C392.842 231.484 392.158 231.219 391.288 231.219C390.395 231.219 389.682 231.501 389.151 232.067C388.62 232.632 388.354 233.463 388.354 234.56V239.613H387.167V230.354H388.354V231.931C388.648 231.366 389.072 230.936 389.626 230.642C390.18 230.337 390.807 230.184 391.508 230.184ZM160.79 253.607C160.552 253.607 160.349 253.522 160.179 253.353C160.01 253.183 159.925 252.974 159.925 252.725C159.925 252.476 160.01 252.273 160.179 252.115C160.349 251.945 160.552 251.86 160.79 251.86C161.027 251.86 161.225 251.945 161.383 252.115C161.553 252.273 161.638 252.476 161.638 252.725C161.638 252.974 161.553 253.183 161.383 253.353C161.225 253.522 161.027 253.607 160.79 253.607ZM161.366 266.801C161.366 267.547 161.18 268.095 160.807 268.446C160.434 268.808 159.874 268.989 159.128 268.989H158.297V267.971H158.941C159.382 267.971 159.699 267.875 159.891 267.683C160.083 267.502 160.179 267.191 160.179 266.75V255.354H161.366V266.801ZM163.544 259.967C163.544 259.017 163.73 258.186 164.103 257.474C164.488 256.75 165.013 256.196 165.68 255.812C166.359 255.416 167.122 255.218 167.97 255.218C168.852 255.218 169.609 255.422 170.242 255.829C170.887 256.236 171.35 256.756 171.633 257.389V255.354H172.82V264.613H171.633V262.561C171.339 263.194 170.87 263.72 170.225 264.138C169.592 264.545 168.835 264.749 167.953 264.749C167.116 264.749 166.359 264.551 165.68 264.155C165.013 263.76 164.488 263.2 164.103 262.476C163.73 261.753 163.544 260.916 163.544 259.967ZM171.633 259.984C171.633 259.237 171.48 258.582 171.175 258.016C170.87 257.451 170.451 257.016 169.92 256.71C169.4 256.405 168.823 256.253 168.19 256.253C167.534 256.253 166.947 256.4 166.427 256.694C165.906 256.987 165.494 257.417 165.189 257.982C164.895 258.536 164.748 259.198 164.748 259.967C164.748 260.724 164.895 261.391 165.189 261.968C165.494 262.533 165.906 262.968 166.427 263.274C166.947 263.567 167.534 263.714 168.19 263.714C168.823 263.714 169.4 263.562 169.92 263.257C170.451 262.951 170.87 262.516 171.175 261.951C171.48 261.385 171.633 260.73 171.633 259.984ZM174.987 259.967C174.987 259.017 175.18 258.186 175.564 257.474C175.948 256.75 176.474 256.196 177.141 255.812C177.82 255.416 178.583 255.218 179.431 255.218C180.245 255.218 180.979 255.416 181.635 255.812C182.291 256.207 182.771 256.722 183.077 257.355V252.064H184.264V264.613H183.077V262.544C182.794 263.189 182.331 263.72 181.686 264.138C181.042 264.545 180.284 264.749 179.414 264.749C178.566 264.749 177.803 264.551 177.124 264.155C176.457 263.76 175.931 263.2 175.547 262.476C175.174 261.753 174.987 260.916 174.987 259.967ZM183.077 259.984C183.077 259.237 182.924 258.582 182.619 258.016C182.314 257.451 181.895 257.016 181.364 256.71C180.844 256.405 180.267 256.253 179.634 256.253C178.978 256.253 178.39 256.4 177.87 256.694C177.35 256.987 176.938 257.417 176.632 257.982C176.338 258.536 176.191 259.198 176.191 259.967C176.191 260.724 176.338 261.391 176.632 261.968C176.938 262.533 177.35 262.968 177.87 263.274C178.39 263.567 178.978 263.714 179.634 263.714C180.267 263.714 180.844 263.562 181.364 263.257C181.895 262.951 182.314 262.516 182.619 261.951C182.924 261.385 183.077 260.73 183.077 259.984ZM199.184 255.354L196.284 264.613H195.097L192.536 256.846L189.976 264.613H188.772L185.872 255.354H187.076L189.382 263.409L191.977 255.354H193.164L195.725 263.426L198.014 255.354H199.184ZM200.26 259.967C200.26 259.017 200.446 258.186 200.82 257.474C201.204 256.75 201.73 256.196 202.397 255.812C203.075 255.416 203.838 255.218 204.686 255.218C205.568 255.218 206.326 255.422 206.959 255.829C207.603 256.236 208.067 256.756 208.349 257.389V255.354H209.536V264.613H208.349V262.561C208.055 263.194 207.586 263.72 206.942 264.138C206.309 264.545 205.551 264.749 204.669 264.749C203.833 264.749 203.075 264.551 202.397 264.155C201.73 263.76 201.204 263.2 200.82 262.476C200.446 261.753 200.26 260.916 200.26 259.967ZM208.349 259.984C208.349 259.237 208.197 258.582 207.891 258.016C207.586 257.451 207.168 257.016 206.636 256.71C206.116 256.405 205.54 256.253 204.907 256.253C204.251 256.253 203.663 256.4 203.143 256.694C202.623 256.987 202.21 257.417 201.905 257.982C201.611 258.536 201.464 259.198 201.464 259.967C201.464 260.724 201.611 261.391 201.905 261.968C202.21 262.533 202.623 262.968 203.143 263.274C203.663 263.567 204.251 263.714 204.907 263.714C205.54 263.714 206.116 263.562 206.636 263.257C207.168 262.951 207.586 262.516 207.891 261.951C208.197 261.385 208.349 260.73 208.349 259.984ZM213.434 252.064V264.613H212.246V252.064H213.434ZM222.319 256.354V262.103C222.319 262.669 222.426 263.059 222.641 263.274C222.856 263.488 223.235 263.596 223.777 263.596H224.863V264.613H223.591C222.754 264.613 222.132 264.421 221.725 264.037C221.318 263.641 221.115 262.997 221.115 262.103V256.354H219.826V255.354H221.115V253.03H222.319V255.354H224.863V256.354H222.319ZM235.198 259.509C235.198 259.916 235.187 260.227 235.164 260.441H227.482C227.516 261.142 227.685 261.742 227.991 262.239C228.296 262.737 228.697 263.115 229.195 263.375C229.692 263.624 230.235 263.748 230.823 263.748C231.591 263.748 232.236 263.562 232.756 263.189C233.287 262.816 233.638 262.313 233.807 261.679H235.062C234.836 262.584 234.35 263.324 233.604 263.901C232.869 264.466 231.942 264.749 230.823 264.749C229.952 264.749 229.172 264.557 228.482 264.172C227.793 263.777 227.25 263.223 226.854 262.51C226.47 261.787 226.278 260.945 226.278 259.984C226.278 259.023 226.47 258.18 226.854 257.457C227.239 256.733 227.776 256.179 228.465 255.795C229.155 255.41 229.941 255.218 230.823 255.218C231.705 255.218 232.473 255.41 233.129 255.795C233.796 256.179 234.305 256.699 234.655 257.355C235.017 257.999 235.198 258.717 235.198 259.509ZM233.994 259.475C234.005 258.785 233.864 258.197 233.57 257.711C233.287 257.225 232.897 256.857 232.4 256.609C231.902 256.36 231.36 256.236 230.772 256.236C229.89 256.236 229.138 256.518 228.516 257.084C227.894 257.649 227.55 258.446 227.482 259.475H233.994ZM238.557 256.999C238.817 256.422 239.213 255.976 239.744 255.659C240.287 255.342 240.948 255.184 241.728 255.184V256.422H241.406C240.547 256.422 239.857 256.654 239.337 257.118C238.817 257.581 238.557 258.355 238.557 259.441V264.613H237.37V255.354H238.557V256.999ZM244.701 252.064V264.613H243.514V252.064H244.701ZM255.767 259.509C255.767 259.916 255.756 260.227 255.733 260.441H248.051C248.085 261.142 248.254 261.742 248.56 262.239C248.865 262.737 249.266 263.115 249.764 263.375C250.261 263.624 250.804 263.748 251.392 263.748C252.161 263.748 252.805 263.562 253.325 263.189C253.856 262.816 254.207 262.313 254.377 261.679H255.631C255.405 262.584 254.919 263.324 254.173 263.901C253.438 264.466 252.511 264.749 251.392 264.749C250.521 264.749 249.741 264.557 249.051 264.172C248.362 263.777 247.819 263.223 247.423 262.51C247.039 261.787 246.847 260.945 246.847 259.984C246.847 259.023 247.039 258.18 247.423 257.457C247.808 256.733 248.345 256.179 249.035 255.795C249.724 255.41 250.51 255.218 251.392 255.218C252.274 255.218 253.042 255.41 253.698 255.795C254.365 256.179 254.874 256.699 255.224 257.355C255.586 257.999 255.767 258.717 255.767 259.509ZM254.563 259.475C254.574 258.785 254.433 258.197 254.139 257.711C253.856 257.225 253.466 256.857 252.969 256.609C252.471 256.36 251.929 256.236 251.341 256.236C250.459 256.236 249.707 256.518 249.085 257.084C248.464 257.649 248.119 258.446 248.051 259.475H254.563ZM259.109 257.406C259.414 256.761 259.884 256.236 260.517 255.829C261.161 255.422 261.919 255.218 262.789 255.218C263.637 255.218 264.395 255.416 265.062 255.812C265.729 256.196 266.249 256.75 266.622 257.474C267.006 258.186 267.199 259.017 267.199 259.967C267.199 260.916 267.006 261.753 266.622 262.476C266.249 263.2 265.723 263.76 265.045 264.155C264.378 264.551 263.626 264.749 262.789 264.749C261.907 264.749 261.144 264.551 260.5 264.155C259.867 263.748 259.403 263.223 259.109 262.578V264.613H257.939V252.064H259.109V257.406ZM265.994 259.967C265.994 259.198 265.842 258.536 265.537 257.982C265.243 257.417 264.836 256.987 264.316 256.694C263.795 256.4 263.208 256.253 262.552 256.253C261.919 256.253 261.336 256.405 260.805 256.71C260.285 257.016 259.872 257.451 259.567 258.016C259.262 258.582 259.109 259.237 259.109 259.984C259.109 260.73 259.262 261.385 259.567 261.951C259.872 262.516 260.285 262.951 260.805 263.257C261.336 263.562 261.919 263.714 262.552 263.714C263.208 263.714 263.795 263.567 264.316 263.274C264.836 262.968 265.243 262.533 265.537 261.968C265.842 261.391 265.994 260.724 265.994 259.967ZM269.976 253.607C269.739 253.607 269.536 253.522 269.366 253.353C269.196 253.183 269.112 252.974 269.112 252.725C269.112 252.476 269.196 252.273 269.366 252.115C269.536 251.945 269.739 251.86 269.976 251.86C270.214 251.86 270.417 251.945 270.587 252.115C270.757 252.273 270.841 252.476 270.841 252.725C270.841 252.974 270.757 253.183 270.587 253.353C270.417 253.522 270.214 253.607 269.976 253.607ZM270.57 255.354V264.613H269.383V255.354H270.57ZM277.668 255.184C278.368 255.184 278.996 255.331 279.55 255.625C280.115 255.919 280.556 256.371 280.873 256.982C281.201 257.581 281.365 258.316 281.365 259.186V264.613H280.194V259.322C280.194 258.316 279.94 257.547 279.431 257.016C278.934 256.484 278.25 256.219 277.379 256.219C276.486 256.219 275.774 256.501 275.242 257.067C274.711 257.632 274.445 258.463 274.445 259.56V264.613H273.258V252.064H274.445V256.931C274.739 256.377 275.169 255.947 275.734 255.642C276.311 255.337 276.955 255.184 277.668 255.184ZM288.101 259.967C288.101 259.017 288.293 258.186 288.678 257.474C289.062 256.75 289.588 256.196 290.255 255.812C290.933 255.416 291.696 255.218 292.544 255.218C293.358 255.218 294.093 255.416 294.749 255.812C295.405 256.207 295.885 256.722 296.19 257.355V252.064H297.377V264.613H296.19V262.544C295.908 263.189 295.444 263.72 294.8 264.138C294.155 264.545 293.398 264.749 292.527 264.749C291.679 264.749 290.916 264.551 290.238 264.155C289.571 263.76 289.045 263.2 288.661 262.476C288.288 261.753 288.101 260.916 288.101 259.967ZM296.19 259.984C296.19 259.237 296.038 258.582 295.732 258.016C295.427 257.451 295.009 257.016 294.478 256.71C293.957 256.405 293.381 256.253 292.748 256.253C292.092 256.253 291.504 256.4 290.984 256.694C290.464 256.987 290.051 257.417 289.746 257.982C289.452 258.536 289.305 259.198 289.305 259.967C289.305 260.724 289.452 261.391 289.746 261.968C290.051 262.533 290.464 262.968 290.984 263.274C291.504 263.567 292.092 263.714 292.748 263.714C293.381 263.714 293.957 263.562 294.478 263.257C295.009 262.951 295.427 262.516 295.732 261.951C296.038 261.385 296.19 260.73 296.19 259.984ZM299.545 259.967C299.545 259.017 299.731 258.186 300.105 257.474C300.489 256.75 301.015 256.196 301.682 255.812C302.36 255.416 303.123 255.218 303.971 255.218C304.853 255.218 305.61 255.422 306.244 255.829C306.888 256.236 307.352 256.756 307.634 257.389V255.354H308.821V264.613H307.634V262.561C307.34 263.194 306.871 263.72 306.227 264.138C305.593 264.545 304.836 264.749 303.954 264.749C303.118 264.749 302.36 264.551 301.682 264.155C301.015 263.76 300.489 263.2 300.105 262.476C299.731 261.753 299.545 260.916 299.545 259.967ZM307.634 259.984C307.634 259.237 307.482 258.582 307.176 258.016C306.871 257.451 306.453 257.016 305.921 256.71C305.401 256.405 304.825 256.253 304.192 256.253C303.536 256.253 302.948 256.4 302.428 256.694C301.908 256.987 301.495 257.417 301.19 257.982C300.896 258.536 300.749 259.198 300.749 259.967C300.749 260.724 300.896 261.391 301.19 261.968C301.495 262.533 301.908 262.968 302.428 263.274C302.948 263.567 303.536 263.714 304.192 263.714C304.825 263.714 305.401 263.562 305.921 263.257C306.453 262.951 306.871 262.516 307.176 261.951C307.482 261.385 307.634 260.73 307.634 259.984ZM315.941 255.184C316.642 255.184 317.269 255.331 317.823 255.625C318.388 255.919 318.829 256.371 319.146 256.982C319.474 257.581 319.638 258.316 319.638 259.186V264.613H318.468V259.322C318.468 258.316 318.213 257.547 317.704 257.016C317.207 256.484 316.523 256.219 315.652 256.219C314.759 256.219 314.047 256.501 313.516 257.067C312.984 257.632 312.719 258.463 312.719 259.56V264.613H311.531V252.064H312.719V256.931C313.012 256.377 313.442 255.947 314.007 255.642C314.584 255.337 315.228 255.184 315.941 255.184ZM330.285 255.354V264.613H329.098V262.985C328.826 263.562 328.408 264.003 327.843 264.308C327.277 264.613 326.644 264.766 325.943 264.766C324.835 264.766 323.931 264.427 323.23 263.748C322.529 263.059 322.178 262.064 322.178 260.764V255.354H323.348V260.628C323.348 261.634 323.597 262.403 324.095 262.934C324.603 263.466 325.293 263.731 326.164 263.731C327.057 263.731 327.769 263.449 328.3 262.883C328.832 262.318 329.098 261.487 329.098 260.391V255.354H330.285ZM334.182 252.064V264.613H332.995V252.064H334.182ZM344.892 255.354V264.613H343.705V262.985C343.433 263.562 343.015 264.003 342.45 264.308C341.884 264.613 341.251 264.766 340.55 264.766C339.442 264.766 338.538 264.427 337.837 263.748C337.136 263.059 336.785 262.064 336.785 260.764V255.354H337.956V260.628C337.956 261.634 338.204 262.403 338.702 262.934C339.21 263.466 339.9 263.731 340.771 263.731C341.664 263.731 342.376 263.449 342.907 262.883C343.439 262.318 343.705 261.487 343.705 260.391V255.354H344.892Z" fill="black" fill-opacity="0.6"/>
<path d="M223.03 209L217.861 202.671V209H215.012V194.795H217.861V201.165L223.03 194.795H226.47L220.609 201.837L226.632 209H223.03ZM233.513 209.183C232.427 209.183 231.451 208.946 230.582 208.471C229.714 207.982 229.029 207.297 228.527 206.415C228.038 205.534 227.794 204.516 227.794 203.363C227.794 202.21 228.045 201.192 228.547 200.31C229.063 199.428 229.761 198.75 230.643 198.275C231.525 197.787 232.509 197.543 233.594 197.543C234.679 197.543 235.663 197.787 236.545 198.275C237.427 198.75 238.119 199.428 238.621 200.31C239.136 201.192 239.394 202.21 239.394 203.363C239.394 204.516 239.129 205.534 238.6 206.415C238.085 207.297 237.379 207.982 236.484 208.471C235.602 208.946 234.612 209.183 233.513 209.183ZM233.513 206.7C234.028 206.7 234.51 206.578 234.958 206.334C235.419 206.076 235.785 205.696 236.057 205.194C236.328 204.692 236.464 204.082 236.464 203.363C236.464 202.291 236.179 201.47 235.609 200.9C235.053 200.317 234.367 200.025 233.553 200.025C232.739 200.025 232.054 200.317 231.498 200.9C230.955 201.47 230.684 202.291 230.684 203.363C230.684 204.435 230.949 205.262 231.478 205.846C232.02 206.415 232.699 206.7 233.513 206.7ZM245.798 209.183C244.876 209.183 244.048 209.02 243.315 208.695C242.583 208.356 241.999 207.901 241.565 207.331C241.145 206.761 240.914 206.131 240.873 205.439H243.743C243.797 205.873 244.007 206.232 244.374 206.517C244.754 206.802 245.222 206.945 245.778 206.945C246.321 206.945 246.741 206.836 247.04 206.619C247.352 206.402 247.508 206.124 247.508 205.785C247.508 205.418 247.318 205.147 246.938 204.971C246.572 204.781 245.981 204.577 245.167 204.36C244.326 204.157 243.634 203.946 243.092 203.729C242.562 203.512 242.101 203.18 241.708 202.732C241.328 202.284 241.138 201.681 241.138 200.921C241.138 200.297 241.314 199.727 241.667 199.211C242.033 198.696 242.549 198.289 243.214 197.99C243.892 197.692 244.686 197.543 245.595 197.543C246.938 197.543 248.01 197.882 248.81 198.56C249.611 199.225 250.051 200.127 250.133 201.267H247.406C247.365 200.819 247.175 200.466 246.836 200.209C246.51 199.937 246.07 199.802 245.513 199.802C244.998 199.802 244.598 199.897 244.313 200.086C244.041 200.276 243.906 200.541 243.906 200.88C243.906 201.26 244.096 201.552 244.475 201.755C244.855 201.945 245.445 202.142 246.246 202.345C247.06 202.549 247.732 202.759 248.261 202.976C248.79 203.193 249.244 203.532 249.624 203.994C250.018 204.441 250.221 205.038 250.235 205.785C250.235 206.436 250.051 207.019 249.685 207.535C249.332 208.05 248.817 208.457 248.139 208.756C247.474 209.041 246.694 209.183 245.798 209.183ZM257.58 209.183C256.494 209.183 255.517 208.946 254.649 208.471C253.781 207.982 253.096 207.297 252.594 206.415C252.105 205.534 251.861 204.516 251.861 203.363C251.861 202.21 252.112 201.192 252.614 200.31C253.13 199.428 253.828 198.75 254.71 198.275C255.592 197.787 256.576 197.543 257.661 197.543C258.746 197.543 259.73 197.787 260.612 198.275C261.494 198.75 262.186 199.428 262.688 200.31C263.203 201.192 263.461 202.21 263.461 203.363C263.461 204.516 263.196 205.534 262.667 206.415C262.152 207.297 261.446 207.982 260.551 208.471C259.669 208.946 258.679 209.183 257.58 209.183ZM257.58 206.7C258.095 206.7 258.577 206.578 259.024 206.334C259.486 206.076 259.852 205.696 260.123 205.194C260.395 204.692 260.53 204.082 260.53 203.363C260.53 202.291 260.246 201.47 259.676 200.9C259.119 200.317 258.434 200.025 257.62 200.025C256.806 200.025 256.121 200.317 255.565 200.9C255.022 201.47 254.751 202.291 254.751 203.363C254.751 204.435 255.015 205.262 255.545 205.846C256.087 206.415 256.766 206.7 257.58 206.7ZM271.798 197.563C273.142 197.563 274.227 197.99 275.054 198.845C275.882 199.686 276.296 200.867 276.296 202.386V209H273.447V202.773C273.447 201.877 273.223 201.192 272.775 200.717C272.328 200.229 271.717 199.985 270.944 199.985C270.157 199.985 269.533 200.229 269.071 200.717C268.624 201.192 268.4 201.877 268.4 202.773V209H265.551V197.726H268.4V199.13C268.78 198.642 269.261 198.262 269.845 197.99C270.442 197.705 271.093 197.563 271.798 197.563ZM283.421 197.543C284.262 197.543 285.002 197.712 285.639 198.051C286.277 198.377 286.779 198.804 287.145 199.334V197.726H290.015V209.081C290.015 210.126 289.805 211.055 289.384 211.869C288.963 212.697 288.333 213.348 287.491 213.823C286.65 214.311 285.633 214.556 284.439 214.556C282.838 214.556 281.522 214.183 280.491 213.436C279.473 212.69 278.897 211.673 278.761 210.384H281.59C281.739 210.899 282.058 211.306 282.546 211.605C283.048 211.917 283.652 212.073 284.357 212.073C285.185 212.073 285.857 211.822 286.372 211.32C286.888 210.832 287.145 210.085 287.145 209.081V207.331C286.779 207.86 286.27 208.301 285.619 208.654C284.981 209.007 284.249 209.183 283.421 209.183C282.472 209.183 281.603 208.939 280.816 208.451C280.029 207.962 279.405 207.277 278.944 206.395C278.496 205.5 278.273 204.475 278.273 203.322C278.273 202.183 278.496 201.172 278.944 200.29C279.405 199.408 280.023 198.73 280.796 198.255C281.583 197.78 282.458 197.543 283.421 197.543ZM287.145 203.363C287.145 202.671 287.01 202.081 286.738 201.592C286.467 201.09 286.101 200.711 285.639 200.453C285.178 200.181 284.683 200.046 284.154 200.046C283.625 200.046 283.136 200.175 282.689 200.432C282.241 200.69 281.875 201.07 281.59 201.572C281.318 202.06 281.183 202.644 281.183 203.322C281.183 204.001 281.318 204.598 281.59 205.113C281.875 205.615 282.241 206.002 282.689 206.273C283.15 206.544 283.638 206.68 284.154 206.68C284.683 206.68 285.178 206.551 285.639 206.293C286.101 206.022 286.467 205.642 286.738 205.154C287.01 204.652 287.145 204.055 287.145 203.363Z" fill="black" fill-opacity="0.6"/>
<g clip-path="url(#clip0_398_2131)">
<path d="M232.634 172.184C227.078 172.184 221.531 172.098 215.992 171.926C208.077 171.68 199.893 171.426 192.286 167.776C186.965 165.222 182.252 161.126 178.657 155.929C176.286 152.474 174.52 148.643 173.434 144.6C172.903 142.654 172.518 140.673 172.281 138.67C171.633 133.262 172.092 127.778 173.63 122.551C174.377 120.05 175.395 117.637 176.665 115.355C182.213 105.416 192.331 98.7449 204.425 97.0513C204.525 97.0401 204.626 97.0382 204.726 97.0457C204.781 97.0482 204.835 97.0509 204.89 97.0489L204.961 97.0294C205.145 96.9743 205.332 96.9327 205.522 96.905C224.174 94.5026 243.893 99.3635 262.544 110.962C276.965 119.931 296.077 124.76 320.972 125.727L321.326 125.743C328.256 126.087 334.96 128.559 340.713 132.891C346.334 137.091 350.616 142.821 353.042 149.39C353.336 150.185 353.605 151.012 353.842 151.849C354.291 153.431 353.771 155.03 352.413 156.247V156.248L352.351 156.303C352.202 156.432 352.045 156.555 351.884 156.669L351.695 156.804C350.104 157.938 348.848 158.834 347.344 159.529C346.329 159.994 345.264 160.342 344.169 160.566C338.103 161.846 331.942 163.032 325.858 164.093C314.043 166.154 301.917 167.854 289.816 169.146C270.823 171.171 251.735 172.185 232.634 172.184ZM204.585 97.3977C204.548 97.3974 204.511 97.3996 204.474 97.4042C192.493 99.082 182.47 105.688 176.978 115.528C175.72 117.787 174.712 120.176 173.973 122.653C172.449 127.834 171.994 133.268 172.636 138.629C172.871 140.613 173.253 142.578 173.779 144.506C174.854 148.511 176.603 152.305 178.952 155.727C182.511 160.873 187.176 164.928 192.442 167.454C199.98 171.072 208.126 171.325 216.003 171.569C240.629 172.331 265.279 171.403 289.778 168.792C301.871 167.5 313.989 165.801 325.796 163.742C331.876 162.682 338.033 161.497 344.095 160.218C345.163 159.999 346.203 159.66 347.193 159.206C348.667 158.525 349.912 157.637 351.487 156.514L351.676 156.38C351.814 156.281 351.95 156.176 352.079 156.066L352.116 156.032C353.411 154.903 353.915 153.414 353.498 151.945C353.263 151.118 352.997 150.299 352.707 149.513C347.829 136.199 335.211 126.789 321.309 126.098L320.957 126.082C309.585 125.641 299.634 124.418 290.536 122.344C279.675 119.867 270.194 116.139 262.355 111.264C243.774 99.7101 224.138 94.8673 205.567 97.2583C205.394 97.284 205.224 97.3223 205.057 97.3728L204.928 97.4038C204.855 97.4077 204.782 97.4048 204.71 97.4015C204.667 97.3996 204.625 97.3977 204.585 97.3977Z" fill="#F0F0F0"/>
<path d="M352.234 156.167V156.169C352.09 156.294 351.938 156.413 351.78 156.525C349.155 158.397 347.362 159.71 344.132 160.392C338.053 161.675 331.951 162.85 325.828 163.917C313.881 166.002 301.871 167.685 289.797 168.969C265.291 171.587 240.632 172.515 215.998 171.748C207.794 171.493 199.882 171.222 192.364 167.615C186.869 164.979 182.252 160.813 178.805 155.829C175.309 150.775 173.183 144.795 172.459 138.65C174.161 137.91 175.97 137.441 177.818 137.261C184.234 136.651 190.548 138.992 196.382 141.716C202.219 144.437 207.95 147.619 214.269 148.875C223.581 150.725 233.194 148.208 242.122 144.986C251.05 141.764 259.839 137.784 269.255 136.568C281.885 134.934 294.557 138.392 306.82 141.815C319.882 145.462 332.945 149.108 346.008 152.756C347.875 153.276 349.812 153.834 351.267 155.109C351.628 155.425 351.952 155.78 352.234 156.167Z" fill="#ABAEAE"/>
<path d="M352.235 156.167V156.169C352.09 156.293 351.938 156.413 351.781 156.525C350.136 157.697 348.818 158.652 347.27 159.368C341.946 159.89 336.616 160.341 331.278 160.723C317.54 161.705 303.775 162.227 289.984 162.289C262.005 162.432 232.589 163.304 208.092 149.767C199.94 145.262 188.133 154.499 180.057 149.56C177.73 148.131 175.567 146.452 173.608 144.553C173.079 142.616 172.695 140.643 172.46 138.65C171.811 133.265 172.268 127.805 173.803 122.602C174.545 120.113 175.558 117.712 176.823 115.441C180.574 116.783 184.172 118.714 187.596 120.759C193.876 124.505 199.982 128.758 206.976 130.903C217.284 134.065 228.437 132.326 238.897 129.711C249.358 127.096 259.748 123.612 270.529 123.318C284.988 122.925 298.905 128.288 312.364 133.566C325.866 138.862 339.37 144.157 352.875 149.451C353.172 150.255 353.437 151.07 353.671 151.897C354.148 153.579 353.456 155.102 352.235 156.167Z" fill="#F2F2F2"/>
<path d="M220.587 87.7836C218.553 86.418 218.752 83.4299 220.903 82.2555C220.946 82.2316 220.989 82.2069 221.031 82.1814C221.139 81.6672 221.247 81.153 221.355 80.6388C221.989 81.2952 223.237 81.1713 223.728 80.4031C222.014 76.759 219.758 73.3925 217.039 70.4163C216.446 69.7643 216.113 68.9186 216.104 68.039C216.094 67.1594 216.408 66.3067 216.987 65.6421C216.997 65.63 217.008 65.6179 217.018 65.6056C218.554 65.0889 220.008 64.3574 221.337 63.4329C216.779 56.1379 208.088 50.3425 206.022 42C199.807 48.6486 199.109 50.9901 192.894 57.6387C192.894 57.6387 187.01 62.9286 185.739 65.7714C186.051 66.098 188.846 66.8817 188.953 67.5238C191.084 67.694 194.776 65.3673 194.776 65.3673C194.776 65.3673 186.718 73.9247 184.272 79.1957C184.051 79.6704 183.842 80.2124 184.027 80.7019C184.174 81.0928 184.703 81.3181 185.043 81.1628C184.636 81.5535 184.31 82.0193 184.082 82.5342C184.791 82.9858 185.633 83.1857 186.471 83.1016C187.31 83.0175 188.095 82.6544 188.7 82.0708C188.359 82.705 188.018 83.3392 187.678 83.9733L187.678 83.9748C188.139 84.1247 188.552 84.3916 188.877 84.7492C189.202 85.1068 189.428 85.5427 189.532 86.0138C189.636 86.485 189.615 86.975 189.471 87.4356C189.327 87.8962 189.065 88.3114 188.71 88.6401C186.596 90.5991 184.664 92.6583 183.956 94.0144C183.29 95.2901 190.128 96.8279 191.666 96.7649C193.204 96.7018 194.642 96.0285 196.031 95.3678C195.964 95.9988 196.085 96.6357 196.38 97.1982C197.14 97.3822 197.93 97.4128 198.703 97.2883C199.476 97.1639 200.216 96.8868 200.88 96.4735C200.819 97.7354 202.417 98.4323 203.526 98.0749C202.972 106.801 203.377 119.055 203.909 131.776H205.229V98.578C205.58 98.7553 205.956 98.8797 206.344 98.9472C209.044 99.4247 212.303 99.715 214.06 97.6173C216.083 99.6488 219.789 99.6102 221.799 97.5858C221.602 97.9351 221.904 98.5228 222.353 98.6154C222.881 98.7246 223.394 98.412 223.843 98.1135C225.872 96.7619 227.901 95.4103 229.931 94.0586C227.426 92.3768 223.869 89.9877 220.587 87.7836Z" fill="#ABAEAE"/>
<path d="M281.506 83.7223C285.025 83.7223 287.879 80.88 287.879 77.3739C287.879 73.8677 285.025 71.0254 281.506 71.0254C277.986 71.0254 275.133 73.8677 275.133 77.3739C275.133 80.88 277.986 83.7223 281.506 83.7223Z" fill="#F2F2F2"/>
<path d="M295.771 74.3678C295.403 73.1379 294.361 72.335 293.103 72.1588C293.089 72.1569 293.076 72.1594 293.062 72.1586C293.045 72.1531 293.026 72.149 293.008 72.1461C291.226 71.9297 289.422 72.3207 287.891 73.2556C286.416 74.173 284.698 74.5879 282.96 74.6553C282.95 74.6557 282.939 74.6561 282.929 74.6566C282.283 74.6995 281.666 74.9396 281.162 75.3443C280.658 75.7489 280.292 76.2985 280.113 76.9181C280.094 76.9939 280.099 77.0739 280.129 77.1463C280.158 77.2187 280.21 77.2798 280.277 77.3209C280.47 77.4834 280.698 77.5987 280.943 77.6575C281.472 77.7692 282.003 77.8716 282.536 77.9645C283.577 78.1458 284.622 78.2924 285.673 78.4043C287.807 78.6321 289.953 78.7129 292.098 78.6462C292.812 78.624 293.501 78.6004 294.155 78.2864C294.632 78.0521 295.038 77.6985 295.336 77.2603C295.616 76.8391 295.8 76.3619 295.875 75.8622C295.951 75.3625 295.915 74.8524 295.771 74.3678Z" fill="#ABAEAE"/>
<path d="M282.529 82.8327C282.161 81.6027 281.119 80.7998 279.861 80.6237C279.847 80.6217 279.834 80.6243 279.82 80.6234C279.802 80.618 279.784 80.6138 279.766 80.6109C277.983 80.3945 276.18 80.7856 274.649 81.7205C273.174 82.6378 271.455 83.0528 269.718 83.1201C269.707 83.1205 269.697 83.121 269.687 83.1215C269.041 83.1644 268.424 83.4045 267.92 83.8091C267.416 84.2138 267.05 84.7633 266.87 85.3829C266.851 85.4588 266.857 85.5387 266.887 85.6111C266.916 85.6835 266.968 85.7447 267.035 85.7857C267.227 85.9482 267.456 86.0635 267.701 86.1224C268.23 86.2341 268.761 86.3364 269.294 86.4294C270.334 86.6107 271.38 86.7573 272.431 86.8692C274.564 87.0969 276.711 87.1777 278.856 87.1111C279.57 87.0889 280.259 87.0653 280.913 86.7512C281.389 86.517 281.796 86.1634 282.094 85.7252C282.374 85.304 282.558 84.8267 282.633 84.327C282.709 83.8273 282.673 83.3172 282.529 82.8327Z" fill="#ABAEAE"/>
<path d="M336.458 109.336C334.424 107.971 334.623 104.983 336.774 103.808C336.818 103.784 336.86 103.76 336.902 103.734C337.01 103.22 337.118 102.706 337.226 102.192C337.86 102.848 339.108 102.724 339.6 101.956C337.885 98.3117 335.63 94.9452 332.91 91.969C332.317 91.317 331.984 90.4714 331.975 89.5917C331.965 88.7121 332.279 87.8594 332.858 87.1948C332.868 87.1828 332.879 87.1706 332.889 87.1583C334.425 86.6416 335.879 85.9101 337.208 84.9857C332.65 77.6907 323.959 71.8953 321.893 63.5527C315.678 70.2013 314.98 72.5429 308.765 79.1914C308.765 79.1914 302.881 84.4813 301.61 87.3242C301.923 87.6508 304.717 88.4345 304.824 89.0766C306.955 89.2467 310.647 86.9201 310.647 86.9201C310.647 86.9201 302.589 95.4775 300.143 100.748C299.922 101.223 299.713 101.765 299.898 102.255C300.045 102.645 300.574 102.871 300.914 102.716C300.507 103.106 300.181 103.572 299.953 104.087C300.663 104.539 301.505 104.738 302.343 104.654C303.181 104.57 303.966 104.207 304.571 103.624C304.23 104.258 303.889 104.892 303.549 105.526L303.549 105.528C304.01 105.677 304.423 105.944 304.748 106.302C305.073 106.66 305.299 107.095 305.403 107.567C305.507 108.038 305.486 108.528 305.342 108.988C305.198 109.449 304.936 109.864 304.581 110.193C302.467 112.152 300.535 114.211 299.827 115.567C299.161 116.843 305.999 118.381 307.537 118.318C309.075 118.255 310.513 117.581 311.902 116.921C311.835 117.552 311.956 118.188 312.251 118.751C313.011 118.935 313.801 118.966 314.574 118.841C315.347 118.717 316.087 118.44 316.751 118.026C316.69 119.288 318.288 119.985 319.397 119.628C318.843 128.354 319.248 140.608 319.78 153.329H321.1V120.131C321.451 120.308 321.827 120.432 322.215 120.5C324.915 120.977 328.174 121.268 329.931 119.17C331.954 121.202 335.66 121.163 337.671 119.139C337.473 119.488 337.776 120.076 338.224 120.168C338.752 120.277 339.265 119.965 339.714 119.666C341.743 118.315 343.772 116.963 345.802 115.611C343.298 113.93 339.74 111.54 336.458 109.336Z" fill="#ABAEAE"/>
<path d="M183.26 143.18C183.392 143.186 183.523 143.151 183.635 143.081C183.747 143.01 183.834 142.907 183.885 142.785C183.936 142.663 183.949 142.529 183.921 142.4C183.892 142.271 183.825 142.154 183.728 142.064C183.712 142 183.7 141.953 183.684 141.889C183.689 141.875 183.695 141.861 183.701 141.847C183.834 141.533 184.058 141.266 184.343 141.078C184.629 140.89 184.963 140.791 185.305 140.792C185.647 140.793 185.981 140.895 186.265 141.085C186.549 141.275 186.771 141.544 186.902 141.859C187.425 143.114 188.092 144.372 188.256 145.7C188.328 146.287 188.297 146.882 188.166 147.459C189.395 144.787 190.033 141.884 190.037 138.945C190.038 138.207 189.997 137.47 189.914 136.737C189.846 136.136 189.752 135.54 189.631 134.948C188.972 131.734 187.557 128.722 185.503 126.158C184.509 125.618 183.704 124.787 183.199 123.777C183.016 123.414 182.886 123.027 182.814 122.627C182.927 122.641 183.041 122.65 183.153 122.658C183.188 122.66 183.225 122.661 183.259 122.663L183.273 122.664C183.396 122.669 183.518 122.639 183.625 122.577C183.731 122.515 183.817 122.424 183.873 122.314C183.928 122.204 183.951 122.081 183.938 121.958C183.925 121.836 183.876 121.72 183.798 121.625C183.75 121.566 183.701 121.506 183.653 121.447C183.579 121.355 183.504 121.266 183.43 121.174C183.422 121.165 183.414 121.156 183.407 121.147C183.322 121.042 183.237 120.94 183.153 120.835C183.307 120.596 183.515 120.396 183.76 120.251C184.607 119.756 185.777 120.099 186.389 120.863C187.003 121.626 187.119 122.698 186.906 123.653C186.696 124.465 186.349 125.235 185.88 125.931C185.926 125.99 185.974 126.047 186.02 126.105C186.86 127.182 187.592 128.338 188.206 129.557C188.057 128.191 188.235 126.81 188.726 125.526C189.224 124.33 190.157 123.323 190.979 122.289C191.965 121.047 193.989 121.589 194.163 123.163C194.164 123.179 194.166 123.194 194.168 123.209C194.046 123.278 193.926 123.351 193.809 123.428C193.662 123.525 193.549 123.665 193.483 123.828C193.417 123.991 193.402 124.171 193.44 124.342C193.479 124.514 193.568 124.67 193.697 124.791C193.826 124.911 193.988 124.989 194.163 125.016L194.18 125.019C194.137 125.457 194.06 125.891 193.951 126.318C193.633 127.508 193.072 128.621 192.303 129.586C191.534 130.55 190.573 131.346 189.48 131.923C189.409 131.96 189.339 131.996 189.267 132.031C189.596 132.955 189.859 133.901 190.054 134.861C190.228 135.709 190.35 136.566 190.418 137.428C190.501 138.514 190.497 139.605 190.403 140.69L190.409 140.652C190.644 139.445 191.291 138.356 192.239 137.569C193.647 136.417 195.636 135.992 197.155 135.066C197.316 134.963 197.504 134.908 197.696 134.907C197.888 134.907 198.076 134.961 198.238 135.064C198.4 135.166 198.529 135.313 198.61 135.486C198.691 135.659 198.721 135.852 198.696 136.041C198.693 136.054 198.691 136.068 198.689 136.081C198.463 136.173 198.242 136.279 198.029 136.398C197.907 136.467 197.788 136.54 197.671 136.617C197.524 136.714 197.41 136.854 197.344 137.017C197.279 137.18 197.264 137.36 197.302 137.531C197.34 137.703 197.43 137.859 197.558 137.98C197.687 138.1 197.85 138.179 198.024 138.205L198.042 138.208C198.055 138.21 198.066 138.212 198.079 138.214C197.692 139.134 197.149 139.981 196.473 140.718C195.639 141.61 194.631 142.322 193.51 142.812C192.39 143.302 191.18 143.559 189.957 143.566H189.955C189.623 145.004 189.141 146.404 188.519 147.743H183.388C183.37 147.686 183.353 147.627 183.337 147.571C183.812 147.6 184.288 147.572 184.756 147.486C184.376 147.021 183.995 146.552 183.614 146.087C183.606 146.078 183.598 146.069 183.59 146.059C183.397 145.821 183.202 145.585 183.009 145.347L183.009 145.347C182.999 144.617 183.083 143.888 183.259 143.18L183.26 143.18Z" fill="#ABAEAE"/>
<path d="M336.144 148.168C336.277 148.174 336.408 148.139 336.52 148.069C336.632 147.998 336.719 147.895 336.77 147.773C336.821 147.652 336.834 147.517 336.805 147.388C336.777 147.259 336.71 147.142 336.613 147.052C336.596 146.988 336.585 146.942 336.568 146.877C336.574 146.863 336.58 146.849 336.586 146.835C336.719 146.521 336.943 146.254 337.228 146.066C337.513 145.879 337.848 145.779 338.19 145.78C338.532 145.782 338.866 145.884 339.15 146.073C339.434 146.263 339.655 146.532 339.786 146.847C340.31 148.103 340.976 149.361 341.14 150.689C341.213 151.276 341.182 151.871 341.05 152.447C342.28 149.776 342.918 146.872 342.922 143.933C342.923 143.195 342.881 142.458 342.799 141.726C342.731 141.125 342.637 140.528 342.516 139.936C341.857 136.722 340.442 133.71 338.388 131.147C337.393 130.606 336.589 129.775 336.084 128.765C335.9 128.402 335.771 128.015 335.699 127.615C335.811 127.63 335.925 127.639 336.038 127.646C336.073 127.648 336.109 127.65 336.144 127.652L336.157 127.652C336.281 127.658 336.403 127.628 336.509 127.565C336.616 127.503 336.702 127.412 336.758 127.302C336.813 127.192 336.836 127.069 336.823 126.947C336.809 126.825 336.761 126.709 336.683 126.613C336.635 126.554 336.586 126.495 336.538 126.435C336.464 126.344 336.389 126.254 336.315 126.162C336.307 126.154 336.299 126.144 336.291 126.135C336.207 126.03 336.122 125.928 336.038 125.823C336.192 125.585 336.4 125.385 336.644 125.239C337.492 124.744 338.662 125.087 339.274 125.851C339.888 126.615 340.004 127.686 339.791 128.641C339.581 129.453 339.234 130.223 338.765 130.92C338.811 130.978 338.858 131.035 338.904 131.094C339.745 132.17 340.477 133.326 341.091 134.545C340.942 133.179 341.12 131.798 341.611 130.515C342.109 129.319 343.042 128.311 343.863 127.277C344.85 126.035 346.874 126.577 347.047 128.152C347.049 128.167 347.051 128.182 347.052 128.197C346.93 128.266 346.811 128.339 346.694 128.416C346.547 128.514 346.433 128.653 346.368 128.816C346.302 128.98 346.287 129.159 346.325 129.331C346.363 129.502 346.453 129.659 346.582 129.779C346.711 129.899 346.873 129.978 347.047 130.005L347.065 130.007C347.022 130.445 346.945 130.88 346.835 131.306C346.518 132.497 345.957 133.609 345.188 134.574C344.419 135.538 343.458 136.334 342.365 136.911C342.293 136.948 342.223 136.985 342.152 137.02C342.769 138.761 343.156 140.575 343.303 142.416C343.386 143.502 343.381 144.593 343.288 145.679L343.294 145.64C343.529 144.433 344.175 143.344 345.123 142.557C346.531 141.405 348.521 140.981 350.04 140.054C350.201 139.951 350.389 139.896 350.581 139.896C350.773 139.895 350.961 139.949 351.122 140.052C351.284 140.154 351.414 140.301 351.495 140.474C351.576 140.647 351.606 140.84 351.58 141.029C351.578 141.043 351.576 141.056 351.574 141.07C351.348 141.162 351.127 141.267 350.914 141.387C350.792 141.455 350.672 141.528 350.556 141.605C350.409 141.703 350.295 141.842 350.229 142.006C350.163 142.169 350.149 142.348 350.187 142.52C350.225 142.691 350.314 142.848 350.443 142.968C350.572 143.088 350.734 143.167 350.909 143.194L350.927 143.196C350.94 143.198 350.951 143.2 350.964 143.202C350.577 144.122 350.034 144.969 349.358 145.706C348.524 146.598 347.516 147.311 346.395 147.8C345.274 148.29 344.065 148.547 342.841 148.555H342.839C342.507 149.993 342.026 151.392 341.403 152.731H336.273C336.255 152.674 336.238 152.616 336.221 152.559C336.696 152.589 337.173 152.56 337.641 152.475C337.26 152.009 336.88 151.54 336.499 151.075C336.491 151.066 336.483 151.057 336.475 151.048C336.282 150.81 336.087 150.573 335.894 150.335L335.894 150.335C335.884 149.605 335.968 148.877 336.144 148.168Z" fill="#ABAEAE"/>
<path d="M275.172 133.383C275.304 133.389 275.435 133.354 275.547 133.284C275.659 133.213 275.746 133.11 275.797 132.988C275.849 132.866 275.861 132.732 275.833 132.603C275.805 132.474 275.737 132.357 275.64 132.267C275.624 132.203 275.612 132.156 275.596 132.092C275.602 132.078 275.607 132.064 275.613 132.05C275.747 131.736 275.97 131.469 276.255 131.281C276.541 131.093 276.876 130.994 277.217 130.995C277.559 130.997 277.893 131.098 278.177 131.288C278.461 131.478 278.683 131.747 278.814 132.062C279.337 133.318 280.004 134.576 280.168 135.904C280.24 136.49 280.21 137.085 280.078 137.662C281.307 134.99 281.945 132.087 281.95 129.148C281.95 128.41 281.909 127.673 281.826 126.94C281.758 126.34 281.664 125.743 281.543 125.151C280.884 121.937 279.469 118.925 277.415 116.362C276.421 115.821 275.616 114.99 275.111 113.98C274.928 113.617 274.798 113.23 274.727 112.83C274.839 112.844 274.953 112.854 275.065 112.861C275.1 112.863 275.137 112.865 275.172 112.866L275.185 112.867C275.308 112.873 275.43 112.842 275.537 112.78C275.643 112.718 275.729 112.627 275.785 112.517C275.841 112.407 275.863 112.284 275.85 112.162C275.837 112.039 275.788 111.924 275.71 111.828C275.662 111.769 275.614 111.709 275.565 111.65C275.492 111.559 275.416 111.469 275.343 111.377C275.334 111.368 275.326 111.359 275.319 111.35C275.234 111.245 275.15 111.143 275.065 111.038C275.219 110.8 275.427 110.6 275.672 110.454C276.519 109.959 277.689 110.302 278.301 111.066C278.915 111.83 279.031 112.901 278.818 113.856C278.608 114.668 278.261 115.438 277.792 116.134C277.838 116.193 277.886 116.25 277.932 116.308C278.772 117.385 279.505 118.541 280.119 119.76C279.969 118.394 280.147 117.013 280.639 115.73C281.136 114.533 282.069 113.526 282.891 112.492C283.877 111.25 285.901 111.792 286.075 113.367C286.076 113.382 286.078 113.397 286.08 113.412C285.958 113.481 285.838 113.554 285.721 113.631C285.575 113.728 285.461 113.868 285.395 114.031C285.329 114.194 285.314 114.374 285.353 114.545C285.391 114.717 285.48 114.873 285.609 114.994C285.738 115.114 285.9 115.193 286.075 115.219L286.093 115.222C286.049 115.66 285.972 116.094 285.863 116.521C285.545 117.712 284.984 118.824 284.215 119.789C283.446 120.753 282.485 121.549 281.392 122.126C281.321 122.163 281.251 122.2 281.179 122.234C281.796 123.976 282.183 125.79 282.33 127.631C282.414 128.717 282.409 129.808 282.316 130.893L282.321 130.855C282.556 129.648 283.203 128.559 284.151 127.772C285.559 126.62 287.548 126.195 289.067 125.269C289.228 125.166 289.416 125.111 289.608 125.111C289.8 125.11 289.988 125.164 290.15 125.267C290.312 125.369 290.441 125.516 290.522 125.689C290.603 125.862 290.633 126.055 290.608 126.244C290.606 126.258 290.604 126.271 290.601 126.285C290.375 126.376 290.154 126.482 289.941 126.601C289.819 126.67 289.7 126.743 289.583 126.82C289.436 126.918 289.322 127.057 289.257 127.22C289.191 127.384 289.176 127.563 289.214 127.735C289.252 127.906 289.342 128.063 289.471 128.183C289.599 128.303 289.762 128.382 289.936 128.409L289.954 128.411C289.967 128.413 289.978 128.415 289.991 128.417C289.604 129.337 289.061 130.184 288.386 130.921C287.551 131.813 286.543 132.525 285.422 133.015C284.302 133.505 283.092 133.762 281.869 133.769H281.867C281.535 135.207 281.053 136.607 280.431 137.946H275.3C275.282 137.889 275.265 137.831 275.249 137.774C275.724 137.804 276.2 137.775 276.668 137.69C276.288 137.224 275.907 136.755 275.526 136.29C275.518 136.281 275.51 136.272 275.503 136.263C275.309 136.024 275.115 135.788 274.921 135.55L274.921 135.55C274.911 134.82 274.995 134.091 275.172 133.383L275.172 133.383Z" fill="#ABAEAE"/>
<path d="M242.571 172.22L244.718 171.584L243.298 162.842L240.129 163.78L242.571 172.22Z" fill="#FFB6B6"/>
<path d="M229.402 168.769C229.533 168.883 229.664 168.995 229.796 169.107C230.06 169.331 230.327 169.553 230.594 169.772C230.728 169.881 230.864 169.991 230.999 170.099L230.998 170.103L231.007 170.106L231.009 170.108L231.226 170.199L231.686 169.398L231.898 169.028L232.197 168.505L232.746 167.549L235.636 162.511L232.592 161.232L232.396 161.697L232.395 161.697L232.298 161.927L230.48 166.224L230.109 167.103L230.097 167.129L229.874 167.654L229.682 168.108L229.467 168.616L229.402 168.769Z" fill="#FFB6B6"/>
<path d="M213.498 146.967C213.648 147.32 213.802 147.672 213.958 148.022C214.249 148.672 214.55 149.316 214.864 149.952C214.864 149.953 214.865 149.954 214.866 149.955C215.068 150.21 215.298 150.441 215.554 150.643C215.564 150.654 215.576 150.662 215.587 150.671C215.775 150.817 215.981 150.939 216.199 151.035C216.278 151.069 216.358 151.102 216.437 151.136C216.722 151.253 217.006 151.359 217.289 151.457C217.793 151.631 218.297 151.778 218.8 151.899C218.84 151.91 218.881 151.919 218.921 151.929C220.994 152.413 223.076 152.489 225.272 152.42C226.356 152.388 227.468 152.319 228.62 152.248C228.996 152.224 229.374 152.201 229.756 152.179C229.785 152.178 229.816 152.175 229.846 152.174C230.392 152.142 230.947 152.112 231.514 152.087C232.229 152.054 232.964 152.029 233.727 152.017L233.509 153.049C233.337 153.843 233.045 154.607 232.641 155.312C232.177 156.185 231.811 156.876 232.098 158.479L232.236 159.256C232.046 159.6 231.938 159.984 231.922 160.377C231.906 160.77 231.981 161.162 232.142 161.521L232.181 161.606L229.202 166.631L229.009 166.957L230.098 167.129L231.437 167.342L233.708 167.7L238.026 161.669L238.232 161.381L238.235 161.365L239.897 148.728C239.91 148.616 239.919 148.503 239.922 148.389C239.943 147.875 239.86 147.363 239.68 146.881C239.499 146.399 239.224 145.958 238.87 145.583C238.532 145.221 238.125 144.93 237.672 144.727C237.22 144.523 236.731 144.411 236.235 144.398L235.091 144.365L232.753 144.299L231.105 144.253L231.072 144.252L226.215 144.114L226.094 142.673L226.035 142.64L224.147 141.592L217.619 137.968L217.602 137.959L217.172 137.721L217.104 137.8C217.084 137.824 217.064 137.847 217.045 137.871C216.466 138.605 215.964 139.395 215.547 140.231C214.852 141.593 214.236 142.994 213.7 144.426C213.677 144.488 213.656 144.544 213.637 144.595L213.631 144.611C213.622 144.635 213.617 144.65 213.615 144.655C213.349 145.292 213.332 146.119 213.498 146.967Z" fill="#2F2E41"/>
<path d="M213.943 142.282C213.98 142.192 214.023 142.101 214.067 142.014C214.41 141.354 214.79 140.713 215.205 140.095C215.671 139.39 216.215 138.642 216.849 137.839C217.156 137.45 217.484 137.048 217.832 136.63C218.007 136.421 218.187 136.209 218.374 135.993C218.381 135.983 218.389 135.973 218.398 135.964L218.452 135.9L225.164 137.897L225.161 138.812L225.647 140.109L225.614 140.148C225.616 140.148 225.616 140.146 225.614 140.148V139.97L225.793 140.148L227.524 142.278L227.536 142.278L231.403 142.387L235.388 142.499L237.529 142.56C238.025 142.574 238.514 142.685 238.966 142.889C239.418 143.092 239.826 143.384 240.164 143.745C240.518 144.12 240.793 144.561 240.973 145.043C241.154 145.525 241.236 146.038 241.216 146.552C241.213 146.656 241.205 146.763 241.193 146.867L242.429 151.851C243.169 154.832 243.453 157.907 243.272 160.972L243.989 165.823L243.779 165.809L240.658 165.609L239.834 165.556L238.459 162.673C238.302 162.345 238.157 162.009 238.027 161.668C237.811 161.111 237.631 160.54 237.488 159.96L235.078 150.179C234.771 150.183 234.467 150.185 234.166 150.185C232.775 150.19 231.445 150.163 230.176 150.105C226.048 149.916 222.53 149.397 219.464 148.521C218.603 148.276 217.776 148.002 216.984 147.699C216.694 147.588 216.408 147.474 216.127 147.355C216.061 147.328 215.996 147.301 215.931 147.273C215.35 147.022 214.841 146.63 214.452 146.132C214.062 145.634 213.804 145.047 213.702 144.425C213.576 143.702 213.659 142.958 213.943 142.282Z" fill="#2F2E41"/>
<path d="M242.149 170.762L244.472 170.072L244.836 169.963L245.167 171.371L248.812 172.795C248.992 172.865 249.145 172.991 249.248 173.154C249.351 173.317 249.4 173.509 249.386 173.701C249.372 173.893 249.297 174.076 249.171 174.223C249.046 174.37 248.877 174.473 248.688 174.517L244.76 175.434L243.756 174.199L243.819 175.654L242.339 176L241.584 170.93L242.149 170.762Z" fill="#2F2E41"/>
<path d="M229.201 166.631L229.008 166.957L229.146 166.978L229.201 166.631Z" fill="#2F2E41"/>
<path d="M229.887 167.171L232.025 168.309L232.361 168.487L231.601 169.719L233.185 173.286C233.263 173.462 233.283 173.659 233.241 173.847C233.2 174.035 233.099 174.205 232.953 174.332C232.807 174.459 232.625 174.536 232.432 174.553C232.239 174.569 232.046 174.523 231.881 174.422L228.442 172.321L228.6 170.74L227.618 171.818L226.322 171.026L229.366 166.895L229.887 167.171Z" fill="#2F2E41"/>
<path d="M245.339 102.302C245.36 102.538 245.328 102.776 245.246 102.998C245.165 103.221 245.035 103.423 244.867 103.59C244.698 103.757 244.495 103.886 244.271 103.966C244.048 104.047 243.809 104.078 243.572 104.056L241.194 109.306L239.588 106.777L242.093 102.179C242.155 101.785 242.36 101.427 242.669 101.174C242.979 100.92 243.37 100.789 243.771 100.804C244.171 100.819 244.551 100.98 244.841 101.256C245.13 101.532 245.307 101.904 245.339 102.302Z" fill="#FFB6B6"/>
<path d="M239.29 117.92L228.393 126.225C227.529 126.883 226.438 127.172 225.36 127.029C224.282 126.886 223.305 126.323 222.643 125.463C222.277 124.987 222.021 124.436 221.893 123.85C221.765 123.264 221.768 122.657 221.901 122.072C222.035 121.487 222.297 120.939 222.667 120.466C223.037 119.993 223.508 119.607 224.045 119.336L234.908 113.846L239.768 104.414L243.031 105.38L239.29 117.92Z" fill="#3EBCD2"/>
<path d="M216.083 127.788L215.862 135.847C212.822 140.964 212.476 143.448 213.318 144.773L225.819 140.224L226.029 139.723L226.682 136.122L227.866 132.407C228.074 132.018 230.903 129.633 228.251 125.109L222.916 117.949L218.641 117.705C217.936 119.507 219.207 120.49 217.938 120.906C215.066 123.527 215.488 123.954 216.083 127.788Z" fill="#3EBCD2"/>
<path d="M207.582 150.412C207.485 150.196 207.437 149.961 207.442 149.724C207.446 149.487 207.502 149.254 207.607 149.041C207.711 148.828 207.861 148.64 208.046 148.492C208.231 148.343 208.447 148.236 208.677 148.179L209.205 142.443L211.552 144.312L210.691 149.472C210.761 149.865 210.685 150.27 210.475 150.61C210.266 150.95 209.939 151.202 209.556 151.318C209.173 151.434 208.76 151.405 208.396 151.238C208.033 151.072 207.743 150.778 207.582 150.412Z" fill="#FFB6B6"/>
<path d="M208.182 133.683L215.759 122.289C216.361 121.386 217.297 120.758 218.363 120.543C219.429 120.327 220.537 120.542 221.444 121.139C221.946 121.47 222.369 121.907 222.682 122.42C222.995 122.932 223.191 123.507 223.256 124.103C223.322 124.699 223.254 125.303 223.059 125.87C222.864 126.437 222.546 126.955 222.127 127.386L213.659 136.109L212.156 146.604L208.756 146.752L208.182 133.683Z" fill="#3EBCD2"/>
<path d="M224.239 107.926C225.751 110.894 224.763 114.332 221.958 116.139C218.925 118.094 214.987 117.666 213.714 113.867C212.295 109.637 213.46 107.822 215.994 105.654C218.964 103.113 222.606 104.719 224.239 107.926Z" fill="#2F2E41"/>
<path d="M216.799 114.538C217.568 115.543 218.707 116.202 219.964 116.371C221.221 116.54 222.493 116.205 223.503 115.439C224.512 114.674 225.175 113.541 225.345 112.289C225.516 111.037 225.181 109.768 224.414 108.762L224.372 108.708C223.589 107.73 222.45 107.099 221.203 106.95C219.956 106.801 218.701 107.146 217.707 107.911C216.713 108.676 216.061 109.8 215.892 111.039C215.722 112.279 216.048 113.535 216.8 114.538L216.799 114.538Z" fill="#FFB6B6"/>
<path d="M225.705 107.447C224.927 108.184 223.979 108.719 222.944 109.005C222.737 108.766 222.491 108.563 222.217 108.404C222.348 108.676 222.438 108.966 222.484 109.265C222.023 110.219 220.138 110.904 218.337 111.605L215.951 107.411L219.109 105.629C221.646 103.881 224.633 104.627 225.705 107.447Z" fill="#2F2E41"/>
<path d="M214.152 105.66C213.722 105.462 213.166 105.584 212.762 105.862C212.377 106.153 212.066 106.53 211.854 106.962C211.468 107.661 211.19 108.414 211.031 109.196C210.895 109.873 210.918 110.691 211.527 111.044C212.036 111.338 212.762 111.153 213.23 110.76C213.697 110.366 213.96 109.814 214.188 109.274C214.416 108.735 214.632 108.175 215.037 107.727L214.616 107.923C214.749 107.521 214.811 107.098 214.799 106.675C214.79 106.464 214.725 106.259 214.611 106.081C214.498 105.903 214.339 105.758 214.152 105.66Z" fill="#2F2E41"/>
<path d="M219.613 106.209L216.226 108.121C215.31 108.638 214.637 109.497 214.357 110.508C214.076 111.519 214.21 112.599 214.729 113.512C215.485 114.841 216.711 115.841 218.168 116.317C219.625 116.794 221.208 116.712 222.608 116.088L219.512 113.365L223.712 115.497L224.608 114.991C220.105 114.175 219.236 110.655 219.613 106.209Z" fill="#2F2E41"/>
</g>
<defs>
<filter id="filter0_d_398_2131" x="0" y="0" width="511" height="329" filterUnits="userSpaceOnUse" color-interpolation-filters="sRGB">
<feFlood flood-opacity="0" result="BackgroundImageFix"/>
<feColorMatrix in="SourceAlpha" type="matrix" values="0 0 0 0 0 0 0 0 0 0 0 0 0 0 0 0 0 0 127 0" result="hardAlpha"/>
<feOffset dy="8"/>
<feGaussianBlur stdDeviation="12"/>
<feComposite in2="hardAlpha" operator="out"/>
<feColorMatrix type="matrix" values="0 0 0 0 0 0 0 0 0 0 0 0 0 0 0 0 0 0 0.15 0"/>
<feBlend mode="normal" in2="BackgroundImageFix" result="effect1_dropShadow_398_2131"/>
<feBlend mode="normal" in="SourceGraphic" in2="effect1_dropShadow_398_2131" result="shape"/>
</filter>
<clipPath id="clip0_398_2131">
<rect width="182" height="134" fill="white" transform="translate(172 42)"/>
</clipPath>
</defs>
</svg>
